<?xml version="1.0" encoding="UTF-8"?><svg id="Camada_1" xmlns="http://www.w3.org/2000/svg" viewBox="0 0 1021 143.87"><defs><style>.cls-1{fill:#95b71d;}.cls-2{fill:#2755a1;}</style></defs><path class="cls-2" d="M72.21,44.68v54.7c0,3.8-2.8,6.8-6.6,6.8-3.3,0-4.9-1.9-6.7-4.1l-29.4-37.8v35c0,3.9-2.9,6.9-6.7,6.9s-6.8-3-6.8-6.9V44.58c0-3.8,2.9-6.8,6.6-6.8,3.4,0,4.9,1.9,6.9,4.4l29.3,37.5-.1-35c0-3.9,2.9-6.9,6.8-6.9s6.7,3,6.7,6.9Z"/><path class="cls-1" d="M158.27,3.5c-9.16-.04-16.63,7.36-16.67,16.52v.2c0,4.01,1.48,7.89,4.16,10.88l-9.29,11.38c-5.24-2.99-11.38-4.7-17.97-4.7-7.59,0-14.54,2.25-20.22,6.12l-20.99-19.3c1.34-2.43,2.05-5.16,2.05-7.93v-.07C79.34,7.46,71.96,.04,62.82,0h-.07C53.61,0,46.19,7.38,46.15,16.51c-.04,9.17,7.36,16.63,16.52,16.67,3.91,.03,7.7-1.34,10.7-3.85l20.12,18.51c-6.21,6.14-9.99,14.62-9.99,24.14,0,8.24,2.81,15.7,7.59,21.54l-16.33,19.62c-1.3-.8-2.69-1.41-4.14-1.83s-2.96-.63-4.48-.63h-.07c-9.14,0-16.56,7.38-16.6,16.52-.04,9.17,7.36,16.63,16.52,16.67,9.17,.04,16.63-7.36,16.67-16.52,.02-3.64-1.16-7.18-3.36-10.08l16.32-19.17c6.09,5.06,14.04,8.08,22.88,8.08,19.7,0,35.2-15.1,35.2-34.2,0-9.83-4.13-18.61-10.82-24.8l9.39-11.42c1.86,.75,3.86,1.06,5.85,.93,9.16,.04,16.63-7.36,16.67-16.52v-.07c0-9.14-7.38-16.56-16.52-16.6Zm-39.67,90.18c-12.4,0-21.2-9-21.2-21.7s8.9-21.7,21.2-21.7,21.2,9.1,21.2,21.7-8.8,21.7-21.2,21.7Z"/><path class="cls-2" d="M180,99.28V51.18h-15.7c-3.5,0-6.2-2.7-6.2-6.1s2.7-6.1,6.2-6.1h44.9c3.6,0,6.2,2.6,6.2,6.1s-2.7,6.1-6.2,6.1h-15.7v48.1c0,3.9-2.9,6.9-6.8,6.9s-6.7-3-6.7-6.9h0Z"/><path class="cls-2" d="M275.6,99.98c0,3.4-2.9,6.2-6.3,6.2-2.4,0-4.4-1.2-6-3.5l-14.8-21h-11.5v17.6c0,3.9-2.9,6.9-6.7,6.9s-6.8-3-6.8-6.9V45.78c0-3.9,2.9-6.8,6.9-6.8h18c14.1,0,23.7,8.6,23.7,21.2,0,8-3.9,14.5-10.3,18.2l11.9,16.5c1.2,1.8,1.9,3.5,1.9,5.1Zm-38.6-30.2h11.3c6.2,0,10-3.7,10-9.5s-3.9-9.4-10-9.4h-11.3v18.9h0Z"/><path class="cls-2" d="M287.5,98.28V45.68c0-3.8,2.9-6.7,6.7-6.7h32.3c3.6,0,6.2,2.6,6.2,6.1s-2.7,6.1-6.2,6.1h-25.5v13.4h17.5c3.4,0,5.9,2.5,5.9,5.8s-2.5,5.7-5.9,5.7h-17.5v16.7h26.7c3.6,0,6.2,2.7,6.2,6.1s-2.7,6.1-6.2,6.1h-33.5c-3.8,0-6.7-2.9-6.7-6.7Z"/><path class="cls-2" d="M372.4,97.28c-1.6-1.6-2.5-3.3-2.5-5.2,.1-3.6,3-6,6.2-6,1.2,0,2.5,.4,3.5,1.3,2.7,2.8,7.4,6.8,14.1,6.8,5.9,0,9.4-2.8,9.4-7.3,0-3.8-2.3-5.4-8.4-8.2l-7.1-3.2c-10.5-4.8-16-10.5-16-19,0-11.1,9.4-18.7,21.9-18.7,9.9,0,15.7,4.6,18.5,7.8,1.4,1.5,1.8,3,1.8,4.3,0,3.4-3.1,6-6.2,6-1.2,0-2.5-.4-3.7-1.4-2.7-2.4-5.7-4.7-10.4-4.7s-8.2,2.3-8.2,6.4c0,3.3,1.8,4.9,7.7,7.6l7.5,3.3c11,4.9,16.3,10.3,16.3,19.3,0,12.2-9.9,19.8-23.1,19.8-7.8,0-16.4-3.5-21.3-8.9h0Z"/><path class="cls-2" d="M483.4,99.68c0,3.6-2.8,6.5-6.6,6.5-2.9,0-5.1-1.7-6.4-4.8l-2.8-6.8h-27.9l-2.8,6.8c-1.2,3.1-3.4,4.8-6.3,4.8-3.8,0-6.7-2.9-6.7-6.5,0-1,.3-2.2,.8-3.6l22.6-53.7c1.2-3,3.4-4.6,6.4-4.6s5.2,1.6,6.4,4.6l22.5,53.7c.6,1.4,.8,2.6,.8,3.6Zm-39.3-16.2h19l-9.4-25.8-9.6,25.8Z"/><path class="cls-2" d="M541.6,44.28c0,1.2-.2,2.5-.8,3.6l-22.5,53.7c-1.3,3.1-3.4,4.6-6.4,4.6s-5.2-1.5-6.4-4.6l-22.6-53.7c-.5-1.1-.8-2.4-.8-3.6,0-3.6,2.9-6.5,6.7-6.5,2.9,0,5.1,1.7,6.3,4.8l16.8,41.3,16.7-41.3c1.3-3.1,3.5-4.8,6.4-4.8,3.8,0,6.6,2.9,6.6,6.5Z"/><path class="cls-2" d="M617,71.98c0,19.1-15.5,34.2-35.2,34.2s-35-15-35-34.2,15.4-34.2,35-34.2,35.2,15.1,35.2,34.2Zm-56.3,0c0,12.7,8.8,21.7,21.2,21.7s21.2-9.1,21.2-21.7-8.9-21.7-21.2-21.7-21.2,9-21.2,21.7Z"/><path class="cls-2" d="M628.3,99.28V44.68c0-3.9,2.8-6.9,6.8-6.9s6.7,3,6.7,6.9v54.6c0,3.9-2.8,6.9-6.7,6.9s-6.8-3-6.8-6.9Z"/><path class="cls-2" d="M708.9,99.98c0,3.4-2.9,6.2-6.3,6.2-2.4,0-4.4-1.2-6-3.5l-14.8-21h-11.5v17.6c0,3.9-2.9,6.9-6.7,6.9s-6.8-3-6.8-6.9V45.78c0-3.9,2.9-6.8,6.9-6.8h18c14.1,0,23.7,8.6,23.7,21.2,0,8-3.9,14.5-10.3,18.2l11.9,16.5c1.2,1.8,1.9,3.5,1.9,5.1h0Zm-38.6-30.2h11.3c6.2,0,10-3.7,10-9.5s-3.9-9.4-10-9.4h-11.3v18.9Z"/><path class="cls-2" d="M741.8,72.88c0,3.2-2.4,5.7-5.7,5.7h-15.3c-3.3,0-5.7-2.5-5.7-5.7s2.4-5.6,5.7-5.6h15.3c3.3,0,5.7,2.4,5.7,5.6Z"/><path class="cls-2" d="M753,99.28V45.88c0-4,2.9-6.9,6.9-6.9h31.1c3.6,0,6.2,2.6,6.2,6.1s-2.7,6.1-6.2,6.1h-24.5v16.5h19.1c3.6,0,6.2,2.7,6.2,6.1s-2.7,6.1-6.2,6.1h-19.1v19.4c0,3.9-2.8,6.9-6.7,6.9s-6.8-3-6.8-6.9Z"/><path class="cls-2" d="M855.2,99.68c0,3.6-2.8,6.5-6.6,6.5-2.9,0-5.1-1.7-6.4-4.8l-2.8-6.8h-27.9l-2.8,6.8c-1.2,3.1-3.4,4.8-6.3,4.8-3.8,0-6.7-2.9-6.7-6.5,0-1,.3-2.2,.8-3.6l22.6-53.7c1.2-3,3.4-4.6,6.4-4.6s5.2,1.6,6.4,4.6l22.5,53.7c.6,1.4,.8,2.6,.8,3.6Zm-39.3-16.2h19l-9.4-25.8-9.6,25.8Z"/><path class="cls-2" d="M866.1,99.28V44.68c0-3.9,2.8-6.9,6.8-6.9s6.7,3,6.7,6.9v54.6c0,3.9-2.8,6.9-6.7,6.9s-6.8-3-6.8-6.9Z"/><path class="cls-2" d="M946.7,99.98c0,3.4-2.9,6.2-6.3,6.2-2.4,0-4.4-1.2-6-3.5l-14.8-21h-11.5v17.6c0,3.9-2.9,6.9-6.7,6.9s-6.8-3-6.8-6.9V45.78c0-3.9,2.9-6.8,6.9-6.8h18c14.1,0,23.7,8.6,23.7,21.2,0,8-3.9,14.5-10.3,18.2l11.9,16.5c1.2,1.8,1.9,3.5,1.9,5.1h0Zm-38.6-30.2h11.3c6.2,0,10-3.7,10-9.5s-3.9-9.4-10-9.4h-11.3v18.9Z"/><path class="cls-2" d="M958.6,98.28V45.68c0-3.8,2.9-6.7,6.7-6.7h32.3c3.6,0,6.2,2.6,6.2,6.1s-2.7,6.1-6.2,6.1h-25.5v13.4h17.5c3.4,0,5.9,2.5,5.9,5.8s-2.5,5.7-5.9,5.7h-17.5v16.7h26.7c3.6,0,6.2,2.7,6.2,6.1s-2.7,6.1-6.2,6.1h-33.5c-3.8,0-6.7-2.9-6.7-6.7Z"/></svg>