<?xml version="1.0" encoding="UTF-8"?><svg id="Camada_1" xmlns="http://www.w3.org/2000/svg" viewBox="0 0 701.9 143.87"><defs><style>.cls-1{fill:#95b71d;}.cls-2{fill:#2755a1;}</style></defs><path class="cls-2" d="M360.6,98.28V45.68c0-3.8,2.9-6.7,6.7-6.7h32.3c3.6,0,6.2,2.6,6.2,6.1s-2.7,6.1-6.2,6.1h-25.5v13.4h17.5c3.4,0,5.9,2.5,5.9,5.8s-2.5,5.7-5.9,5.7h-17.5v16.7h26.7c3.6,0,6.2,2.7,6.2,6.1s-2.7,6.1-6.2,6.1h-33.5c-3.8,0-6.7-2.9-6.7-6.7Zm18.4-74l5.2-10c1.5-2.9,4.3-3.6,6.2-3.5,5.3,.1,8.4,6.4,5.1,10.7l-6.4,9c-1.7,2.2-3.9,2.6-5,2.6-4.9-.1-6.8-5.5-5.1-8.8Z"/><path class="cls-2" d="M515.5,120.68c0,2.3-1.2,4.1-3.6,5-2.2,.9-5.3,1.4-9.3,1.4-18.1,0-33.6-8-43.9-22.6-3.5,1.1-7.2,1.7-11.1,1.7-19.7,0-35-15-35-34.2s15.4-34.2,35-34.2,35.2,15.1,35.2,34.2c0,10.8-5,20.4-12.9,26.6,9,11.7,20,17,35,17,2.2,0,3.9-.2,4.9-.2,3.5,0,5.7,2,5.7,5.3Zm-67.8-27c12.3,0,21.2-9.1,21.2-21.7s-8.9-21.7-21.3-21.7-21.1,9-21.1,21.7,8.8,21.7,21.2,21.7Z"/><path class="cls-2" d="M493.6,77.68V44.68c0-3.9,2.9-6.9,6.8-6.9s6.7,3,6.7,6.9v34c0,9.2,5.6,15,14.5,15s14.5-5.8,14.5-15V44.68c0-3.9,2.9-6.9,6.8-6.9s6.7,3,6.7,6.9v33c0,17-11.3,28.5-28,28.5s-28-11.5-28-28.5Z"/><path class="cls-2" d="M564.1,99.28V44.68c0-3.9,2.8-6.9,6.8-6.9s6.7,3,6.7,6.9v54.6c0,3.9-2.8,6.9-6.7,6.9s-6.8-3-6.8-6.9Z"/><path class="cls-2" d="M592.6,99.28V45.88c0-4,2.9-6.9,6.9-6.9h18c14.1,0,23.7,8.6,23.7,21.3s-9.8,21.4-23.7,21.4h-11.4v17.6c0,3.9-2.9,6.9-6.7,6.9s-6.8-3-6.8-6.9Zm24.8-29.4c6.2,0,10-3.7,10-9.6s-3.8-9.4-10-9.4h-11.3v19h11.3Z"/><path class="cls-2" d="M651.89,98.28V45.68c0-3.8,2.9-6.7,6.7-6.7h32.3c3.6,0,6.2,2.6,6.2,6.1s-2.7,6.1-6.2,6.1h-25.5v13.4h17.5c3.4,0,5.9,2.5,5.9,5.8s-2.5,5.7-5.9,5.7h-17.5v16.7h26.7c3.6,0,6.2,2.7,6.2,6.1s-2.7,6.1-6.2,6.1h-33.5c-3.8,0-6.7-2.9-6.7-6.7Z"/><path class="cls-2" d="M60.02,44.8v54.7c0,3.8-2.8,6.8-6.6,6.8-3.3,0-4.9-1.9-6.7-4.1l-29.4-37.8v35c0,3.9-2.9,6.9-6.7,6.9s-6.8-3-6.8-6.9V44.7c0-3.8,2.9-6.8,6.6-6.8,3.4,0,4.9,1.9,6.9,4.4l29.3,37.5-.1-35c0-3.9,2.9-6.9,6.8-6.9s6.7,3,6.7,6.9Z"/><path class="cls-1" d="M146.08,3.62c-9.16-.04-16.63,7.36-16.67,16.52v.2c0,4.01,1.48,7.89,4.16,10.88l-9.29,11.38c-5.24-2.99-11.38-4.7-17.97-4.7-7.59,0-14.54,2.25-20.22,6.12l-20.99-19.3c1.34-2.43,2.05-5.16,2.05-7.93v-.07C67.15,7.58,59.77,.16,50.63,.12h-.07c-9.14,0-16.56,7.38-16.6,16.51-.04,9.17,7.36,16.63,16.52,16.67,3.91,.03,7.7-1.34,10.7-3.85l20.12,18.51c-6.21,6.14-9.99,14.62-9.99,24.14,0,8.24,2.81,15.7,7.59,21.54l-16.33,19.62c-1.3-.8-2.69-1.41-4.14-1.83s-2.96-.63-4.48-.63h-.07c-9.14,0-16.56,7.38-16.6,16.52-.04,9.17,7.36,16.63,16.52,16.67,9.17,.04,16.63-7.36,16.67-16.52,.02-3.64-1.16-7.18-3.36-10.08l16.32-19.17c6.09,5.06,14.04,8.08,22.88,8.08,19.7,0,35.2-15.1,35.2-34.2,0-9.83-4.13-18.61-10.82-24.8l9.39-11.42c1.86,.75,3.86,1.06,5.85,.93,9.16,.04,16.63-7.36,16.67-16.52v-.07c0-9.14-7.38-16.56-16.52-16.6Zm-39.67,90.18c-12.4,0-21.2-9-21.2-21.7s8.9-21.7,21.2-21.7,21.2,9.1,21.2,21.7-8.8,21.7-21.2,21.7Z"/><path class="cls-2" d="M167.81,99.4V51.3h-15.7c-3.5,0-6.2-2.7-6.2-6.1s2.7-6.1,6.2-6.1h44.9c3.6,0,6.2,2.6,6.2,6.1s-2.7,6.1-6.2,6.1h-15.7v48.1c0,3.9-2.9,6.9-6.8,6.9s-6.7-3-6.7-6.9h0Z"/><path class="cls-2" d="M263.41,100.1c0,3.4-2.9,6.2-6.3,6.2-2.4,0-4.4-1.2-6-3.5l-14.8-21h-11.5v17.6c0,3.9-2.9,6.9-6.7,6.9s-6.8-3-6.8-6.9V45.9c0-3.9,2.9-6.8,6.9-6.8h18c14.1,0,23.7,8.6,23.7,21.2,0,8-3.9,14.5-10.3,18.2l11.9,16.5c1.2,1.8,1.9,3.5,1.9,5.1Zm-38.6-30.2h11.3c6.2,0,10-3.7,10-9.5s-3.9-9.4-10-9.4h-11.3v18.9h0Z"/><path class="cls-2" d="M275.31,98.4V45.8c0-3.8,2.9-6.7,6.7-6.7h32.3c3.6,0,6.2,2.6,6.2,6.1s-2.7,6.1-6.2,6.1h-25.5v13.4h17.5c3.4,0,5.9,2.5,5.9,5.8s-2.5,5.7-5.9,5.7h-17.5v16.7h26.7c3.6,0,6.2,2.7,6.2,6.1s-2.7,6.1-6.2,6.1h-33.5c-3.8,0-6.7-2.9-6.7-6.7Z"/></svg>