<?xml version="1.0" encoding="UTF-8"?><svg id="Camada_1" xmlns="http://www.w3.org/2000/svg" viewBox="0 0 499.39 143.87"><defs><style>.cls-1{fill:#fff;}.cls-2{fill:#95b71d;}.cls-3{isolation:isolate;}</style></defs><g class="cls-3"><path class="cls-1" d="M65.8,44.68v54.7c0,3.8-2.8,6.8-6.6,6.8-3.3,0-4.9-1.9-6.7-4.1l-29.4-37.8v35c0,3.9-2.9,6.9-6.7,6.9s-6.8-3-6.8-6.9V44.58c0-3.8,2.9-6.8,6.6-6.8,3.4,0,4.9,1.9,6.9,4.4l29.3,37.5-.1-35c0-3.9,2.9-6.9,6.8-6.9s6.7,3,6.7,6.9Z"/></g><g class="cls-3"><path class="cls-2" d="M151.86,3.5c-9.16-.04-16.63,7.36-16.67,16.52v.16c0,4.03,1.48,7.92,4.16,10.92l-9.26,11.35c-5.24-2.98-11.38-4.68-18-4.68-7.59,0-14.56,2.25-20.24,6.12l-20.97-19.3c1.34-2.42,2.04-5.15,2.05-7.92v-.07C72.93,7.46,65.55,.04,56.41,0h-.07C47.2,0,39.78,7.38,39.74,16.52c-.04,9.17,7.36,16.63,16.52,16.67,3.91,.02,7.71-1.35,10.7-3.86l20.12,18.5c-6.21,6.14-9.99,14.62-9.99,24.14,0,8.23,2.81,15.7,7.58,21.54l-16.33,19.62c-2.59-1.59-5.57-2.44-8.62-2.45h-.07c-9.13,0-16.55,7.38-16.59,16.52-.04,9.16,7.35,16.63,16.52,16.67,9.16,.03,16.62-7.36,16.67-16.53,.02-3.63-1.16-7.17-3.36-10.07l16.31-19.18c6.09,5.07,14.05,8.09,22.89,8.09,19.71,0,35.21-15.1,35.21-34.21,0-9.84-4.12-18.62-10.8-24.82l9.36-11.39c1.86,.75,3.86,1.06,5.86,.93,9.16,.04,16.62-7.36,16.66-16.52v-.07c0-9.14-7.38-16.56-16.52-16.6Zm-39.67,90.18c-12.4,0-21.2-9-21.2-21.71s8.8-21.7,21.2-21.7,21.21,9.1,21.21,21.7-8.91,21.71-21.21,21.71Z"/></g><path class="cls-1" d="M158.29,97.28c-1.6-1.6-2.5-3.3-2.5-5.2,.1-3.6,3-6,6.2-6,1.2,0,2.5,.4,3.5,1.3,2.7,2.8,7.4,6.8,14.1,6.8,5.9,0,9.4-2.8,9.4-7.3,0-3.8-2.3-5.4-8.4-8.2l-7.1-3.2c-10.5-4.8-16-10.5-16-19,0-11.1,9.4-18.7,21.9-18.7,9.9,0,15.7,4.6,18.5,7.8,1.4,1.5,1.8,3,1.8,4.3,0,3.4-3.1,6-6.2,6-1.2,0-2.5-.4-3.7-1.4-2.7-2.4-5.7-4.7-10.4-4.7s-8.2,2.3-8.2,6.4c0,3.3,1.8,4.9,7.7,7.6l7.5,3.3c11,4.9,16.3,10.3,16.3,19.3,0,12.2-9.9,19.8-23.1,19.8-7.8,0-16.4-3.5-21.3-8.9Z"/><path class="cls-1" d="M242.49,99.18V44.78c0-4,2.8-7,6.8-7s6.7,3,6.7,7v19.5h29.2v-19.6c0-4,2.8-6.9,6.8-6.9s6.7,2.9,6.7,6.9v54.5c0,4-2.9,7-6.7,7s-6.8-3-6.8-7v-22.7h-29.2v22.7c0,4-2.9,7-6.7,7s-6.8-3-6.8-7Z"/><path class="cls-1" d="M313.19,77.68V44.68c0-3.9,2.9-6.9,6.8-6.9s6.7,3,6.7,6.9v34c0,9.2,5.6,15,14.5,15s14.5-5.8,14.5-15V44.68c0-3.9,2.9-6.9,6.8-6.9s6.7,3,6.7,6.9v33c0,17-11.3,28.5-28,28.5s-28-11.5-28-28.5Z"/><path class="cls-1" d="M434.9,85.58c0,11.4-9,19.4-21.8,19.4h-22.5c-4,0-6.9-2.9-6.9-6.9V45.88c0-4,2.9-6.9,6.9-6.9h16.5c12.3,0,20.9,7.5,20.9,18.4,0,4.9-1.7,8.9-4.9,11.9,7.4,2.6,11.8,8.4,11.8,16.3Zm-38.1-35v15.1h9.3c5.3,0,8.6-2.9,8.6-7.6s-3.3-7.5-8.6-7.5h-9.3Zm24.7,34.5c0-5.2-3.5-8.3-9.4-8.3h-15.3v16.6h15.3c5.9,0,9.4-3,9.4-8.3Z"/><path class="cls-1" d="M445.39,97.28c-1.6-1.6-2.5-3.3-2.5-5.2,.1-3.6,3-6,6.2-6,1.2,0,2.5,.4,3.5,1.3,2.7,2.8,7.4,6.8,14.1,6.8,5.9,0,9.4-2.8,9.4-7.3,0-3.8-2.3-5.4-8.4-8.2l-7.1-3.2c-10.5-4.8-16-10.5-16-19,0-11.1,9.4-18.7,21.9-18.7,9.9,0,15.7,4.6,18.5,7.8,1.4,1.5,1.8,3,1.8,4.3,0,3.4-3.1,6-6.2,6-1.2,0-2.5-.4-3.7-1.4-2.7-2.4-5.7-4.7-10.4-4.7s-8.2,2.3-8.2,6.4c0,3.3,1.8,4.9,7.7,7.6l7.5,3.3c11,4.9,16.3,10.3,16.3,19.3,0,12.2-9.9,19.8-23.1,19.8-7.8,0-16.4-3.5-21.3-8.9Z"/></svg>