<?xml version="1.0" encoding="UTF-8"?><svg id="Camada_1" xmlns="http://www.w3.org/2000/svg" viewBox="0 0 762.84 143.87"><defs><style>.cls-1{fill:#95b71d;}.cls-2{fill:#2755a1;}.cls-3{isolation:isolate;}</style></defs><g class="cls-3"><path class="cls-1" d="M115.99,3.5h-.01c-9.16-.04-16.62,7.36-16.66,16.52v.2c0,4.02,1.48,7.89,4.16,10.89l-9.28,11.35c-5.24-2.98-11.37-4.68-17.98-4.68-7.59,0-14.55,2.25-20.23,6.12l-20.99-19.31c1.34-2.42,2.05-5.15,2.05-7.92v-.07C37.05,7.46,29.68,.04,20.53,0,11.37-.04,3.91,7.36,3.87,16.52h0c-.04,9.17,7.35,16.63,16.52,16.67,3.91,.02,7.7-1.34,10.7-3.85l20.12,18.5c-6.21,6.14-9.99,14.62-9.99,24.14,0,8.24,2.82,15.7,7.59,21.54l-16.34,19.61c-2.59-1.59-5.58-2.44-8.62-2.45h-.07c-9.14,0-16.56,7.38-16.6,16.52-.04,9.17,7.36,16.63,16.52,16.67,9.17,.04,16.63-7.36,16.67-16.52,.02-3.64-1.16-7.18-3.36-10.08l16.33-19.17c6.09,5.06,14.04,8.08,22.88,8.08,19.7,0,35.2-15.1,35.2-34.2,0-9.84-4.12-18.62-10.8-24.82l9.37-11.4c1.86,.75,3.86,1.07,5.85,.93,9.16,.04,16.63-7.35,16.67-16.52v-.07c0-9.14-7.38-16.56-16.52-16.6Zm-39.67,90.18c-12.4,0-21.2-9-21.2-21.7s8.8-21.7,21.2-21.7,21.2,9.1,21.2,21.7-8.9,21.7-21.2,21.7Z"/></g><path class="cls-2" d="M122.22,77.68V44.68c0-3.9,2.9-6.9,6.8-6.9s6.7,3,6.7,6.9v34c0,9.2,5.6,15,14.5,15s14.5-5.8,14.5-15V44.68c0-3.9,2.9-6.9,6.8-6.9s6.7,3,6.7,6.9v33c0,17-11.3,28.5-28,28.5s-28-11.5-28-28.5Z"/><path class="cls-2" d="M244.82,99.98c0,3.4-2.9,6.2-6.3,6.2-2.4,0-4.4-1.2-6-3.5l-14.8-21h-11.5v17.6c0,3.9-2.9,6.9-6.7,6.9s-6.8-3-6.8-6.9V45.78c0-3.9,2.9-6.8,6.9-6.8h18c14.1,0,23.7,8.6,23.7,21.2,0,8-3.9,14.5-10.3,18.2l11.9,16.5c1.2,1.8,1.9,3.5,1.9,5.1Zm-38.6-30.2h11.3c6.2,0,10-3.7,10-9.5s-3.9-9.4-10-9.4h-11.3v18.9Z"/><path class="cls-2" d="M284.72,99.28V45.88c0-4,2.9-6.9,6.9-6.9h18c14.1,0,23.7,8.6,23.7,21.3s-9.8,21.4-23.7,21.4h-11.4v17.6c0,3.9-2.9,6.9-6.7,6.9s-6.8-3-6.8-6.9Zm24.8-29.4c6.2,0,10-3.7,10-9.6s-3.8-9.4-10-9.4h-11.3v19h11.3Z"/><path class="cls-2" d="M391.32,99.68c0,3.6-2.8,6.5-6.6,6.5-2.9,0-5.1-1.7-6.4-4.8l-2.8-6.8h-27.9l-2.8,6.8c-1.2,3.1-3.4,4.8-6.3,4.8-3.8,0-6.7-2.9-6.7-6.5,0-1,.3-2.2,.8-3.6l22.6-53.7c1.2-3,3.4-4.6,6.4-4.6s5.2,1.6,6.4,4.6l22.5,53.7c.6,1.4,.8,2.6,.8,3.6Zm-39.3-16.2h19l-9.4-25.8-9.6,25.8Z"/><path class="cls-2" d="M454.32,99.98c0,3.4-2.9,6.2-6.3,6.2-2.4,0-4.4-1.2-6-3.5l-14.8-21h-11.5v17.6c0,3.9-2.9,6.9-6.7,6.9s-6.8-3-6.8-6.9V45.78c0-3.9,2.9-6.8,6.9-6.8h18c14.1,0,23.7,8.6,23.7,21.2,0,8-3.9,14.5-10.3,18.2l11.9,16.5c1.2,1.8,1.9,3.5,1.9,5.1Zm-38.6-30.2h11.3c6.2,0,10-3.7,10-9.5s-3.9-9.4-10-9.4h-11.3v18.9Z"/><path class="cls-2" d="M478.72,99.28V51.18h-15.7c-3.5,0-6.2-2.7-6.2-6.1s2.7-6.1,6.2-6.1h44.9c3.6,0,6.2,2.6,6.2,6.1s-2.7,6.1-6.2,6.1h-15.7v48.1c0,3.9-2.9,6.9-6.8,6.9s-6.7-3-6.7-6.9Z"/><path class="cls-2" d="M578.42,44.68v54.7c0,3.8-2.8,6.8-6.6,6.8-3.3,0-4.9-1.9-6.7-4.1l-29.4-37.8v35c0,3.9-2.9,6.9-6.7,6.9s-6.8-3-6.8-6.9V44.58c0-3.8,2.9-6.8,6.6-6.8,3.4,0,4.9,1.9,6.9,4.4l29.3,37.5-.1-35c0-3.9,2.9-6.9,6.8-6.9s6.7,3,6.7,6.9Z"/><path class="cls-2" d="M593.42,98.28V45.68c0-3.8,2.9-6.7,6.7-6.7h32.3c3.6,0,6.2,2.6,6.2,6.1s-2.7,6.1-6.2,6.1h-25.5v13.4h17.5c3.4,0,5.9,2.5,5.9,5.8s-2.5,5.7-5.9,5.7h-17.5v16.7h26.7c3.6,0,6.2,2.7,6.2,6.1s-2.7,6.1-6.2,6.1h-33.5c-3.8,0-6.7-2.9-6.7-6.7Z"/><path class="cls-2" d="M702.72,99.98c0,3.4-2.9,6.2-6.3,6.2-2.4,0-4.4-1.2-6-3.5l-14.8-21h-11.5v17.6c0,3.9-2.9,6.9-6.7,6.9s-6.8-3-6.8-6.9V45.78c0-3.9,2.9-6.8,6.9-6.8h18c14.1,0,23.7,8.6,23.7,21.2,0,8-3.9,14.5-10.3,18.2l11.9,16.5c1.2,1.8,1.9,3.5,1.9,5.1Zm-38.6-30.2h11.3c6.2,0,10-3.7,10-9.5s-3.9-9.4-10-9.4h-11.3v18.9Z"/><path class="cls-2" d="M713.82,97.28c-1.6-1.6-2.5-3.3-2.5-5.2,.1-3.6,3-6,6.2-6,1.2,0,2.5,.4,3.5,1.3,2.7,2.8,7.4,6.8,14.1,6.8,5.9,0,9.4-2.8,9.4-7.3,0-3.8-2.3-5.4-8.4-8.2l-7.1-3.2c-10.5-4.8-16-10.5-16-19,0-11.1,9.4-18.7,21.9-18.7,9.9,0,15.7,4.6,18.5,7.8,1.4,1.5,1.8,3,1.8,4.3,0,3.4-3.1,6-6.2,6-1.2,0-2.5-.4-3.7-1.4-2.7-2.4-5.7-4.7-10.4-4.7s-8.2,2.3-8.2,6.4c0,3.3,1.8,4.9,7.7,7.6l7.5,3.3c11,4.9,16.3,10.3,16.3,19.3,0,12.2-9.9,19.8-23.1,19.8-7.8,0-16.4-3.5-21.3-8.9Z"/></svg>