<?xml version="1.0" encoding="UTF-8"?><svg id="Camada_1" xmlns="http://www.w3.org/2000/svg" viewBox="0 0 721.82 143.87"><defs><style>.cls-1{fill:#fff;}.cls-2{fill:#95b71d;}.cls-3{isolation:isolate;}</style></defs><path class="cls-1" d="M65.57,44.68v54.7c0,3.8-2.8,6.8-6.6,6.8-3.3,0-4.9-1.9-6.7-4.1l-29.4-37.8v35c0,3.9-2.9,6.9-6.7,6.9s-6.8-3-6.8-6.9V44.58c0-3.8,2.9-6.8,6.6-6.8,3.4,0,4.9,1.9,6.9,4.4l29.3,37.5-.1-35c0-3.9,2.9-6.9,6.8-6.9s6.7,3,6.7,6.9Z"/><g class="cls-3"><path class="cls-2" d="M151.63,3.5c-9.16-.04-16.63,7.36-16.67,16.53v.16c0,4.02,1.48,7.91,4.16,10.92l-9.27,11.35c-5.24-2.98-11.38-4.68-17.99-4.68-7.59,0-14.55,2.25-20.23,6.12l-20.98-19.3c1.34-2.43,2.04-5.16,2.05-7.93v-.07C72.7,7.47,65.32,.04,56.18,0c-9.17-.04-16.63,7.36-16.67,16.52h0c-.04,9.17,7.36,16.63,16.52,16.67,3.91,.02,7.71-1.34,10.7-3.85l20.12,18.5c-6.21,6.14-9.99,14.62-9.99,24.14,0,8.24,2.81,15.7,7.59,21.54l-16.34,19.62c-2.59-1.6-5.57-2.45-8.62-2.46h-.07c-9.13,0-16.55,7.38-16.59,16.52-.04,9.17,7.35,16.63,16.52,16.67,9.16,.04,16.62-7.36,16.67-16.52,.02-3.64-1.16-7.18-3.36-10.08l16.32-19.17c6.09,5.06,14.04,8.08,22.88,8.08,19.71,0,35.21-15.1,35.21-34.2,0-9.84-4.12-18.62-10.8-24.82l9.37-11.4c1.85,.75,3.85,1.07,5.85,.93,9.16,.04,16.62-7.35,16.66-16.52v-.07c0-9.14-7.37-16.56-16.52-16.6Zm-39.67,90.18c-12.4,0-21.2-9-21.2-21.7s8.8-21.7,21.2-21.7,21.21,9.1,21.21,21.7-8.9,21.7-21.21,21.7Z"/></g><path class="cls-1" d="M173.36,99.28V51.18h-15.7c-3.5,0-6.2-2.7-6.2-6.1s2.7-6.1,6.2-6.1h44.9c3.6,0,6.2,2.6,6.2,6.1s-2.7,6.1-6.2,6.1h-15.7v48.1c0,3.9-2.9,6.9-6.8,6.9s-6.7-3-6.7-6.9Z"/><path class="cls-1" d="M268.97,99.98c0,3.4-2.9,6.2-6.3,6.2-2.4,0-4.4-1.2-6-3.5l-14.8-21h-11.5v17.6c0,3.9-2.9,6.9-6.7,6.9s-6.8-3-6.8-6.9V45.78c0-3.9,2.9-6.8,6.9-6.8h18c14.1,0,23.7,8.6,23.7,21.2,0,8-3.9,14.5-10.3,18.2l11.9,16.5c1.2,1.8,1.9,3.5,1.9,5.1Zm-38.6-30.2h11.3c6.2,0,10-3.7,10-9.5s-3.9-9.4-10-9.4h-11.3v18.9Z"/><path class="cls-1" d="M280.86,98.28V45.68c0-3.8,2.9-6.7,6.7-6.7h32.3c3.6,0,6.2,2.6,6.2,6.1s-2.7,6.1-6.2,6.1h-25.5v13.4h17.5c3.4,0,5.9,2.5,5.9,5.8s-2.5,5.7-5.9,5.7h-17.5v16.7h26.7c3.6,0,6.2,2.7,6.2,6.1s-2.7,6.1-6.2,6.1h-33.5c-3.8,0-6.7-2.9-6.7-6.7Z"/><path class="cls-1" d="M366.06,99.28V44.68c0-3.9,2.8-6.9,6.8-6.9s6.7,3,6.7,6.9v54.6c0,3.9-2.8,6.9-6.7,6.9s-6.8-3-6.8-6.9Z"/><path class="cls-1" d="M459.16,44.78v54.5c0,3.9-2.9,6.9-6.7,6.9s-6.8-3-6.8-6.9v-32.6l-12.4,19.5c-1.9,3-3.7,4.3-6.4,4.3s-4.5-1.3-6.4-4.3l-12.4-19.7v32.8c0,3.9-2.9,6.9-6.7,6.9s-6.8-3-6.8-6.9V44.78c0-4,2.8-7,6.6-7,2.9,0,4.8,1.4,7.1,5.2l18.6,29.5,18.6-29.5c2.4-3.8,4.2-5.2,7.1-5.2,3.8,0,6.6,3,6.6,7Z"/><path class="cls-1" d="M474.16,99.28V45.88c0-4,2.9-6.9,6.9-6.9h18c14.1,0,23.7,8.6,23.7,21.3s-9.8,21.4-23.7,21.4h-11.4v17.6c0,3.9-2.9,6.9-6.7,6.9s-6.8-3-6.8-6.9Zm24.8-29.4c6.2,0,10-3.7,10-9.6s-3.8-9.4-10-9.4h-11.3v19h11.3Z"/><path class="cls-1" d="M580.76,99.68c0,3.6-2.8,6.5-6.6,6.5-2.9,0-5.1-1.7-6.4-4.8l-2.8-6.8h-27.9l-2.8,6.8c-1.2,3.1-3.4,4.8-6.3,4.8-3.8,0-6.7-2.9-6.7-6.5,0-1,.3-2.2,.8-3.6l22.6-53.7c1.2-3,3.4-4.6,6.4-4.6s5.2,1.6,6.4,4.6l22.5,53.7c.6,1.4,.8,2.6,.8,3.6Zm-39.3-16.2h19l-9.4-25.8-9.6,25.8Z"/><path class="cls-1" d="M586.36,71.98c0-19.2,15.4-34.2,35.2-34.2,10.1,0,19.6,4.3,25.5,11.4,1.4,1.6,2.1,3.2,2.1,5,0,3.3-2.8,6.1-6.3,6.1-1.9,0-3.7-.9-5.2-2.6-4.3-5-9.7-7.4-16.1-7.4-12.4,0-21.3,9.1-21.3,21.8s8.9,21.6,21.3,21.6c6.3,0,11.6-2.4,16-7.4,1.6-1.7,3.3-2.6,5.3-2.6,3.5,0,6.2,2.8,6.2,6.1,0,1.6-.6,3.2-2.1,5-5.8,7.1-15.3,11.4-25.5,11.4-19.8,0-35.1-15-35.1-34.2Z"/><path class="cls-1" d="M677.06,99.28V51.18h-15.7c-3.5,0-6.2-2.7-6.2-6.1s2.7-6.1,6.2-6.1h44.9c3.6,0,6.2,2.6,6.2,6.1s-2.7,6.1-6.2,6.1h-15.7v48.1c0,3.9-2.9,6.9-6.8,6.9s-6.7-3-6.7-6.9Z"/></svg>