<?xml version="1.0" encoding="UTF-8"?><svg id="Camada_1" xmlns="http://www.w3.org/2000/svg" viewBox="0 0 910.2 143.87"><defs><style>.cls-1{fill:#fff;}.cls-2{fill:#95b71d;}.cls-3{isolation:isolate;}</style></defs><g class="cls-3"><path class="cls-1" d="M62.36,44.68v54.7c0,3.8-2.8,6.8-6.6,6.8-3.3,0-4.9-1.9-6.7-4.1l-29.4-37.8v35c0,3.9-2.9,6.9-6.7,6.9s-6.8-3-6.8-6.9V44.58c0-3.8,2.9-6.8,6.6-6.8,3.4,0,4.9,1.9,6.9,4.4l29.3,37.5-.1-35c0-3.9,2.9-6.9,6.8-6.9s6.7,3,6.7,6.9Z"/></g><g class="cls-3"><path class="cls-2" d="M148.43,3.51c-9.17-.04-16.63,7.36-16.67,16.52v.2c0,4.01,1.48,7.89,4.16,10.88l-9.27,11.35c-5.24-2.98-11.38-4.68-17.99-4.68-7.59,0-14.55,2.25-20.23,6.12l-20.99-19.3c1.34-2.43,2.05-5.15,2.06-7.93v-.06C69.5,7.48,62.12,.05,52.97,0h-.07C43.77,0,36.35,7.38,36.31,16.53c-.04,9.17,7.36,16.63,16.52,16.67,3.91,.02,7.7-1.35,10.7-3.86l20.12,18.5c-6.21,6.14-9.99,14.62-9.99,24.14,0,8.24,2.81,15.7,7.59,21.54l-16.34,19.62c-2.59-1.6-5.58-2.45-8.62-2.45h-.07c-9.14,0-16.56,7.37-16.6,16.52-.04,9.16,7.36,16.62,16.52,16.66,9.17,.04,16.63-7.35,16.67-16.52,.02-3.64-1.16-7.18-3.36-10.07l16.33-19.18c6.09,5.06,14.04,8.08,22.88,8.08,19.7,0,35.2-15.1,35.2-34.2,0-9.84-4.12-18.62-10.8-24.82l9.37-11.39c1.86,.74,3.86,1.06,5.85,.93,9.17,.04,16.63-7.36,16.67-16.52h0c.04-9.17-7.36-16.63-16.52-16.67Zm-39.67,90.17c-12.4,0-21.2-9-21.2-21.7s8.8-21.7,21.2-21.7,21.2,9.1,21.2,21.7-8.9,21.7-21.2,21.7Z"/></g><path class="cls-1" d="M154.85,97.28c-1.6-1.6-2.5-3.3-2.5-5.2,.1-3.6,3-6,6.2-6,1.2,0,2.5,.4,3.5,1.3,2.7,2.8,7.4,6.8,14.1,6.8,5.9,0,9.4-2.8,9.4-7.3,0-3.8-2.3-5.4-8.4-8.2l-7.1-3.2c-10.5-4.8-16-10.5-16-19,0-11.1,9.4-18.7,21.9-18.7,9.9,0,15.7,4.6,18.5,7.8,1.4,1.5,1.8,3,1.8,4.3,0,3.4-3.1,6-6.2,6-1.2,0-2.5-.4-3.7-1.4-2.7-2.4-5.7-4.7-10.4-4.7s-8.2,2.3-8.2,6.4c0,3.3,1.8,4.9,7.7,7.6l7.5,3.3c11,4.9,16.3,10.3,16.3,19.3,0,12.2-9.9,19.8-23.1,19.8-7.8,0-16.4-3.5-21.3-8.9Z"/><path class="cls-1" d="M239.05,99.28V45.88c0-4,2.9-6.9,6.9-6.9h18c14.1,0,23.7,8.6,23.7,21.3s-9.8,21.4-23.7,21.4h-11.4v17.6c0,3.9-2.9,6.9-6.7,6.9s-6.8-3-6.8-6.9Zm24.8-29.4c6.2,0,10-3.7,10-9.6s-3.8-9.4-10-9.4h-11.3v19h11.3Z"/><path class="cls-1" d="M350.45,99.98c0,3.4-2.9,6.2-6.3,6.2-2.4,0-4.4-1.2-6-3.5l-14.8-21h-11.5v17.6c0,3.9-2.9,6.9-6.7,6.9s-6.8-3-6.8-6.9V45.78c0-3.9,2.9-6.8,6.9-6.8h18c14.1,0,23.7,8.6,23.7,21.2,0,8-3.9,14.5-10.3,18.2l11.9,16.5c1.2,1.8,1.9,3.5,1.9,5.1Zm-38.6-30.2h11.3c6.2,0,10-3.7,10-9.5s-3.9-9.4-10-9.4h-11.3v18.9Z"/><path class="cls-1" d="M427.36,71.98c0,19.1-15.5,34.2-35.2,34.2s-35-15-35-34.2,15.4-34.2,35-34.2,35.2,15.1,35.2,34.2Zm-56.3,0c0,12.7,8.8,21.7,21.2,21.7s21.2-9.1,21.2-21.7-8.9-21.7-21.2-21.7-21.2,9-21.2,21.7Z"/><path class="cls-1" d="M434.95,71.98c0-19.3,15.4-34.2,35.3-34.2,9,0,18,3.6,23.4,9.3,2.9,2.7,4.1,4.8,4.1,7.1,0,3.3-2.8,6.1-6.2,6.1-2.1,0-3.7-.8-5.7-3-4.5-4.8-9.4-7-15.8-7-12.5,0-21.2,8.8-21.2,21.7s9,22.1,22,22.1c7.3,0,13.6-2.9,17.4-7.9v-5.7h-12.6c-3.6,0-6.3-2.5-6.3-5.8s2.7-5.9,6.3-5.9h19.2c4,0,6.9,2.9,6.9,6.9v8.5c0,3-.6,5.2-2.1,7.5-6,8.8-17.7,14.5-29.4,14.5-19.9,0-35.3-14.9-35.3-34.2Z"/><path class="cls-1" d="M565.45,99.98c0,3.4-2.9,6.2-6.3,6.2-2.4,0-4.4-1.2-6-3.5l-14.8-21h-11.5v17.6c0,3.9-2.9,6.9-6.7,6.9s-6.8-3-6.8-6.9V45.78c0-3.9,2.9-6.8,6.9-6.8h18c14.1,0,23.7,8.6,23.7,21.2,0,8-3.9,14.5-10.3,18.2l11.9,16.5c1.2,1.8,1.9,3.5,1.9,5.1Zm-38.6-30.2h11.3c6.2,0,10-3.7,10-9.5s-3.9-9.4-10-9.4h-11.3v18.9Z"/><path class="cls-1" d="M632.65,99.68c0,3.6-2.8,6.5-6.6,6.5-2.9,0-5.1-1.7-6.4-4.8l-2.8-6.8h-27.9l-2.8,6.8c-1.2,3.1-3.4,4.8-6.3,4.8-3.8,0-6.7-2.9-6.7-6.5,0-1,.3-2.2,.8-3.6l22.6-53.7c1.2-3,3.4-4.6,6.4-4.6s5.2,1.6,6.4,4.6l22.5,53.7c.6,1.4,.8,2.6,.8,3.6Zm-39.3-16.2h19l-9.4-25.8-9.6,25.8Z"/><path class="cls-1" d="M708.15,44.78v54.5c0,3.9-2.9,6.9-6.7,6.9s-6.8-3-6.8-6.9v-32.6l-12.4,19.5c-1.9,3-3.7,4.3-6.4,4.3s-4.5-1.3-6.4-4.3l-12.4-19.7v32.8c0,3.9-2.9,6.9-6.7,6.9s-6.8-3-6.8-6.9V44.78c0-4,2.8-7,6.6-7,2.9,0,4.8,1.4,7.1,5.2l18.6,29.5,18.6-29.5c2.4-3.8,4.2-5.2,7.1-5.2,3.8,0,6.6,3,6.6,7Z"/><path class="cls-1" d="M787.75,44.78v54.5c0,3.9-2.9,6.9-6.7,6.9s-6.8-3-6.8-6.9v-32.6l-12.4,19.5c-1.9,3-3.7,4.3-6.4,4.3s-4.5-1.3-6.4-4.3l-12.4-19.7v32.8c0,3.9-2.9,6.9-6.7,6.9s-6.8-3-6.8-6.9V44.78c0-4,2.8-7,6.6-7,2.9,0,4.8,1.4,7.1,5.2l18.6,29.5,18.6-29.5c2.4-3.8,4.2-5.2,7.1-5.2,3.8,0,6.6,3,6.6,7Z"/><path class="cls-1" d="M802.75,98.28V45.68c0-3.8,2.9-6.7,6.7-6.7h32.3c3.6,0,6.2,2.6,6.2,6.1s-2.7,6.1-6.2,6.1h-25.5v13.4h17.5c3.4,0,5.9,2.5,5.9,5.8s-2.5,5.7-5.9,5.7h-17.5v16.7h26.7c3.6,0,6.2,2.7,6.2,6.1s-2.7,6.1-6.2,6.1h-33.5c-3.8,0-6.7-2.9-6.7-6.7Z"/><path class="cls-1" d="M859.65,97.28c-1.6-1.6-2.5-3.3-2.5-5.2,.1-3.6,3-6,6.2-6,1.2,0,2.5,.4,3.5,1.3,2.7,2.8,7.4,6.8,14.1,6.8,5.9,0,9.4-2.8,9.4-7.3,0-3.8-2.3-5.4-8.4-8.2l-7.1-3.2c-10.5-4.8-16-10.5-16-19,0-11.1,9.4-18.7,21.9-18.7,9.9,0,15.7,4.6,18.5,7.8,1.4,1.5,1.8,3,1.8,4.3,0,3.4-3.1,6-6.2,6-1.2,0-2.5-.4-3.7-1.4-2.7-2.4-5.7-4.7-10.4-4.7s-8.2,2.3-8.2,6.4c0,3.3,1.8,4.9,7.7,7.6l7.5,3.3c11,4.9,16.3,10.3,16.3,19.3,0,12.2-9.9,19.8-23.1,19.8-7.8,0-16.4-3.5-21.3-8.9Z"/></svg>