<?xml version="1.0" encoding="UTF-8"?><svg id="Camada_1" xmlns="http://www.w3.org/2000/svg" viewBox="0 0 640.49 143.87"><defs><style>.cls-1{fill:#fff;}.cls-2{fill:#95b71d;}.cls-3{isolation:isolate;}</style></defs><g class="cls-3"><path class="cls-2" d="M115.06,3.51c-9.17-.04-16.63,7.35-16.67,16.52v.2c0,4.01,1.48,7.88,4.16,10.88l-9.28,11.35c-5.24-2.98-11.37-4.68-17.98-4.68-7.59,0-14.55,2.25-20.23,6.12l-20.99-19.3c1.34-2.43,2.05-5.15,2.06-7.93v-.06C36.13,7.48,28.75,.05,19.6,0h-.06C10.41,0,2.98,7.38,2.94,16.53c-.04,9.16,7.35,16.63,16.52,16.66,3.91,.03,7.7-1.34,10.7-3.85l20.12,18.5c-6.21,6.14-9.99,14.62-9.99,24.14,0,8.24,2.82,15.7,7.59,21.54l-16.34,19.62c-2.59-1.6-5.58-2.45-8.62-2.46h-.07c-9.14,0-16.56,7.38-16.6,16.53-.04,9.16,7.36,16.62,16.52,16.66,9.17,.04,16.63-7.36,16.67-16.52,.02-3.64-1.16-7.18-3.36-10.08l16.33-19.17c6.09,5.06,14.04,8.08,22.88,8.08,19.7,0,35.2-15.1,35.2-34.2,0-9.84-4.12-18.62-10.8-24.82l9.37-11.39c1.86,.74,3.86,1.06,5.85,.92,9.17,.05,16.63-7.35,16.67-16.51h0c.04-9.17-7.36-16.63-16.52-16.67Zm-39.67,90.17c-12.4,0-21.2-9-21.2-21.7s8.8-21.7,21.2-21.7,21.2,9.1,21.2,21.7-8.9,21.7-21.2,21.7Z"/></g><path class="cls-1" d="M121.28,77.68V44.68c0-3.9,2.9-6.9,6.8-6.9s6.7,3,6.7,6.9v34c0,9.2,5.6,15,14.5,15s14.5-5.8,14.5-15V44.68c0-3.9,2.9-6.9,6.8-6.9s6.7,3,6.7,6.9v33c0,17-11.3,28.5-28,28.5s-28-11.5-28-28.5Z"/><path class="cls-1" d="M243.89,99.98c0,3.4-2.9,6.2-6.3,6.2-2.4,0-4.4-1.2-6-3.5l-14.8-21h-11.5v17.6c0,3.9-2.9,6.9-6.7,6.9s-6.8-3-6.8-6.9V45.78c0-3.9,2.9-6.8,6.9-6.8h18c14.1,0,23.7,8.6,23.7,21.2,0,8-3.9,14.5-10.3,18.2l11.9,16.5c1.2,1.8,1.9,3.5,1.9,5.1Zm-38.6-30.2h11.3c6.2,0,10-3.7,10-9.5s-3.9-9.4-10-9.4h-11.3v18.9Z"/><path class="cls-1" d="M283.78,99.28V44.68c0-3.9,2.8-6.9,6.8-6.9s6.7,3,6.7,6.9v54.6c0,3.9-2.8,6.9-6.7,6.9s-6.8-3-6.8-6.9Z"/><path class="cls-1" d="M376.89,44.78v54.5c0,3.9-2.9,6.9-6.7,6.9s-6.8-3-6.8-6.9v-32.6l-12.4,19.5c-1.9,3-3.7,4.3-6.4,4.3s-4.5-1.3-6.4-4.3l-12.4-19.7v32.8c0,3.9-2.9,6.9-6.7,6.9s-6.8-3-6.8-6.9V44.78c0-4,2.8-7,6.6-7,2.9,0,4.8,1.4,7.1,5.2l18.6,29.5,18.6-29.5c2.4-3.8,4.2-5.2,7.1-5.2,3.8,0,6.6,3,6.6,7Z"/><path class="cls-1" d="M391.88,99.28V45.88c0-4,2.9-6.9,6.9-6.9h18c14.1,0,23.7,8.6,23.7,21.3s-9.8,21.4-23.7,21.4h-11.4v17.6c0,3.9-2.9,6.9-6.7,6.9s-6.8-3-6.8-6.9Zm24.8-29.4c6.2,0,10-3.7,10-9.6s-3.8-9.4-10-9.4h-11.3v19h11.3Z"/><path class="cls-1" d="M498.49,99.68c0,3.6-2.8,6.5-6.6,6.5-2.9,0-5.1-1.7-6.4-4.8l-2.8-6.8h-27.9l-2.8,6.8c-1.2,3.1-3.4,4.8-6.3,4.8-3.8,0-6.7-2.9-6.7-6.5,0-1,.3-2.2,.8-3.6l22.6-53.7c1.2-3,3.4-4.6,6.4-4.6s5.2,1.6,6.4,4.6l22.5,53.7c.6,1.4,.8,2.6,.8,3.6Zm-39.3-16.2h19l-9.4-25.8-9.6,25.8Z"/><path class="cls-1" d="M504.08,71.98c0-19.2,15.4-34.2,35.2-34.2,10.1,0,19.6,4.3,25.5,11.4,1.4,1.6,2.1,3.2,2.1,5,0,3.3-2.8,6.1-6.3,6.1-1.9,0-3.7-.9-5.2-2.6-4.3-5-9.7-7.4-16.1-7.4-12.4,0-21.3,9.1-21.3,21.8s8.9,21.6,21.3,21.6c6.3,0,11.6-2.4,16-7.4,1.6-1.7,3.3-2.6,5.3-2.6,3.5,0,6.2,2.8,6.2,6.1,0,1.6-.6,3.2-2.1,5-5.8,7.1-15.3,11.4-25.5,11.4-19.8,0-35.1-15-35.1-34.2Z"/><path class="cls-1" d="M594.78,99.28V51.18h-15.7c-3.5,0-6.2-2.7-6.2-6.1s2.7-6.1,6.2-6.1h44.9c3.6,0,6.2,2.6,6.2,6.1s-2.7,6.1-6.2,6.1h-15.7v48.1c0,3.9-2.9,6.9-6.8,6.9s-6.7-3-6.7-6.9Z"/></svg>