<svg xmlns="http://www.w3.org/2000/svg" width="824.097" height="127.922" viewBox="0 0 824.097 127.922"><g transform="translate(-6.859 -29.758)"><path d="M217.485,94.178A32.972,32.972,0,0,0,202.346,69.8a37.708,37.708,0,0,0-20.1-5.651c-.962-.031-1.063.106-1.072,1.162q-.036,4.435-.043,8.873c0,1.446.019,1.48,1.53,1.492a25.008,25.008,0,0,1,5.887.762,20.226,20.226,0,0,1,15.534,14.8,31.6,31.6,0,0,1-.3,18.92,18.927,18.927,0,0,1-10.8,12.112,30.079,30.079,0,0,1-15.58,2.275,7.847,7.847,0,0,1-7.169-6.005,15.457,15.457,0,0,1-.4-4.323q.17-41.136.352-82.27a5.331,5.331,0,0,0-.169-2.188.82.82,0,0,0-.706.284c-3.518,2.781-7.013,5.6-10.57,8.326a3.094,3.094,0,0,0-1.284,2.779q-.1,35.573-.282,71.141a54.473,54.473,0,0,0,.258,6.9,19.609,19.609,0,0,0,4.123,10.3,17.78,17.78,0,0,0,11.15,6.095,45.746,45.746,0,0,0,19.785-.88,32.128,32.128,0,0,0,23.592-22.262,40.828,40.828,0,0,0,1.407-18.272" transform="translate(211.902 0)" fill="#fff"/><path d="M96,93.341a19.183,19.183,0,0,1-12.481,10.076,21.077,21.077,0,0,1-16.99-1.788A20.691,20.691,0,0,1,56.188,87.215a35.261,35.261,0,0,1,.294-15.5A21.623,21.623,0,0,1,95.418,65.4a23.025,23.025,0,0,1,3.169,9.377,35.612,35.612,0,0,1,.376,5.639A27.068,27.068,0,0,1,96,93.343M100,52.409c-6.391-5.55-13.917-8.027-23.282-8.073a29.7,29.7,0,0,0-8.049.889,31.675,31.675,0,0,0-23.949,21.98,42.2,42.2,0,0,0-1.651,16.915,35.278,35.278,0,0,0,8.21,20.366A30.138,30.138,0,0,0,70.734,115.3a44.619,44.619,0,0,0,12.9-.072,29.71,29.71,0,0,0,16.452-7.687c7.772-7.256,11.218-16.4,11.483-26.882a44.575,44.575,0,0,0-.742-8.731A32.333,32.333,0,0,0,100,52.416" transform="translate(50.724 20.538)" fill="#fff"/><path d="M187.286,112.6q.054-12.3.108-24.588.043-10.58.092-21.163a35.73,35.73,0,0,0-.817-8.128A16.525,16.525,0,0,0,175.675,46.05a30.209,30.209,0,0,0-9.182-1.692,53.534,53.534,0,0,0-11.119.745A32.984,32.984,0,0,0,127.28,72.63a45.949,45.949,0,0,0-.4,11.572,33.345,33.345,0,0,0,4.543,14.813c7.08,11.563,17.818,16.442,31.015,16.727.771.017,1.053-.284,1.048-1.048-.012-3.08.027-6.16.027-9.239,0-.986-.034-.945-1.106-1.087-1.721-.227-3.463-.193-5.176-.542-8.48-1.725-14.312-6.562-16.724-14.917a31.554,31.554,0,0,1,.229-18.505,19.029,19.029,0,0,1,9.7-11.736,29.4,29.4,0,0,1,16.946-2.718,7.876,7.876,0,0,1,7.162,6.911,19.379,19.379,0,0,1,.243,4.005q-.087,22.578-.19,45.156c0,.347-.012.7,0,1.043.022,1.33.135,1.463,1.431,1.475,2.188.022,4.374.022,6.562.029,1.241,0,2.485,0,3.726.022.672.012,1.039-.219.978-.947-.029-.347,0-.7,0-1.043" transform="translate(168.945 20.53)" fill="#fff"/><path d="M133.237,72.1a32.125,32.125,0,0,0-19.891-24.626,36.188,36.188,0,0,0-21.93-1.788A16.564,16.564,0,0,0,78,57.785a27.97,27.97,0,0,0-1.056,8.09c-.014,7.6-.06,15.2-.094,22.8q-.054,12.449-.106,24.887c0,1.309.01,1.325,1.289,1.333q4.768.033,9.538.043c1.889,0,1.735.157,1.745-1.788q.1-23.171.2-46.344a25.545,25.545,0,0,1,.219-3.268,7.76,7.76,0,0,1,6.523-6.984,18.861,18.861,0,0,1,7.249.041c9.025,1.711,14.611,7.092,16.973,15.905a34.178,34.178,0,0,1,.8,9.167q-.1,15.869-.169,31.74c0,1.66.029,1.682,1.641,1.692q4.62.018,9.239.034c1.851,0,1.7.169,1.713-1.653.051-11.271.082-22.551.166-33.827a37.416,37.416,0,0,0-.617-7.55" transform="translate(98.53 21.136)" fill="#fff"/><path d="M128.766,30.3a2.582,2.582,0,0,0-1.084.7c-3.292,2.588-6.545,5.225-9.883,7.75a3.566,3.566,0,0,0-1.562,3.167c.036,5.364,0,10.729-.019,16.1q-.155,37.681-.325,75.359c-.007,2.1,0,2.1,2.005,2.113q4.323.022,8.644.039c1.964.007,1.966.007,1.976-2q.221-50.846.434-101.694a2.628,2.628,0,0,0-.186-1.53" transform="translate(153.721 0.755)" fill="#fff"/><g transform="translate(243.533 39.486)"><path d="M116.776,45.389q-4.392-.018-8.784-.039c-2.019-.01-2.019-.012-2.029,2.056l-.137,40.372c-.034,8.095-.1,16.187-.147,24.282,0,.347-.017.7,0,1.043.055.971.178,1.109,1.145,1.14.993.031,1.986.017,2.979.022,2.485.01,4.967.034,7.449.024,1.065,0,1.07-.034,1.111-1.087.014-.347,0-.7,0-1.041q.072-16.165.142-32.328.069-16.238.137-32.478c0-2.06.294-1.954-1.87-1.964" transform="translate(-104.222 -17.505)" fill="#fff"/><path d="M113.252,33.795a8.3,8.3,0,1,0,8.128,8.466,8.3,8.3,0,0,0-8.128-8.466" transform="translate(-105.07 -33.795)" fill="#fff"/></g><g transform="translate(6.859 31.35)"><path d="M71.488,31.446c0-.335.1-.7-.3-1.027a4.945,4.945,0,0,0-1.275.894c-3.287,2.593-6.543,5.227-9.866,7.769A3.283,3.283,0,0,0,58.638,42c.017,7.169-.043,14.339-.075,21.508h0s-.253,32.42-.347,39.435a25.679,25.679,0,0,1-2.641,11.44,15.393,15.393,0,0,1-11.1,8.675,59.37,59.37,0,0,1-7.2,1.063A17.964,17.964,0,0,1,22.237,118c-.065-.07-1.615-1.5-1.682-1.566-.106.125-5.061,4.745-7.027,7.015-.258.3,1.8,2.33,2.056,2.658a8.046,8.046,0,0,1,1.61,4.417.079.079,0,0,1-.01.046,24.533,24.533,0,0,0,6.095,2.993A39.177,39.177,0,0,0,33.388,135.2a73.956,73.956,0,0,0,10.562-.243,24.247,24.247,0,0,0,8.119-1.709,28.679,28.679,0,0,0,8.49-6.013A33.614,33.614,0,0,0,71.03,102.71c-.051-14.331.431-61.851.455-71.276" transform="translate(2.512 -30.419)" fill="#fff"/><path d="M22,70.966a42.356,42.356,0,0,1,1.624-8.594,19.061,19.061,0,0,1,2.234-4.839c.055-.08.159-.248.217-.328,0,0,1.176-1.766,1.152-1.8l-7.548-5.584c-.287-.265-1.424.451-1.73.672a10.842,10.842,0,0,1-3.583,1.764h0c-.246.484-.475.981-.74,1.453A33.573,33.573,0,0,0,10.47,61.7a52.646,52.646,0,0,0-1.345,8.945A33.878,33.878,0,0,0,11.764,87.2a63.259,63.259,0,0,0,4.246,7.485h0a12.612,12.612,0,0,1,1.935.588c1.489.643,1.892.969,3.251-.66,2.044-2.453,5.087-6.974,5.087-6.974a25.288,25.288,0,0,1-4.292-16.676" transform="translate(-3.864 -3.145)" fill="#fff"/><path d="M13.633,57.461c1.583,1.345,6.263,5.133,6.263,5.133-.01-.041,1.01.325,1.01.287.014.034.7-.636.716-.6a28.933,28.933,0,0,1,4.986-3.87,17.79,17.79,0,0,1,10.307-2.841,52.824,52.824,0,0,1,5.487.393c.706.1,1.01-.186,1.01-.889q0-4.761.024-9.526a.841.841,0,0,0-.687-.971.832.832,0,0,0-.154-.012c-.937-.094-1.87-.231-2.805-.337a29.426,29.426,0,0,0-22.089,6c-.781.612-1.588,1.178-2.383,1.776a20.23,20.23,0,0,1-.909,2.82c-.335.583-1.28,2.188-.764,2.629" transform="translate(2.496 -11.329)" fill="#fff"/><path d="M67.448,45.461a8.962,8.962,0,0,0-9,8.924h0a8.83,8.83,0,0,0,2.246,5.984l-5.174,5.96a20.338,20.338,0,0,0-9.061-2.309,18.187,18.187,0,0,0-11.011,3.629L23.707,56.85a8.985,8.985,0,1,0-2.113,2.559L32.972,69.877A18.266,18.266,0,0,0,31.8,93.311l-9.466,11.365a8.977,8.977,0,1,0,2.456,2.234l9.42-11.066a17.761,17.761,0,0,0,12.09,4.726A18.275,18.275,0,0,0,64.655,82.377v0A19.579,19.579,0,0,0,59.037,68.8l5.174-5.911a7.156,7.156,0,0,0,3.159.506,8.962,8.962,0,1,0,.077-17.925" transform="translate(-6.859 -11.935)" fill="#8fa90e"/></g><circle cx="8.971" cy="8.971" r="8.971" transform="translate(444.216 88.868)" fill="#fff"/><path d="M234.422,115.083H202.088a.213.213,0,0,1-.215-.212V44.636a.214.214,0,0,1,.215-.212h32.333a.214.214,0,0,1,.214.212v5.837a.214.214,0,0,1-.214.212H211.533a.214.214,0,0,0-.212.212V75.224a.214.214,0,0,0,.212.214h20.53a.213.213,0,0,1,.215.212v5.841a.213.213,0,0,1-.215.212h-20.53a.214.214,0,0,0-.212.214v26.687a.214.214,0,0,0,.212.212h22.889a.214.214,0,0,1,.214.212v5.841A.213.213,0,0,1,234.422,115.083Z" transform="translate(274.944 20.677)" fill="#fff"/><path d="M260.919,106.131h-9.355a.264.264,0,0,1-.231-.137l-11.84-22.356h-.2l-12.049,22.356a.26.26,0,0,1-.229.137h-8.729a.259.259,0,0,1-.222-.393L234.9,77.605a.262.262,0,0,0,0-.263L219.893,51.164a.261.261,0,0,1,.227-.39h8.844a.264.264,0,0,1,.231.137l10.712,20.1h.2l10.917-20.1a.258.258,0,0,1,.229-.135h7.914a.26.26,0,0,1,.224.393l-15.1,25.46a.261.261,0,0,0,0,.265l16.845,28.848A.259.259,0,0,1,260.919,106.131Z" transform="translate(297.713 29.629)" fill="#fff"/><path d="M298.073,77.643l-30.321,4.381a.337.337,0,0,0-.28.361q1.648,18.381,16.818,18.378a27.317,27.317,0,0,0,13.358-3.015.3.3,0,0,1,.431.154l2.13,5.369a.333.333,0,0,1-.135.41q-6.232,3.655-16.5,3.653-11.3,0-17.77-7.087-6.879-7.493-6.878-21.775,0-13.758,6.261-21.361,5.961-7.19,16.023-7.191,19.527,0,20.949,22.657A4.813,4.813,0,0,1,298.073,77.643Zm-4.714-4.367a.34.34,0,0,0,.277-.337q-.1-17.167-12.683-17.163a11.446,11.446,0,0,0-9.929,5.133q-3.814,5.447-3.783,15.941a.336.336,0,0,0,.376.333Z" transform="translate(355.378 28.425)" fill="#fff"/><path d="M303.863,50.756,301.9,57.048a.259.259,0,0,1-.323.169,18.109,18.109,0,0,0-5.155-.747,12.717,12.717,0,0,0-7.015,1.764.291.291,0,0,0-.128.241v47.951a.269.269,0,0,1-.27.267h-8.6a.269.269,0,0,1-.27-.267V57.479a4.812,4.812,0,0,1,3.171-4.535q7.837-2.827,20.286-2.542A.281.281,0,0,1,303.863,50.756Z" transform="translate(385.288 29.067)" fill="#fff"/><path d="M318.324,114.668a17.337,17.337,0,0,1-4.931.836q-6.977,0-10.676-4.432a14.762,14.762,0,0,1-3.082-9.594v-36.1a.309.309,0,0,0-.309-.308h-5.752a.312.312,0,0,1-.311-.311V59.839a.312.312,0,0,1,.311-.311h5.752a.309.309,0,0,0,.309-.308v-12.2a.308.308,0,0,1,.219-.3l8.521-2.588a.311.311,0,0,1,.4.3V59.22a.308.308,0,0,0,.309.308h8.931a.31.31,0,0,1,.308.311v4.923a.31.31,0,0,1-.308.311h-8.931a.308.308,0,0,0-.309.308v35.909q0,8.054,6.911,8.051a11.142,11.142,0,0,0,2.636-.513Z" transform="translate(403.791 20.256)" fill="#fff"/><path d="M317.063,47.236a4.6,4.6,0,0,1-1.537,3.492,5.214,5.214,0,0,1-3.7,1.441,5.335,5.335,0,0,1-3.8-1.441,4.581,4.581,0,0,1-1.542-3.492,4.749,4.749,0,0,1,1.542-3.54,5.263,5.263,0,0,1,3.8-1.489,5.146,5.146,0,0,1,3.7,1.489A4.771,4.771,0,0,1,317.063,47.236Zm-.884,70.973h-8.6a.269.269,0,0,1-.27-.27V63.122a.269.269,0,0,1,.27-.27h8.6a.272.272,0,0,1,.272.27v54.817A.272.272,0,0,1,316.179,118.209Z" transform="translate(422.429 17.551)" fill="#fff"/><path d="M346.583,91.049a14.968,14.968,0,0,1-5.029,11.3,19.234,19.234,0,0,1-13.563,4.926q-8.965,0-13.98-3.658a.3.3,0,0,1-.1-.359l2.383-5.735q3.922,3.286,10.83,3.285a10.4,10.4,0,0,0,7.427-2.721,8.992,8.992,0,0,0,2.889-6.83,9.221,9.221,0,0,0-2.166-6.475,17.577,17.577,0,0,0-7.018-4.1Q312.3,74.752,315.927,60.007a.513.513,0,0,1,.031-.084c3.14-6.622,8.425-9.96,15.838-9.96a22.673,22.673,0,0,1,12.729,3.663.3.3,0,0,1,.113.374l-2.265,5.208a15.034,15.034,0,0,0-9.242-3.082,9.062,9.062,0,0,0-6.781,2.518,8.548,8.548,0,0,0-2.463,6.217q0,6.467,9.244,9.96Q346.585,79.961,346.583,91.049Z" transform="translate(432.87 28.486)" fill="#fff"/><path d="M370.075,77.638,339.67,82.029a.292.292,0,0,0-.239.308q1.623,18.432,16.823,18.426a27.267,27.267,0,0,0,13.4-3.041.257.257,0,0,1,.369.133l2.159,5.458a.281.281,0,0,1-.116.347q-6.228,3.68-16.536,3.675-11.3,0-17.77-7.087-6.879-7.493-6.88-21.775,0-13.758,6.268-21.361,5.95-7.19,16.023-7.191,19.545,0,20.949,22.7A4.767,4.767,0,0,1,370.075,77.638Zm-4.716-4.369a.288.288,0,0,0,.236-.287q-.09-17.21-12.685-17.206a11.436,11.436,0,0,0-9.921,5.133q-3.832,5.466-3.788,16a.288.288,0,0,0,.32.284Z" transform="translate(456.825 28.425)" fill="#fff"/><g transform="translate(564.821 79.189)"><path d="M274.007,56.9c-4.369-5.938-10.654-6.634-18.373-6.634a38.115,38.115,0,0,0-14.3,2.439,4.851,4.851,0,0,0-2.94,4.478v71.575h8.921V106.14a25.681,25.681,0,0,0,8.62,1.335c7.319,0,13.2-2.605,17.577-7.851q6.564-7.819,6.548-21.52C280.058,69.551,278.608,63.156,274.007,56.9Zm-7.28,39.045c-2.841,4.075-7.051,6.114-12.563,6.114a17.858,17.858,0,0,1-6.75-1.236V57.488A19.514,19.514,0,0,1,255.3,55.95c10.492,0,15.739,7.552,15.739,22.723Q271.038,89.85,266.727,95.949Z" transform="translate(-238.392 -50.27)" fill="#fff"/></g></g></svg>