<?xml version="1.0" encoding="UTF-8"?><svg id="Camada_1" xmlns="http://www.w3.org/2000/svg" viewBox="0 0 482.57 143.87"><defs><style>.cls-1{fill:#fff;}.cls-2{fill:#95b71d;}.cls-3{isolation:isolate;}</style></defs><path class="cls-1" d="M63.69,99.69c0,3.6-2.8,6.5-6.6,6.5-2.9,0-5.1-1.7-6.4-4.8l-2.8-6.8H19.98l-2.8,6.8c-1.2,3.1-3.4,4.8-6.3,4.8-3.8,0-6.7-2.9-6.7-6.5,0-1,.3-2.2,.8-3.6L27.58,42.38c1.2-3,3.4-4.6,6.4-4.6s5.2,1.6,6.4,4.6l22.5,53.7c.6,1.4,.8,2.6,.8,3.6ZM21.08,21.48c-3.3-4.3-.2-10.6,5.1-10.7,1.9-.1,4.7,.6,6.2,3.5l5.2,10c1.7,3.3-.2,8.7-5.1,8.8-1.1,0-3.3-.4-5-2.6l-6.4-9Zm3.3,62h19l-9.4-25.8-9.6,25.8Z"/><path class="cls-1" d="M97.58,99.29V45.88c0-4,2.9-6.9,6.9-6.9h18c14.1,0,23.7,8.6,23.7,21.3s-9.8,21.4-23.7,21.4h-11.4v17.6c0,3.9-2.9,6.9-6.7,6.9s-6.8-3-6.8-6.9Zm24.8-29.4c6.2,0,10-3.7,10-9.6s-3.8-9.4-10-9.4h-11.3v19h11.3Z"/><path class="cls-1" d="M208.98,99.99c0,3.4-2.9,6.2-6.3,6.2-2.4,0-4.4-1.2-6-3.5l-14.8-21h-11.5v17.6c0,3.9-2.9,6.9-6.7,6.9s-6.8-3-6.8-6.9V45.78c0-3.9,2.9-6.8,6.9-6.8h18c14.1,0,23.7,8.6,23.7,21.2,0,8-3.9,14.5-10.3,18.2l11.9,16.5c1.2,1.8,1.9,3.5,1.9,5.1Zm-38.6-30.2h11.3c6.2,0,10-3.7,10-9.5s-3.9-9.4-10-9.4h-11.3v18.9Z"/><path class="cls-1" d="M297.18,99.29V45.88c0-4,2.9-6.9,6.9-6.9h18c14.1,0,23.7,8.6,23.7,21.3s-9.8,21.4-23.7,21.4h-11.4v17.6c0,3.9-2.9,6.9-6.7,6.9s-6.8-3-6.8-6.9Zm24.8-29.4c6.2,0,10-3.7,10-9.6s-3.8-9.4-10-9.4h-11.3v19h11.3Z"/><path class="cls-1" d="M422.98,71.98c0,19.1-15.5,34.2-35.2,34.2s-35-15-35-34.2,15.4-34.2,35-34.2,35.2,15.1,35.2,34.2Zm-56.3,0c0,12.7,8.8,21.7,21.2,21.7s21.2-9.1,21.2-21.7-8.9-21.7-21.2-21.7-21.2,9-21.2,21.7Z"/><path class="cls-1" d="M433.98,97.29c-1.6-1.6-2.5-3.3-2.5-5.2,.1-3.6,3-6,6.2-6,1.2,0,2.5,.4,3.5,1.3,2.7,2.8,7.4,6.8,14.1,6.8,5.9,0,9.4-2.8,9.4-7.3,0-3.8-2.3-5.4-8.4-8.2l-7.1-3.2c-10.5-4.8-16-10.5-16-19,0-11.1,9.4-18.7,21.9-18.7,9.9,0,15.7,4.6,18.5,7.8,1.4,1.5,1.8,3,1.8,4.3,0,3.4-3.1,6-6.2,6-1.2,0-2.5-.4-3.7-1.4-2.7-2.4-5.7-4.7-10.4-4.7s-8.2,2.3-8.2,6.4c0,3.3,1.8,4.9,7.7,7.6l7.5,3.3c11,4.9,16.3,10.3,16.3,19.3,0,12.2-9.9,19.8-23.1,19.8-7.8,0-16.4-3.5-21.3-8.9Z"/><g class="cls-3"><path class="cls-2" d="M290.33,3.5c-9.17-.04-16.63,7.36-16.67,16.52v.2c0,4.02,1.48,7.89,4.16,10.88l-9.26,11.35c-5.24-2.98-11.38-4.68-18-4.68-7.59,0-14.55,2.25-20.23,6.13l-20.99-19.31c1.34-2.42,2.05-5.15,2.06-7.92C211.43,7.5,204.04,.04,194.88,0h-.08C185.67,0,178.25,7.38,178.21,16.52c-.04,9.17,7.36,16.63,16.52,16.67,3.91,.02,7.7-1.34,10.7-3.86l20.12,18.51c-6.21,6.14-9.99,14.62-9.99,24.14,0,8.23,2.81,15.69,7.58,21.53l-16.33,19.62c-2.59-1.59-5.57-2.44-8.62-2.45h-.07c-9.14,0-16.56,7.38-16.6,16.52-.04,9.17,7.36,16.63,16.53,16.67,9.16,.03,16.62-7.36,16.66-16.53,.02-3.63-1.16-7.17-3.35-10.07l16.31-19.18c6.09,5.07,14.05,8.09,22.89,8.09,19.7,0,35.2-15.1,35.2-34.2,0-9.84-4.11-18.62-10.79-24.82l9.36-11.4c1.86,.75,3.86,1.07,5.85,.93,9.17,.04,16.63-7.36,16.67-16.52v-.07c0-9.14-7.38-16.56-16.52-16.6Zm-39.67,90.18c-12.4,0-21.2-9-21.2-21.7s8.8-21.7,21.2-21.7,21.2,9.1,21.2,21.7-8.9,21.7-21.2,21.7Z"/></g></svg>