<?xml version="1.0" encoding="UTF-8"?><svg id="Camada_1" xmlns="http://www.w3.org/2000/svg" viewBox="0 0 869.11 143.87"><defs><style>.cls-1{fill:#95b71d;}.cls-2{fill:#2755a1;}.cls-3{isolation:isolate;}</style></defs><g class="cls-3"><path class="cls-2" d="M62.53,44.68v54.7c0,3.8-2.8,6.8-6.6,6.8-3.3,0-4.9-1.9-6.7-4.1l-29.4-37.8v35c0,3.9-2.9,6.9-6.7,6.9s-6.8-3-6.8-6.9V44.58c0-3.8,2.9-6.8,6.6-6.8,3.4,0,4.9,1.9,6.9,4.4l29.3,37.5-.1-35c0-3.9,2.9-6.9,6.8-6.9s6.7,3,6.7,6.9Z"/></g><path class="cls-2" d="M155.02,97.28c-1.6-1.6-2.5-3.3-2.5-5.2,.1-3.6,3-6,6.2-6,1.2,0,2.5,.4,3.5,1.3,2.7,2.8,7.4,6.8,14.1,6.8,5.9,0,9.4-2.8,9.4-7.3,0-3.8-2.3-5.4-8.4-8.2l-7.1-3.2c-10.5-4.8-16-10.5-16-19,0-11.1,9.4-18.7,21.9-18.7,9.9,0,15.7,4.6,18.5,7.8,1.4,1.5,1.8,3,1.8,4.3,0,3.4-3.1,6-6.2,6-1.2,0-2.5-.4-3.7-1.4-2.7-2.4-5.7-4.7-10.4-4.7s-8.2,2.3-8.2,6.4c0,3.3,1.8,4.9,7.7,7.6l7.5,3.3c11,4.9,16.3,10.3,16.3,19.3,0,12.2-9.9,19.8-23.1,19.8-7.8,0-16.4-3.5-21.3-8.9Z"/><path class="cls-2" d="M239.22,99.28V45.88c0-4,2.9-6.9,6.9-6.9h18c14.1,0,23.7,8.6,23.7,21.3s-9.8,21.4-23.7,21.4h-11.4v17.6c0,3.9-2.9,6.9-6.7,6.9s-6.8-3-6.8-6.9Zm24.8-29.4c6.2,0,10-3.7,10-9.6s-3.8-9.4-10-9.4h-11.3v19h11.3Z"/><path class="cls-2" d="M345.83,99.68c0,3.6-2.8,6.5-6.6,6.5-2.9,0-5.1-1.7-6.4-4.8l-2.8-6.8h-27.9l-2.8,6.8c-1.2,3.1-3.4,4.8-6.3,4.8-3.8,0-6.7-2.9-6.7-6.5,0-1,.3-2.2,.8-3.6l22.6-53.7c1.2-3,3.4-4.6,6.4-4.6s5.2,1.6,6.4,4.6l22.5,53.7c.6,1.4,.8,2.6,.8,3.6Zm-39.3-16.2h19l-9.4-25.8-9.6,25.8Z"/><path class="cls-2" d="M408.83,99.98c0,3.4-2.9,6.2-6.3,6.2-2.4,0-4.4-1.2-6-3.5l-14.8-21h-11.5v17.6c0,3.9-2.9,6.9-6.7,6.9s-6.8-3-6.8-6.9V45.78c0-3.9,2.9-6.8,6.9-6.8h18c14.1,0,23.7,8.6,23.7,21.2,0,8-3.9,14.5-10.3,18.2l11.9,16.5c1.2,1.8,1.9,3.5,1.9,5.1Zm-38.6-30.2h11.3c6.2,0,10-3.7,10-9.5s-3.9-9.4-10-9.4h-11.3v18.9Z"/><path class="cls-2" d="M433.22,99.28V51.18h-15.7c-3.5,0-6.2-2.7-6.2-6.1s2.7-6.1,6.2-6.1h44.9c3.6,0,6.2,2.6,6.2,6.1s-2.7,6.1-6.2,6.1h-15.7v48.1c0,3.9-2.9,6.9-6.8,6.9s-6.7-3-6.7-6.9Z"/><path class="cls-2" d="M476.72,98.28V45.68c0-3.8,2.9-6.7,6.7-6.7h32.3c3.6,0,6.2,2.6,6.2,6.1s-2.7,6.1-6.2,6.1h-25.5v13.4h17.5c3.4,0,5.9,2.5,5.9,5.8s-2.5,5.7-5.9,5.7h-17.5v16.7h26.7c3.6,0,6.2,2.7,6.2,6.1s-2.7,6.1-6.2,6.1h-33.5c-3.8,0-6.7-2.9-6.7-6.7Z"/><path class="cls-2" d="M590.12,44.68v54.7c0,3.8-2.8,6.8-6.6,6.8-3.3,0-4.9-1.9-6.7-4.1l-29.4-37.8v35c0,3.9-2.9,6.9-6.7,6.9s-6.8-3-6.8-6.9V44.58c0-3.8,2.9-6.8,6.6-6.8,3.4,0,4.9,1.9,6.9,4.4l29.3,37.5-.1-35c0-3.9,2.9-6.9,6.8-6.9s6.7,3,6.7,6.9Z"/><path class="cls-2" d="M660.42,99.68c0,3.6-2.8,6.5-6.6,6.5-2.9,0-5.1-1.7-6.4-4.8l-2.8-6.8h-27.9l-2.8,6.8c-1.2,3.1-3.4,4.8-6.3,4.8-3.8,0-6.7-2.9-6.7-6.5,0-1,.3-2.2,.8-3.6l22.6-53.7c1.2-3,3.4-4.6,6.4-4.6s5.2,1.6,6.4,4.6l22.5,53.7c.6,1.4,.8,2.6,.8,3.6Zm-39.3-16.2h19l-9.4-25.8-9.6,25.8Z"/><path class="cls-2" d="M671.32,99.28V44.68c0-3.9,2.8-6.9,6.8-6.9s6.7,3,6.7,6.9v54.6c0,3.9-2.8,6.9-6.7,6.9s-6.8-3-6.8-6.9Z"/><path class="cls-2" d="M751.92,99.98c0,3.4-2.9,6.2-6.3,6.2-2.4,0-4.4-1.2-6-3.5l-14.8-21h-11.5v17.6c0,3.9-2.9,6.9-6.7,6.9s-6.8-3-6.8-6.9V45.78c0-3.9,2.9-6.8,6.9-6.8h18c14.1,0,23.7,8.6,23.7,21.2,0,8-3.9,14.5-10.3,18.2l11.9,16.5c1.2,1.8,1.9,3.5,1.9,5.1Zm-38.6-30.2h11.3c6.2,0,10-3.7,10-9.5s-3.9-9.4-10-9.4h-11.3v18.9Z"/><path class="cls-2" d="M763.82,98.28V45.68c0-3.8,2.9-6.7,6.7-6.7h32.3c3.6,0,6.2,2.6,6.2,6.1s-2.7,6.1-6.2,6.1h-25.5v13.4h17.5c3.4,0,5.9,2.5,5.9,5.8s-2.5,5.7-5.9,5.7h-17.5v16.7h26.7c3.6,0,6.2,2.7,6.2,6.1s-2.7,6.1-6.2,6.1h-33.5c-3.8,0-6.7-2.9-6.7-6.7Z"/><path class="cls-2" d="M820.72,97.28c-1.6-1.6-2.5-3.3-2.5-5.2,.1-3.6,3-6,6.2-6,1.2,0,2.5,.4,3.5,1.3,2.7,2.8,7.4,6.8,14.1,6.8,5.9,0,9.4-2.8,9.4-7.3,0-3.8-2.3-5.4-8.4-8.2l-7.1-3.2c-10.5-4.8-16-10.5-16-19,0-11.1,9.4-18.7,21.9-18.7,9.9,0,15.7,4.6,18.5,7.8,1.4,1.5,1.8,3,1.8,4.3,0,3.4-3.1,6-6.2,6-1.2,0-2.5-.4-3.7-1.4-2.7-2.4-5.7-4.7-10.4-4.7s-8.2,2.3-8.2,6.4c0,3.3,1.8,4.9,7.7,7.6l7.5,3.3c11,4.9,16.3,10.3,16.3,19.3,0,12.2-9.9,19.8-23.1,19.8-7.8,0-16.4-3.5-21.3-8.9Z"/><path class="cls-1" d="M148.59,3.5c-9.16-.04-16.62,7.36-16.66,16.52v.2c0,4.02,1.47,7.89,4.15,10.88l-9.26,11.35c-5.24-2.98-11.38-4.68-17.99-4.68-7.59,0-14.56,2.25-20.24,6.12l-20.98-19.3c1.34-2.43,2.04-5.15,2.05-7.92v-.07C69.66,7.46,62.28,.04,53.14,0h-.07C43.94,0,36.51,7.38,36.47,16.52c-.04,9.17,7.36,16.63,16.53,16.67,3.91,.02,7.7-1.35,10.7-3.86l20.11,18.51c-6.21,6.14-9.99,14.62-9.99,24.14,0,8.23,2.82,15.69,7.59,21.53l-16.34,19.62c-2.59-1.59-5.57-2.44-8.61-2.45h-.08c-9.13,0-16.55,7.37-16.59,16.52-.04,9.16,7.36,16.63,16.52,16.67,9.16,.03,16.63-7.36,16.67-16.53,.02-3.63-1.16-7.17-3.36-10.07l16.32-19.18c6.09,5.07,14.05,8.09,22.89,8.09,19.7,0,35.2-15.1,35.2-34.2,0-9.85-4.12-18.63-10.8-24.83l9.37-11.39c1.85,.75,3.85,1.06,5.85,.93,9.16,.04,16.62-7.36,16.66-16.52v-.07c0-9.14-7.37-16.56-16.52-16.6Zm-39.66,90.18c-12.4,0-21.2-9-21.2-21.7s8.8-21.71,21.2-21.71,21.2,9.11,21.2,21.71-8.9,21.7-21.2,21.7Z"/></svg>