<?xml version="1.0" encoding="UTF-8"?><svg id="Camada_1" xmlns="http://www.w3.org/2000/svg" viewBox="0 0 815.83 143.87"><defs><style>.cls-1{fill:#95b71d;}.cls-2{fill:#2755a1;}.cls-3{isolation:isolate;}</style></defs><g class="cls-3"><path class="cls-2" d="M65.47,44.68v54.7c0,3.8-2.8,6.8-6.6,6.8-3.3,0-4.9-1.9-6.7-4.1l-29.4-37.8v35c0,3.9-2.9,6.9-6.7,6.9s-6.8-3-6.8-6.9V44.58c0-3.8,2.9-6.8,6.6-6.8,3.4,0,4.9,1.9,6.9,4.4l29.3,37.5-.1-35c0-3.9,2.9-6.9,6.8-6.9s6.7,3,6.7,6.9Z"/></g><g class="cls-3"><path class="cls-1" d="M151.53,3.51c-9.16-.04-16.62,7.35-16.66,16.52v.2c0,4.01,1.47,7.88,4.15,10.88l-9.27,11.35c-5.24-2.98-11.37-4.68-17.98-4.68-7.59,0-14.55,2.25-20.23,6.12l-20.99-19.3c1.34-2.43,2.04-5.16,2.05-7.93v-.07C72.6,7.47,65.22,.05,56.08,0h-.07C46.87,0,39.45,7.38,39.41,16.53c-.04,9.16,7.36,16.62,16.53,16.66,3.91,.03,7.7-1.34,10.7-3.85l20.11,18.5c-6.21,6.14-9.99,14.62-9.99,24.14,0,8.24,2.82,15.7,7.59,21.54l-16.34,19.62c-2.59-1.6-5.57-2.45-8.61-2.46h-.08c-9.13,0-16.55,7.38-16.59,16.52-.04,9.17,7.36,16.63,16.52,16.67,9.16,.04,16.63-7.36,16.67-16.52,.02-3.64-1.16-7.18-3.36-10.08l16.32-19.17c6.09,5.06,14.04,8.08,22.89,8.08,19.7,0,35.2-15.1,35.2-34.2,0-9.84-4.12-18.62-10.8-24.82l9.37-11.39c1.85,.74,3.85,1.06,5.85,.92,9.16,.04,16.62-7.35,16.66-16.52v-.07c0-9.13-7.37-16.55-16.52-16.59Zm-39.66,90.17c-12.4,0-21.21-9-21.21-21.7s8.81-21.7,21.21-21.7,21.2,9.1,21.2,21.7-8.9,21.7-21.2,21.7Z"/></g><path class="cls-2" d="M157.96,97.28c-1.6-1.6-2.5-3.3-2.5-5.2,.1-3.6,3-6,6.2-6,1.2,0,2.5,.4,3.5,1.3,2.7,2.8,7.4,6.8,14.1,6.8,5.9,0,9.4-2.8,9.4-7.3,0-3.8-2.3-5.4-8.4-8.2l-7.1-3.2c-10.5-4.8-16-10.5-16-19,0-11.1,9.4-18.7,21.9-18.7,9.9,0,15.7,4.6,18.5,7.8,1.4,1.5,1.8,3,1.8,4.3,0,3.4-3.1,6-6.2,6-1.2,0-2.5-.4-3.7-1.4-2.7-2.4-5.7-4.7-10.4-4.7s-8.2,2.3-8.2,6.4c0,3.3,1.8,4.9,7.7,7.6l7.5,3.3c11,4.9,16.3,10.3,16.3,19.3,0,12.2-9.9,19.8-23.1,19.8-7.8,0-16.4-3.5-21.3-8.9Z"/><path class="cls-2" d="M292.47,99.68c0,3.6-2.8,6.5-6.6,6.5-2.9,0-5.1-1.7-6.4-4.8l-2.8-6.8h-27.9l-2.8,6.8c-1.2,3.1-3.4,4.8-6.3,4.8-3.8,0-6.7-2.9-6.7-6.5,0-1,.3-2.2,.8-3.6l22.6-53.7c1.2-3,3.4-4.6,6.4-4.6s5.2,1.6,6.4,4.6l22.5,53.7c.6,1.4,.8,2.6,.8,3.6Zm-39.3-16.2h19l-9.4-25.8-9.6,25.8Z"/><path class="cls-2" d="M298.06,71.98c0-19.2,15.4-34.2,35.2-34.2,10.1,0,19.6,4.3,25.5,11.4,1.4,1.6,2.1,3.2,2.1,5,0,3.3-2.8,6.1-6.3,6.1-1.9,0-3.7-.9-5.2-2.6-4.3-5-9.7-7.4-16.1-7.4-12.4,0-21.3,9.1-21.3,21.8s8.9,21.6,21.3,21.6c6.3,0,11.6-2.4,16-7.4,1.6-1.7,3.3-2.6,5.3-2.6,3.5,0,6.2,2.8,6.2,6.1,0,1.6-.6,3.2-2.1,5-5.8,7.1-15.3,11.4-25.5,11.4-19.8,0-35.1-15-35.1-34.2Z"/><path class="cls-2" d="M388.76,99.28V51.18h-15.7c-3.5,0-6.2-2.7-6.2-6.1s2.7-6.1,6.2-6.1h44.9c3.6,0,6.2,2.6,6.2,6.1s-2.7,6.1-6.2,6.1h-15.7v48.1c0,3.9-2.9,6.9-6.8,6.9s-6.7-3-6.7-6.9Z"/><path class="cls-2" d="M431.76,77.68V44.68c0-3.9,2.9-6.9,6.8-6.9s6.7,3,6.7,6.9v34c0,9.2,5.6,15,14.5,15s14.5-5.8,14.5-15V44.68c0-3.9,2.9-6.9,6.8-6.9s6.7,3,6.7,6.9v33c0,17-11.3,28.5-28,28.5s-28-11.5-28-28.5Z"/><path class="cls-2" d="M555.07,99.68c0,3.6-2.8,6.5-6.6,6.5-2.9,0-5.1-1.7-6.4-4.8l-2.8-6.8h-27.9l-2.8,6.8c-1.2,3.1-3.4,4.8-6.3,4.8-3.8,0-6.7-2.9-6.7-6.5,0-1,.3-2.2,.8-3.6l22.6-53.7c1.2-3,3.4-4.6,6.4-4.6s5.2,1.6,6.4,4.6l22.5,53.7c.6,1.4,.8,2.6,.8,3.6Zm-39.3-16.2h19l-9.4-25.8-9.6,25.8Z"/><path class="cls-2" d="M565.96,98.08V44.68c0-3.6,2.8-6.9,6.8-6.9s6.7,3,6.7,6.9v48.1h23.5c3.6,0,6.2,2.7,6.2,6.1s-2.6,6.1-6.2,6.1h-30.1c-4,0-6.9-2.9-6.9-6.9Z"/><path class="cls-2" d="M618.26,99.28V44.68c0-3.9,2.8-6.9,6.8-6.9s6.7,3,6.7,6.9v54.6c0,3.9-2.8,6.9-6.7,6.9s-6.8-3-6.8-6.9Z"/><path class="cls-2" d="M661.76,99.28V51.18h-15.7c-3.5,0-6.2-2.7-6.2-6.1s2.7-6.1,6.2-6.1h44.9c3.6,0,6.2,2.6,6.2,6.1s-2.7,6.1-6.2,6.1h-15.7v48.1c0,3.9-2.9,6.9-6.8,6.9s-6.7-3-6.7-6.9Z"/><path class="cls-2" d="M705.26,98.28V45.68c0-3.8,2.9-6.7,6.7-6.7h32.3c3.6,0,6.2,2.6,6.2,6.1s-2.7,6.1-6.2,6.1h-25.5v13.4h17.5c3.4,0,5.9,2.5,5.9,5.8s-2.5,5.7-5.9,5.7h-17.5v16.7h26.7c3.6,0,6.2,2.7,6.2,6.1s-2.7,6.1-6.2,6.1h-33.5c-3.8,0-6.7-2.9-6.7-6.7Zm18.4-74l5.2-10c1.5-2.9,4.3-3.6,6.2-3.5,5.3,.1,8.4,6.4,5.1,10.7l-6.4,9c-1.7,2.2-3.9,2.6-5,2.6-4.9-.1-6.8-5.5-5.1-8.8Z"/><path class="cls-2" d="M762.16,97.28c-1.6-1.6-2.5-3.3-2.5-5.2,.1-3.6,3-6,6.2-6,1.2,0,2.5,.4,3.5,1.3,2.7,2.8,7.4,6.8,14.1,6.8,5.9,0,9.4-2.8,9.4-7.3,0-3.8-2.3-5.4-8.4-8.2l-7.1-3.2c-10.5-4.8-16-10.5-16-19,0-11.1,9.4-18.7,21.9-18.7,9.9,0,15.7,4.6,18.5,7.8,1.4,1.5,1.8,3,1.8,4.3,0,3.4-3.1,6-6.2,6-1.2,0-2.5-.4-3.7-1.4-2.7-2.4-5.7-4.7-10.4-4.7s-8.2,2.3-8.2,6.4c0,3.3,1.8,4.9,7.7,7.6l7.5,3.3c11,4.9,16.3,10.3,16.3,19.3,0,12.2-9.9,19.8-23.1,19.8-7.8,0-16.4-3.5-21.3-8.9Z"/></svg>