<?xml version="1.0" encoding="UTF-8"?><svg id="Camada_1" xmlns="http://www.w3.org/2000/svg" viewBox="0 0 774.44 143.87"><defs><style>.cls-1{fill:#95b71d;}.cls-2{fill:#2755a1;}.cls-3{isolation:isolate;}</style></defs><g class="cls-3"><path class="cls-1" d="M116.01,3.51c-9.17-.04-16.63,7.35-16.67,16.52v.2c0,4.01,1.48,7.88,4.16,10.88l-9.27,11.35c-5.24-2.98-11.38-4.68-17.99-4.68-7.59,0-14.55,2.25-20.23,6.12l-20.99-19.3c1.34-2.43,2.05-5.15,2.06-7.93C37.11,7.51,29.72,.05,20.56,0h-.07C11.36,0,3.93,7.38,3.89,16.53c-.04,9.16,7.36,16.63,16.52,16.66,3.91,.03,7.7-1.34,10.7-3.85l20.12,18.5c-6.21,6.14-9.99,14.62-9.99,24.14,0,8.24,2.81,15.7,7.59,21.54l-16.34,19.62c-2.59-1.6-5.57-2.45-8.62-2.46h-.07c-9.14,0-16.56,7.38-16.6,16.53-.04,9.16,7.36,16.62,16.53,16.66,9.16,.04,16.62-7.36,16.66-16.52,.02-3.64-1.16-7.18-3.35-10.08l16.32-19.17c6.09,5.06,14.04,8.08,22.88,8.08,19.7,0,35.2-15.1,35.2-34.2,0-9.84-4.12-18.62-10.8-24.82l9.37-11.39c1.86,.74,3.86,1.06,5.85,.92,9.17,.05,16.63-7.35,16.67-16.51h0c.04-9.17-7.36-16.63-16.52-16.67Zm-39.67,90.17c-12.4,0-21.2-9-21.2-21.7s8.8-21.7,21.2-21.7,21.2,9.1,21.2,21.7-8.9,21.7-21.2,21.7Z"/></g><path class="cls-2" d="M122.24,77.68V44.68c0-3.9,2.9-6.9,6.8-6.9s6.7,3,6.7,6.9v34c0,9.2,5.6,15,14.5,15s14.5-5.8,14.5-15V44.68c0-3.9,2.9-6.9,6.8-6.9s6.7,3,6.7,6.9v33c0,17-11.3,28.5-28,28.5s-28-11.5-28-28.5Z"/><path class="cls-2" d="M244.85,99.98c0,3.4-2.9,6.2-6.3,6.2-2.4,0-4.4-1.2-6-3.5l-14.8-21h-11.5v17.6c0,3.9-2.9,6.9-6.7,6.9s-6.8-3-6.8-6.9V45.78c0-3.9,2.9-6.8,6.9-6.8h18c14.1,0,23.7,8.6,23.7,21.2,0,8-3.9,14.5-10.3,18.2l11.9,16.5c1.2,1.8,1.9,3.5,1.9,5.1Zm-38.6-30.2h11.3c6.2,0,10-3.7,10-9.5s-3.9-9.4-10-9.4h-11.3v18.9Z"/><path class="cls-2" d="M284.74,98.28V45.68c0-3.8,2.9-6.7,6.7-6.7h32.3c3.6,0,6.2,2.6,6.2,6.1s-2.7,6.1-6.2,6.1h-25.5v13.4h17.5c3.4,0,5.9,2.5,5.9,5.8s-2.5,5.7-5.9,5.7h-17.5v16.7h26.7c3.6,0,6.2,2.7,6.2,6.1s-2.7,6.1-6.2,6.1h-33.5c-3.8,0-6.7-2.9-6.7-6.7Z"/><path class="cls-2" d="M391.85,99.68c0,3.5-3,6.5-6.7,6.5-2.1,0-4.1-1.1-5.4-2.9l-14.6-20.7-14.7,20.7c-1.3,1.8-3.2,2.9-5.5,2.9-3.6,0-6.6-3-6.6-6.6,0-1.5,.6-3,1.9-4.9l16.7-23.3-15.3-22.1c-1.3-1.9-1.9-3.6-1.9-5.2,0-3.4,3-6.3,6.6-6.3,2.4,0,4.2,1,5.6,3l13.2,19.4,13.5-19.3c1.4-2,3.4-3.1,5.6-3.1,3.7,0,6.6,2.9,6.6,6.4,0,1.7-.6,3.4-2,5.4l-15.5,21.8,16.7,23.6c1.3,1.9,1.8,3.3,1.8,4.7Z"/><path class="cls-2" d="M403.24,99.28V45.88c0-4,2.9-6.9,6.9-6.9h18c14.1,0,23.7,8.6,23.7,21.3s-9.8,21.4-23.7,21.4h-11.4v17.6c0,3.9-2.9,6.9-6.7,6.9s-6.8-3-6.8-6.9Zm24.8-29.4c6.2,0,10-3.7,10-9.6s-3.8-9.4-10-9.4h-11.3v19h11.3Z"/><path class="cls-2" d="M462.54,98.28V45.68c0-3.8,2.9-6.7,6.7-6.7h32.3c3.6,0,6.2,2.6,6.2,6.1s-2.7,6.1-6.2,6.1h-25.5v13.4h17.5c3.4,0,5.9,2.5,5.9,5.8s-2.5,5.7-5.9,5.7h-17.5v16.7h26.7c3.6,0,6.2,2.7,6.2,6.1s-2.7,6.1-6.2,6.1h-33.5c-3.8,0-6.7-2.9-6.7-6.7Z"/><path class="cls-2" d="M571.84,99.98c0,3.4-2.9,6.2-6.3,6.2-2.4,0-4.4-1.2-6-3.5l-14.8-21h-11.5v17.6c0,3.9-2.9,6.9-6.7,6.9s-6.8-3-6.8-6.9V45.78c0-3.9,2.9-6.8,6.9-6.8h18c14.1,0,23.7,8.6,23.7,21.2,0,8-3.9,14.5-10.3,18.2l11.9,16.5c1.2,1.8,1.9,3.5,1.9,5.1Zm-38.6-30.2h11.3c6.2,0,10-3.7,10-9.5s-3.9-9.4-10-9.4h-11.3v18.9Z"/><path class="cls-2" d="M596.24,99.28V51.18h-15.7c-3.5,0-6.2-2.7-6.2-6.1s2.7-6.1,6.2-6.1h44.9c3.6,0,6.2,2.6,6.2,6.1s-2.7,6.1-6.2,6.1h-15.7v48.1c0,3.9-2.9,6.9-6.8,6.9s-6.7-3-6.7-6.9Z"/><path class="cls-2" d="M639.74,99.28V44.68c0-3.9,2.8-6.9,6.8-6.9s6.7,3,6.7,6.9v54.6c0,3.9-2.8,6.9-6.7,6.9s-6.8-3-6.8-6.9Z"/><path class="cls-2" d="M667.94,97.28c-1.6-1.6-2.5-3.3-2.5-5.2,.1-3.6,3-6,6.2-6,1.2,0,2.5,.4,3.5,1.3,2.7,2.8,7.4,6.8,14.1,6.8,5.9,0,9.4-2.8,9.4-7.3,0-3.8-2.3-5.4-8.4-8.2l-7.1-3.2c-10.5-4.8-16-10.5-16-19,0-11.1,9.4-18.7,21.9-18.7,9.9,0,15.7,4.6,18.5,7.8,1.4,1.5,1.8,3,1.8,4.3,0,3.4-3.1,6-6.2,6-1.2,0-2.5-.4-3.7-1.4-2.7-2.4-5.7-4.7-10.4-4.7s-8.2,2.3-8.2,6.4c0,3.3,1.8,4.9,7.7,7.6l7.5,3.3c11,4.9,16.3,10.3,16.3,19.3,0,12.2-9.9,19.8-23.1,19.8-7.8,0-16.4-3.5-21.3-8.9Z"/><path class="cls-2" d="M724.14,98.28V45.68c0-3.8,2.9-6.7,6.7-6.7h32.3c3.6,0,6.2,2.6,6.2,6.1s-2.7,6.1-6.2,6.1h-25.5v13.4h17.5c3.4,0,5.9,2.5,5.9,5.8s-2.5,5.7-5.9,5.7h-17.5v16.7h26.7c3.6,0,6.2,2.7,6.2,6.1s-2.7,6.1-6.2,6.1h-33.5c-3.8,0-6.7-2.9-6.7-6.7Z"/></svg>