<?xml version="1.0" encoding="UTF-8"?><svg id="Camada_1" xmlns="http://www.w3.org/2000/svg" viewBox="0 0 479.76 143.87"><defs><style>.cls-1{fill:#fff;}.cls-2{fill:#95b71d;}.cls-3{isolation:isolate;}</style></defs><path class="cls-1" d="M61.73,99.6c0,3.6-2.8,6.5-6.6,6.5-2.9,0-5.1-1.7-6.4-4.8l-2.8-6.8H18.03l-2.8,6.8c-1.2,3.1-3.4,4.8-6.3,4.8-3.8,0-6.7-2.9-6.7-6.5,0-1,.3-2.2,.8-3.6L25.63,42.29c1.2-3,3.4-4.6,6.4-4.6s5.2,1.6,6.4,4.6l22.5,53.7c.6,1.4,.8,2.6,.8,3.6Zm-39.3-16.2h19l-9.4-25.8-9.6,25.8Z"/><path class="cls-1" d="M123.83,85.5c0,11.4-9,19.4-21.8,19.4h-22.5c-4,0-6.9-2.9-6.9-6.9V45.79c0-4,2.9-6.9,6.9-6.9h16.5c12.3,0,20.9,7.5,20.9,18.4,0,4.9-1.7,8.9-4.9,11.9,7.4,2.6,11.8,8.4,11.8,16.3Zm-38.1-35v15.1h9.3c5.3,0,8.6-2.9,8.6-7.6s-3.3-7.5-8.6-7.5h-9.3Zm24.7,34.5c0-5.2-3.5-8.3-9.4-8.3h-15.3v16.6h15.3c5.9,0,9.4-3,9.4-8.3Z"/><path class="cls-1" d="M211.93,77.6V44.59c0-3.9,2.9-6.9,6.8-6.9s6.7,3,6.7,6.9v34c0,9.2,5.6,15,14.5,15s14.5-5.8,14.5-15V44.59c0-3.9,2.9-6.9,6.8-6.9s6.7,3,6.7,6.9v33c0,17-11.3,28.5-28,28.5s-28-11.5-28-28.5Z"/><path class="cls-1" d="M297.43,99.2V51.09h-15.7c-3.5,0-6.2-2.7-6.2-6.1s2.7-6.1,6.2-6.1h44.9c3.6,0,6.2,2.6,6.2,6.1s-2.7,6.1-6.2,6.1h-15.7v48.1c0,3.9-2.9,6.9-6.8,6.9s-6.7-3-6.7-6.9Z"/><path class="cls-1" d="M363.43,77.6V44.59c0-3.9,2.9-6.9,6.8-6.9s6.7,3,6.7,6.9v34c0,9.2,5.6,15,14.5,15s14.5-5.8,14.5-15V44.59c0-3.9,2.9-6.9,6.8-6.9s6.7,3,6.7,6.9v33c0,17-11.3,28.5-28,28.5s-28-11.5-28-28.5Z"/><path class="cls-1" d="M433.13,97.2c-1.6-1.6-2.5-3.3-2.5-5.2,.1-3.6,3-6,6.2-6,1.2,0,2.5,.4,3.5,1.3,2.7,2.8,7.4,6.8,14.1,6.8,5.9,0,9.4-2.8,9.4-7.3,0-3.8-2.3-5.4-8.4-8.2l-7.1-3.2c-10.5-4.8-16-10.5-16-19,0-11.1,9.4-18.7,21.9-18.7,9.9,0,15.7,4.6,18.5,7.8,1.4,1.5,1.8,3,1.8,4.3,0,3.4-3.1,6-6.2,6-1.2,0-2.5-.4-3.7-1.4-2.7-2.4-5.7-4.7-10.4-4.7s-8.2,2.3-8.2,6.4c0,3.3,1.8,4.9,7.7,7.6l7.5,3.3c11,4.9,16.3,10.3,16.3,19.3,0,12.2-9.9,19.8-23.1,19.8-7.8,0-16.4-3.5-21.3-8.9Z"/><g class="cls-3"><path class="cls-2" d="M205.56,3.5c-9.17-.04-16.63,7.36-16.67,16.52v.2c0,4.02,1.48,7.89,4.16,10.88l-9.26,11.35c-5.24-2.98-11.38-4.68-18-4.68-7.59,0-14.55,2.25-20.23,6.13l-20.99-19.31c1.34-2.42,2.05-5.15,2.06-7.92C126.66,7.5,119.27,.04,110.11,0h-.08C100.9,0,93.48,7.38,93.44,16.52c-.04,9.17,7.36,16.63,16.52,16.67,3.91,.02,7.7-1.34,10.7-3.86l20.12,18.51c-6.21,6.14-9.99,14.62-9.99,24.14,0,8.23,2.81,15.69,7.58,21.53l-16.33,19.62c-2.59-1.59-5.57-2.44-8.62-2.45h-.07c-9.14,0-16.56,7.38-16.6,16.52-.04,9.17,7.36,16.63,16.53,16.67,9.16,.03,16.62-7.36,16.66-16.53,.02-3.63-1.16-7.17-3.35-10.07l16.31-19.18c6.09,5.07,14.05,8.09,22.89,8.09,19.7,0,35.2-15.1,35.2-34.2,0-9.84-4.11-18.62-10.79-24.82l9.36-11.4c1.86,.75,3.86,1.07,5.85,.93,9.17,.04,16.63-7.36,16.67-16.52v-.07c0-9.14-7.38-16.56-16.52-16.6Zm-39.67,90.18c-12.4,0-21.2-9-21.2-21.7s8.8-21.7,21.2-21.7,21.2,9.1,21.2,21.7-8.9,21.7-21.2,21.7Z"/></g></svg>