<svg xmlns="http://www.w3.org/2000/svg" xmlns:xlink="http://www.w3.org/1999/xlink" width="398" height="391" viewBox="0 0 398 391">
  <defs>
    <clipPath id="clip-path">
      <rect id="Ret칙ngulo_948" data-name="Ret칙ngulo 948" width="398" height="391" transform="translate(0 140)" fill="#fff"/>
    </clipPath>
  </defs>
  <g id="Grupo_de_m치scara_255" data-name="Grupo de m치scara 255" transform="translate(0 -140)" clip-path="url(#clip-path)">
    <g id="Caminho_676" data-name="Caminho 676" transform="translate(-181 -30)" fill="none">
      <path d="M280.5,0C435.416,0,561,125.584,561,280.5S435.416,561,280.5,561,0,435.416,0,280.5,125.584,0,280.5,0Z" stroke="none"/>
      <path d="M 280.4999389648438 72.99993896484375 C 166.0840759277344 72.99993896484375 72.99993896484375 166.0840759277344 72.99993896484375 280.4999389648438 C 72.99993896484375 394.9158020019531 166.0840759277344 487.9999389648438 280.4999389648438 487.9999389648438 C 394.9158020019531 487.9999389648438 487.9999389648438 394.9158020019531 487.9999389648438 280.4999389648438 C 487.9999389648438 166.0840759277344 394.9158020019531 72.99993896484375 280.4999389648438 72.99993896484375 M 280.4999389648438 -6.103515625e-05 C 435.4158020019531 -6.103515625e-05 560.9999389648438 125.5840759277344 560.9999389648438 280.4999389648438 C 560.9999389648438 435.4158020019531 435.4158020019531 560.9999389648438 280.4999389648438 560.9999389648438 C 125.5840759277344 560.9999389648438 -6.103515625e-05 435.4158020019531 -6.103515625e-05 280.4999389648438 C -6.103515625e-05 125.5840759277344 125.5840759277344 -6.103515625e-05 280.4999389648438 -6.103515625e-05 Z" stroke="none" fill="#95b71d"/>
    </g>
  </g>
</svg>
