<svg id="Calque_1" data-name="Calque 1" xmlns="http://www.w3.org/2000/svg" width="160" height="160" viewBox="0 0 160 160">
  <defs>
    <style>
      .cls-1 {
        fill: #95b71d;
      }

      .cls-2 {
        fill: #fff;
      }
    </style>
  </defs>
  <g id="Groupe_981" data-name="Groupe 981">
    <circle id="Ellipse_165" data-name="Ellipse 165" class="cls-1" cx="80.7028" cy="59.0743" r="52.5"/>
    <g id="Groupe_964" data-name="Groupe 964">
      <g id="Groupe_958" data-name="Groupe 958">
        <g id="Groupe_954" data-name="Groupe 954">
          <g id="Groupe_952" data-name="Groupe 952">
            <g>
              <path id="Tracé_803" data-name="Tracé 803" class="cls-2" d="M64.3867,98.0164c-4.8269-2.7751-11.3-4.3-18.23-4.3s-13.4,1.5291-18.23,4.3c-5.6,3.218-8.556,7.8409-8.556,13.368V152.51h53.573v-41.124C72.9438,105.8574,69.9849,101.2344,64.3867,98.0164Zm6.5921,52.5269H21.33v-39.159c0-6.044,4.117-9.679,7.5721-11.6651,4.5329-2.607,10.66-4.042,17.2509-4.042s12.718,1.4351,17.251,4.042c3.4541,1.985,7.5711,5.621,7.5711,11.6651Z"/>
              <path class="cls-2" d="M73.6939,153.2606H18.6206v-41.876c0-5.8134,3.0889-10.66,8.9317-14.0185,4.9453-2.8369,11.5517-4.3994,18.6045-4.3994,7.0634,0,13.67,1.5625,18.6035,4.3994,5.8447,3.3594,8.9336,8.207,8.9336,14.02Zm-53.5733-1.5H72.1939v-40.374c0-5.2451-2.8291-9.6436-8.1817-12.72-4.71-2.709-11.0508-4.2-17.8554-4.2-6.795,0-13.1368,1.4922-17.8575,4.2-5.3506,3.0752-8.1787,7.4726-8.1787,12.7177Zm51.6084-.4678H20.58V111.3846c0-6.4033,4.3223-10.2314,7.9482-12.3154,4.6436-2.6709,10.9034-4.1416,17.625-4.1416s12.9815,1.4707,17.625,4.1416c3.625,2.083,7.9473,5.91,7.9473,12.3154Zm-49.6494-1.5H70.229l-.0039-38.4082c0-5.6875-3.9131-9.1289-7.1953-11.0146-4.42-2.542-10.4131-3.9424-16.877-3.9424s-12.457,1.4-16.8769,3.9424c-3.2832,1.8857-7.1963,5.3281-7.1963,11.0146Z"/>
            </g>
            <g>
              <path id="Tracé_804" data-name="Tracé 804" class="cls-2" d="M73.1128,152.6754h-53.91v-41.291c0-5.59,2.988-10.2629,8.64-13.5129,4.852-2.789,11.3559-4.325,18.3139-4.325s13.461,1.536,18.314,4.325c5.6521,3.25,8.64,7.9229,8.64,13.5129Zm-53.574-.333h53.24v-40.957c0-5.463-2.93-10.037-8.4729-13.224-4.8-2.761-11.248-4.281-18.147-4.281s-13.3449,1.521-18.1469,4.281c-5.543,3.187-8.4729,7.76-8.4729,13.224Zm51.6089-1.632H21.17V111.3855c0-6.124,4.1631-9.8,7.656-11.809,4.5591-2.6209,10.7141-4.0639,17.333-4.0639s12.7749,1.443,17.334,4.0639c3.4919,2.0081,7.655,5.6861,7.655,11.809Zm-49.644-.333h49.309V111.3855c0-5.964-4.072-9.557-7.488-11.52-4.508-2.5921-10.6-4.02-17.167-4.02s-12.66,1.4279-17.167,4.02c-3.416,1.963-7.489,5.555-7.489,11.52Z"/>
              <path class="cls-2" d="M73.8628,153.4257h-55.41V111.3846c0-5.874,3.1171-10.7714,9.0156-14.164,4.9658-2.8526,11.6025-4.4238,18.6885-4.4238s13.7216,1.5712,18.6875,4.4238c5.8984,3.3916,9.0166,8.29,9.0166,14.164Zm-53.5742-1.833h51.74V111.3856c0-5.1806-2.8-9.5283-8.0967-12.5742-4.6875-2.6963-11-4.1807-17.7734-4.1807-6.7705,0-13.082,1.4844-17.7725,4.1807-5.2978,3.0459-8.0976,7.3945-8.0976,12.5742Zm51.6094-.1319H20.4194V111.3856c0-6.4785,4.3682-10.3515,8.0323-12.46,4.6709-2.6846,10.96-4.1631,17.707-4.1631s13.0361,1.4785,17.708,4.1631c3.6641,2.1074,8.0313,5.98,8.0313,12.46Zm-49.6446-1.833h47.81V111.3856c0-5.6064-3.8672-9.0058-7.1123-10.87-4.3965-2.5283-10.36-3.92-16.793-3.92s-12.3974,1.3916-16.7929,3.92c-3.2452,1.8643-7.1133,5.2637-7.1133,10.87Z"/>
            </g>
          </g>
          <g id="Groupe_953" data-name="Groupe 953">
            <g>
              <path id="Tracé_805" data-name="Tracé 805" class="cls-2" d="M36.4067,89.1543a14.1264,14.1264,0,0,0,9.77,3.8361h0a14.5118,14.5118,0,0,0,9.7209-3.7,14.4117,14.4117,0,1,0-19.491-.139Zm-1.7409-15.049a12.3877,12.3877,0,1,1,19.91,13.735,12.5428,12.5428,0,0,1-8.4,3.1851h0a12.3691,12.3691,0,0,1-11.511-16.922Z"/>
              <path class="cls-2" d="M46.0845,93.74A14.8174,14.8174,0,0,1,35.8931,89.7l-.2363-.2266a15.0626,15.0626,0,0,1,4.9726-24.83,15.0526,15.0526,0,0,1,19.5322,8.5039A14.9325,14.9325,0,0,1,46.22,93.74Zm-8.9277-4.915a13.32,13.32,0,0,0,8.9277,3.415v.75l.0869-.75A13.4321,13.4321,0,0,0,58.7671,73.701,13.5627,13.5627,0,1,0,33.523,83.6268a13.6378,13.6378,0,0,0,3.3935,4.9746Zm9.0664,2.95-.0479-.75.001.75h-.0117A13.12,13.12,0,0,1,33.9673,73.827l.6162-1.5556.0547.1093A13.1472,13.1472,0,1,1,55.0816,88.3944,13.2806,13.2806,0,0,1,46.2232,91.7753ZM35.2749,74.6063a11.6194,11.6194,0,0,0,10.89,15.669h.0136l-.0029.75.0479-.75a11.78,11.78,0,0,0,7.8535-2.9942A11.66,11.66,0,1,0,35.3638,74.3788Z"/>
            </g>
            <g>
              <path id="Tracé_806" data-name="Tracé 806" class="cls-2" d="M46.1768,93.1573a14.3442,14.3442,0,1,1,9.8339-3.7409A14.6869,14.6869,0,0,1,46.1768,93.1573Zm-.021-28.6779a14.1725,14.1725,0,1,0,.02,28.3449h0a14.3524,14.3524,0,0,0,9.6089-3.654,14.1814,14.1814,0,0,0,3.521-15.684,13.883,13.883,0,0,0-13.149-9.004Zm.021,26.7159a12.3831,12.3831,0,1,1,8.5119-3.229,12.7086,12.7086,0,0,1-8.5119,3.228Zm-.021-24.753a12.21,12.21,0,0,0,.02,24.4189,12.21,12.21,0,0,0-.02-24.4189Z"/>
              <path class="cls-2" d="M46.1079,93.9071a15.5784,15.5784,0,1,1,.1123,0l-.0556-.333h-.0567Zm-.4052-28.67a13.4224,13.4224,0,0,0,.4619,26.8369h.0127l-.001.333H46.2l.02-.333a13.2585,13.2585,0,0,0,12.39-18.3086,13.1982,13.1982,0,0,0-12.3-8.5342Zm.4628,26.708a13.1338,13.1338,0,0,1-7.8671-23.51h.0009a12.9815,12.9815,0,0,1,5.3067-2.4687h0a13.2425,13.2425,0,0,1,2.7383-.2862l.1855.001a13.1336,13.1336,0,0,1,8.6641,22.84,13.4536,13.4536,0,0,1-8.97,3.4228ZM39.2222,69.618a11.3845,11.3845,0,0,0-4.4072,9.1455A11.5153,11.5153,0,0,0,46.1812,90.1112h.0009a11.6414,11.6414,0,0,0,7.7823-2.9521,11.5517,11.5517,0,0,0,.52-16.3135A11.26,11.26,0,0,0,39.2222,69.618Z"/>
            </g>
          </g>
        </g>
        <g id="Groupe_957" data-name="Groupe 957">
          <g id="Groupe_955" data-name="Groupe 955">
            <g>
              <path id="Tracé_807" data-name="Tracé 807" class="cls-2" d="M132.076,98.0164c-4.8269-2.7751-11.3-4.3-18.23-4.3s-13.4,1.5291-18.23,4.3c-5.6,3.218-8.5559,7.8409-8.5559,13.368V152.51h53.573v-41.124C140.6319,105.8574,137.6729,101.2344,132.076,98.0164Zm6.592,52.5269H89.024v-39.159c0-6.044,4.1169-9.679,7.571-11.6651,4.533-2.607,10.66-4.042,17.251-4.042s12.718,1.4351,17.251,4.042c3.4541,1.985,7.572,5.621,7.572,11.6651Z"/>
              <path class="cls-2" d="M141.3833,153.2606H86.31v-41.876c0-5.8134,3.0888-10.66,8.9316-14.0185,4.9453-2.8369,11.5518-4.3994,18.6045-4.3994,7.0635,0,13.67,1.5625,18.6035,4.3994,5.8438,3.3594,8.9326,8.207,8.9336,14.02Zm-53.5732-1.5h52.0732v-40.374c-.001-5.2451-2.83-9.6436-8.1816-12.72-4.71-2.709-11.0508-4.2-17.8555-4.2-6.7949,0-13.1367,1.4922-17.8574,4.2-5.3506,3.0752-8.1787,7.4726-8.1787,12.7177Zm51.6084-.4678H88.2739V111.3846c0-6.4033,4.3223-10.2314,7.9473-12.3154,4.6436-2.6709,10.9033-4.1416,17.625-4.1416s12.9815,1.4707,17.625,4.1416c3.626,2.083,7.9482,5.9111,7.9482,12.3154Zm-49.6446-1.5h48.1446l.0009-38.4082c0-5.6865-3.913-9.1289-7.1962-11.0146-4.42-2.542-10.4131-3.9424-16.877-3.9424s-12.457,1.4-16.8769,3.9424c-3.2823,1.8867-7.1954,5.3291-7.1954,11.0146Z"/>
            </g>
            <g>
              <path id="Tracé_808" data-name="Tracé 808" class="cls-2" d="M140.7969,152.6754H86.89v-41.291c0-5.59,2.9881-10.2629,8.64-13.5129,4.8521-2.789,11.356-4.325,18.313-4.325s13.4609,1.536,18.314,4.325c5.6509,3.25,8.64,7.9229,8.64,13.5129Zm-53.574-.333h53.241v-40.957c0-5.463-2.93-10.037-8.4729-13.224-4.8-2.761-11.249-4.281-18.1479-4.281s-13.345,1.521-18.147,4.281c-5.543,3.187-8.4729,7.76-8.4729,13.224Zm51.6089-1.632H88.857V111.3855c0-6.124,4.1631-9.8,7.655-11.809,4.5581-2.6209,10.7141-4.0639,17.333-4.0639s12.7759,1.443,17.334,4.0639c3.491,2.0081,7.655,5.6861,7.655,11.809Zm-49.644-.333h49.3091V111.3855c0-5.964-4.0721-9.557-7.4881-11.52-4.508-2.5921-10.605-4.02-17.167-4.02s-12.6589,1.4279-17.167,4.02c-3.4169,1.963-7.489,5.555-7.489,11.52Z"/>
              <path class="cls-2" d="M141.5474,153.4257H86.14V111.3846c0-5.874,3.1171-10.7714,9.0156-14.164,4.9658-2.8526,11.6025-4.4238,18.6875-4.4238s13.7217,1.5712,18.6875,4.4238c5.8984,3.3926,9.0156,8.29,9.0156,14.164Zm-53.5742-1.833h51.7412V111.3856c0-5.18-2.8-9.5283-8.0977-12.5742-4.6865-2.6963-10.999-4.1807-17.7734-4.1807-6.77,0-13.0821,1.4844-17.7735,4.1807-5.2968,3.0459-8.0966,7.3936-8.0966,12.5742Zm51.6084-.1319H88.1069V111.3856c0-6.4775,4.3672-10.3515,8.0313-12.46,4.67-2.6846,10.959-4.1631,17.707-4.1631s13.0371,1.4785,17.708,4.1631c3.6641,2.1084,8.0313,5.9814,8.0313,12.46Zm-49.6436-1.833h47.8086V111.3856c0-5.6074-3.8672-9.0058-7.1113-10.87-4.3975-2.5283-10.3614-3.92-16.793-3.92s-12.3965,1.3916-16.793,3.92c-3.2451,1.8643-7.1132,5.2627-7.1132,10.87Z"/>
            </g>
          </g>
          <g id="Groupe_956" data-name="Groupe 956">
            <g>
              <path id="Tracé_809" data-name="Tracé 809" class="cls-2" d="M104.096,89.1543a14.1261,14.1261,0,0,0,9.77,3.8361h0a14.5124,14.5124,0,0,0,9.721-3.7,14.4117,14.4117,0,1,0-19.491-.139Zm-1.741-15.049a12.3878,12.3878,0,1,1,19.91,13.735,12.5424,12.5424,0,0,1-8.4,3.1851h0a12.3691,12.3691,0,0,1-11.511-16.922Z"/>
              <path class="cls-2" d="M113.7739,93.74a14.8176,14.8176,0,0,1-10.1914-4.04l-.2363-.2266a15.0626,15.0626,0,0,1,4.9727-24.83,15.0526,15.0526,0,0,1,19.5322,8.5039A14.9325,14.9325,0,0,1,113.91,93.74Zm-8.9277-4.915a13.32,13.32,0,0,0,8.9277,3.415v.75l.087-.75A13.4322,13.4322,0,0,0,126.4566,73.701a13.5627,13.5627,0,1,0-25.2442,9.9258,13.6381,13.6381,0,0,0,3.3936,4.9746Zm9.0664,2.95-.0478-.75.0009.75h-.0117A13.12,13.12,0,0,1,101.6568,73.827l.6162-1.5556.0547.1093A13.1472,13.1472,0,1,1,122.771,88.3944,13.28,13.28,0,0,1,113.9126,91.7753Zm-10.9482-17.169a11.6194,11.6194,0,0,0,10.89,15.669h.0137l-.0029.75.0478-.75a11.78,11.78,0,0,0,7.8535-2.9942,11.66,11.66,0,1,0-18.7129-12.9023Z"/>
            </g>
            <g>
              <path id="Tracé_810" data-name="Tracé 810" class="cls-2" d="M113.866,93.1573a14.3442,14.3442,0,1,1,9.834-3.7409A14.6892,14.6892,0,0,1,113.866,93.1573Zm-.021-28.6779a14.1725,14.1725,0,1,0,.02,28.3449h0a14.3543,14.3543,0,0,0,9.6089-3.654,14.1811,14.1811,0,0,0,3.522-15.684,13.8842,13.8842,0,0,0-13.1509-9.004Zm.021,26.7159a12.3829,12.3829,0,1,1,8.512-3.229,12.71,12.71,0,0,1-8.512,3.228Zm-.021-24.753a12.21,12.21,0,0,0,.02,24.4189,12.21,12.21,0,0,0-.02-24.4189Z"/>
              <path class="cls-2" d="M113.7974,93.9071a15.5835,15.5835,0,1,1,.1084,0l-.0518-.333h-.0566Zm-.4082-28.67a13.4225,13.4225,0,0,0,.4648,26.8369h.0127l-.001.333h.0235l.0195-.333a13.26,13.26,0,0,0,12.3906-18.3086A13.2,13.2,0,0,0,114,65.2313Zm.4658,26.708a13.1339,13.1339,0,0,1-7.8672-23.51h.001a12.9811,12.9811,0,0,1,5.3066-2.4687h0a13.2433,13.2433,0,0,1,2.7383-.2862l.1856.001a13.1336,13.1336,0,0,1,8.664,22.84,13.4535,13.4535,0,0,1-8.97,3.4228ZM106.9116,69.618a11.385,11.385,0,0,0-4.4072,9.1455,11.5154,11.5154,0,0,0,11.3662,11.3477h.001a11.6411,11.6411,0,0,0,7.7822-2.9521,11.5518,11.5518,0,0,0,.52-16.3135,11.26,11.26,0,0,0-15.2618-1.2276Z"/>
            </g>
          </g>
        </g>
      </g>
      <g id="Groupe_961" data-name="Groupe 961">
        <g id="Groupe_959" data-name="Groupe 959">
          <g>
            <path id="Tracé_811" data-name="Tracé 811" class="cls-2" d="M102.8049,67.9713a20.0449,20.0449,0,0,0-4.573-3.526c-4.8269-2.775-11.3-4.3-18.23-4.3s-13.4,1.5279-18.23,4.3a19.9662,19.9662,0,0,0-4.6321,3.588l1.2891,1.528a15.9647,15.9647,0,0,1,4.323-3.413c4.5329-2.607,10.6589-4.042,17.2509-4.042s12.718,1.4351,17.251,4.042a16.42,16.42,0,0,1,4.3391,3.413Z"/>
            <path class="cls-2" d="M101.6431,70.7343l-.6055-.67a15.6615,15.6615,0,0,0-4.1426-3.2568c-4.4345-2.5508-10.4277-3.9512-16.8925-3.9512s-12.4571,1.4-16.877,3.9424a15.2083,15.2083,0,0,0-4.1367,3.2627l-.5762.6445-2.28-2.705.4668-.4864a20.6881,20.6881,0,0,1,4.8057-3.7236c4.9365-2.833,11.543-4.3955,18.5967-4.3955,7.0625,0,13.67,1.5625,18.6045,4.3994a20.7755,20.7755,0,0,1,4.7383,3.6553l.4482.4629Zm-43.4873-2.66.3037.36a16.67,16.67,0,0,1,3.9355-2.9462c4.626-2.6612,10.8858-4.1319,17.6075-4.1319s12.9824,1.4707,17.625,4.1416a17.0969,17.0969,0,0,1,3.9023,2.91l.2813-.3692a19.3068,19.3068,0,0,0-3.9463-2.94c-4.7178-2.7119-11.0586-4.2031-17.8633-4.2031-6.7959,0-13.1377,1.4912-17.8565,4.2A19.25,19.25,0,0,0,58.1558,68.0741Z"/>
          </g>
          <g>
            <path id="Tracé_812" data-name="Tracé 812" class="cls-2" d="M101.5986,69.8253l-.134-.1529a16.28,16.28,0,0,0-4.3-3.3781c-4.5081-2.593-10.6-4.02-17.167-4.02s-12.66,1.427-17.167,4.02a15.7735,15.7735,0,0,0-4.28,3.3781l-.1279.1469-1.51-1.79.1-.109a20.196,20.196,0,0,1,4.67-3.6181c4.8521-2.79,11.356-4.326,18.314-4.326s13.46,1.536,18.3139,4.326a20.233,20.233,0,0,1,4.6111,3.5561l.1.1Zm-44.237-1.786,1.0691,1.2679a16.2122,16.2122,0,0,1,4.236-3.3c4.5582-2.621,10.7142-4.064,17.334-4.064s12.7759,1.443,17.334,4.064a16.7267,16.7267,0,0,1,4.2451,3.3l1.0061-1.317a20.0627,20.0627,0,0,0-4.438-3.394c-4.8-2.76-11.248-4.281-18.1469-4.281s-13.345,1.521-18.147,4.281a19.98,19.98,0,0,0-4.4922,3.4431Z"/>
            <path class="cls-2" d="M101.6392,71.0087l-.7383-.8409a15.4727,15.4727,0,0,0-4.0938-3.2148c-4.4111-2.5371-10.375-3.9287-16.8095-3.9287s-12.3994,1.3916-16.793,3.92A15.0157,15.0157,0,0,0,59.11,70.1718l-.6973.7988-2.4971-2.96.542-.5957a20.9522,20.9522,0,0,1,4.8565-3.7656c4.958-2.8506,11.5957-4.4229,18.6826-4.4229s13.7227,1.5723,18.6875,4.4258a20.9411,20.9411,0,0,1,4.7764,3.6846l.5576.5517ZM58.3823,68.0858l.086.1026A16.8931,16.8931,0,0,1,62.31,65.3466c4.6533-2.6748,10.9424-4.1534,17.69-4.1534s13.0381,1.4786,17.708,4.1631A17.402,17.402,0,0,1,101.51,68.163l.0771-.1016A19.2449,19.2449,0,0,0,97.78,65.25c-4.6934-2.6992-11.0059-4.1846-17.7793-4.1846-6.77,0-13.083,1.4854-17.7725,4.1816A19.2177,19.2177,0,0,0,58.3823,68.0858Z"/>
          </g>
        </g>
        <g id="Groupe_960" data-name="Groupe 960">
          <g>
            <path id="Tracé_813" data-name="Tracé 813" class="cls-2" d="M70.2509,55.5824a14.1257,14.1257,0,0,0,9.77,3.8361h0a14.5119,14.5119,0,0,0,9.7209-3.7,14.4136,14.4136,0,1,0-19.4909-.139Zm-1.742-15.049A12.389,12.389,0,1,1,88.42,54.2705a12.5424,12.5424,0,0,1-8.4,3.1851h0A12.3689,12.3689,0,0,1,68.508,40.5336Z"/>
            <path class="cls-2" d="M79.9292,60.1688A14.8284,14.8284,0,0,1,69.7368,56.13l-.2363-.2286a15.1732,15.1732,0,0,1-3.5322-5.3007A15.0635,15.0635,0,1,1,94.0054,39.5751,14.9328,14.9328,0,0,1,80.06,60.1688Zm-8.9287-4.915a13.3286,13.3286,0,0,0,8.93,3.415l-.001.75.0869-.75a13.4325,13.4325,0,0,0,12.5948-18.54,13.5631,13.5631,0,1,0-25.2461,9.9228A13.6444,13.6444,0,0,0,70.76,55.0292Zm9.0674,2.9521-.0479-.75.001.75h-.0117A12.8422,12.8422,0,1,1,88.93,54.82,13.2886,13.2886,0,0,1,80.0679,58.2059Zm-.0752-24.6552a11.5777,11.5777,0,1,0,.0166,23.1552h.0137l-.003.75.0479-.75A11.3383,11.3383,0,0,0,90.772,49.5712a11.6471,11.6471,0,0,0-10.7793-16.02Z"/>
          </g>
          <g>
            <path id="Tracé_814" data-name="Tracé 814" class="cls-2" d="M80.0206,59.5853a14.345,14.345,0,1,1,9.8331-3.7409A14.6855,14.6855,0,0,1,80.0206,59.5853ZM80,30.9073a14.172,14.172,0,0,0,.02,28.344h0a14.35,14.35,0,0,0,9.6089-3.654,14.18,14.18,0,0,0,3.5219-15.684,13.8822,13.8822,0,0,0-13.1548-9.006Zm.021,26.715a12.381,12.381,0,1,1,8.512-3.229A12.7125,12.7125,0,0,1,80.0206,57.6223ZM80,32.8693a12.21,12.21,0,0,0,.02,24.4189A12.21,12.21,0,0,0,80,32.8693Z"/>
            <path class="cls-2" d="M79.9527,60.3348a15.5758,15.5758,0,1,1,.1123,0l-.0557-.3339h-.0566ZM80,31.47l.001.1875a13.4219,13.4219,0,0,0,.0088,26.8438h.0127l-.001.3339h.0234l.02-.3339A13.26,13.26,0,0,0,92.4546,40.1923a13.2,13.2,0,0,0-12.3027-8.5362l-.1475.001L80,31.3231Zm.0694,26.9023h-.0508a13.1314,13.1314,0,0,1-7.18-24.0087A12.7937,12.7937,0,0,1,78.15,32.2694a13.1565,13.1565,0,0,1,2.04-.1582l.1855.001a13.1314,13.1314,0,0,1,8.6621,22.8359A13.45,13.45,0,0,1,80.0689,58.3719ZM73.6812,35.6044A11.4608,11.4608,0,0,0,80.0269,56.538h.0009A11.46,11.46,0,1,0,78.38,33.7509,11.4853,11.4853,0,0,0,73.6812,35.6044Z"/>
          </g>
        </g>
      </g>
      <g id="Groupe_963" data-name="Groupe 963">
        <g id="Groupe_962" data-name="Groupe 962">
          <g>
            <path id="Tracé_815" data-name="Tracé 815" class="cls-2" d="M86.7727,116.9963H73.2666v1.965H86.7727Z"/>
            <path class="cls-2" d="M87.523,119.7118H72.5161V116.246H87.523Zm-13.5069-1.5H86.023v-.4658H74.0161Z"/>
          </g>
          <g>
            <path id="Tracé_816" data-name="Tracé 816" class="cls-2" d="M86.9387,119.1273H73.1v-2.3H86.9387Zm-13.5061-.333H86.6047v-1.633H73.4326Z"/>
            <path class="cls-2" d="M87.689,119.8778h-15.34V116.077h15.34Zm-13.5069-1.834H85.855v-.1328H74.1821Z"/>
          </g>
        </g>
      </g>
    </g>
  </g>
</svg>
