<svg id="Calque_1" data-name="Calque 1" xmlns="http://www.w3.org/2000/svg" width="150" height="150" viewBox="0 0 150 150">
  <defs>
    <style>
      .cls-1 {
        fill: #95b71d;
      }

      .cls-2 {
        fill: #2755a1;
      }
      
    </style>
  </defs>
  <g id="Groupe_831" data-name="Groupe 831">
    <g id="Groupe_830" data-name="Groupe 830">
      <circle id="Ellipse_63" data-name="Ellipse 63" className="cls-1" cx="53.9964" cy="79.9875" r="52.5"/>
    </g>
    <g>
      <path className="cls-2" d="M127.7435,38.0566a11.0861,11.0861,0,0,0-19.061,7.5119h0a11.0861,11.0861,0,1,0,19.061-7.5119Zm-3.232,12.6169a6.8264,6.8264,0,1,1-4.7432-11.7319l-.0028.001h0a6.8259,6.8259,0,0,1,4.746,11.7309Z"/>
      <path className="cls-2" d="M147.2445,21.1054a2.3635,2.3635,0,0,0-.654-1.2429,2.2212,2.2212,0,0,0-.475-.376l-.49-.2151A49.65,49.65,0,0,0,132,17.5153,54.0578,54.0578,0,0,0,93.8,33.1225a78.4248,78.4248,0,0,0-7.8,8.7c-5.681-1.8082-12.245-.9261-19.381,2.6049-5.733,2.836-11.777,7.304-17.963,13.2781l-3.883,3.749,5.479-.0691c.67,0,16.124.0791,24.254,6.8291a33.1772,33.1772,0,0,0-.258,5.5459l-3.285,3.1722,15.975,16.54,3.283-3.169a36.6034,36.6034,0,0,0,5.525-.062c6.4459,8.5713,5.843,24.2251,5.835,24.3789l-.263,5.4,3.896-3.7505a74.1214,74.1214,0,0,0,13.831-17.3657c3.794-6.9888,4.94-13.427,3.411-19.157a78.1564,78.1564,0,0,0,9.075-7.5591A54.3669,54.3669,0,0,0,148.17,38.4953,52.79,52.79,0,0,0,147.2445,21.1054Zm-28.51,56.0022-1.38.9319.567,1.573c3.7149,10.2388-5.0581,22.3413-12.148,29.9673-.086-1.5054-.24-3.2261-.5-5.0781-.744-5.3414-2.559-12.78-6.968-17.9l-.7421-.8669-1.129.1379a34.119,34.119,0,0,1-3.925.2351,19.5783,19.5783,0,0,1-2.7069-.1531l-1.0611-.174-1.7,1.643L77.0174,77.0427l1.7-1.6451-.1419-1.069a27.1054,27.1054,0,0,1,.316-6.6231l.173-1.1121-.815-.7678c-4.942-4.687-12.366-6.803-17.723-7.7531-1.883-.335-3.636-.555-5.166-.7C61.5585,52.01,71.1685,45.2006,80,45.2006a15.235,15.235,0,0,1,5.928,1.156l1.559.657,1-1.3669a72.9935,72.9935,0,0,1,8.28-9.4451,49.8581,49.8581,0,0,1,35.22-14.416,47.8093,47.8093,0,0,1,11.3,1.2839,50.4934,50.4934,0,0,1-14.742,46.0381A73.1259,73.1259,0,0,1,118.7345,77.1076Z"/>
      <path className="cls-2" d="M69.081,85.5375a2.0262,2.0262,0,0,0,.1375-2.862,2.1009,2.1009,0,0,0-2.57-.1975,2.1225,2.1225,0,0,0-.318.2585l-5.465,5.2791a2.2076,2.2076,0,0,0-.69,1.5319,1.87,1.87,0,0,0,1.891,1.9249h0a2.2225,2.2225,0,0,0,1.521-.6309l5.471-5.2839Z"/>
      <path className="cls-2" d="M61.6685,95.9367a2.1,2.1,0,0,0-2.892.0659l-8.164,7.8858a2.2189,2.2189,0,0,0-.695,1.539h0a1.871,1.871,0,0,0,1.889,1.9219,2.24,2.24,0,0,0,1.527-.6357l8.164-7.8858a2.2111,2.2111,0,0,0,.695-1.541v-.0005h0A1.8707,1.8707,0,0,0,61.6685,95.9367Z"/>
      <path className="cls-2" d="M67.2705,98.7087a1.8789,1.8789,0,0,0,1.364.5679,2.222,2.222,0,0,0,1.521-.6353l6.4-6.1787a2.21,2.21,0,0,0,.689-1.541v-.001h0a1.8633,1.8633,0,0,0-.5221-1.3413,2.0933,2.0933,0,0,0-2.8889.06l-6.4,6.1792-.03.0269a2.0275,2.0275,0,0,0-.1329,2.8633Z"/>
      <path className="cls-2" d="M77.5885,100.32a2.1,2.1,0,0,0-2.894.062L67.7385,107.1l-.0276.0249a2.0249,2.0249,0,0,0-.1384,2.86,1.8735,1.8735,0,0,0,1.365.5708,2.2342,2.2342,0,0,0,1.526-.6347l6.956-6.7188a2.2153,2.2153,0,0,0,.69-1.539h0A1.8752,1.8752,0,0,0,77.5885,100.32Z"/>
      <path className="cls-2" d="M57.18,109.5143l-4.635,4.4761-.0257.023a2.021,2.021,0,0,0-.1333,2.855,1.8794,1.8794,0,0,0,1.368.5732,2.2171,2.2171,0,0,0,1.517-.6314l4.633-4.4765.0226-.02a2.0233,2.0233,0,0,0,.1364-2.8579A2.0921,2.0921,0,0,0,57.18,109.5143Z"/>
    </g>
  </g>
</svg>
