<svg id="Calque_1" data-name="Calque 1" xmlns="http://www.w3.org/2000/svg" width="160" height="160" viewBox="0 0 160 160">
  <defs>
    <style>
      .cls-1 {
        fill: #2755a1;
      }

      .cls-2 {
        fill: #fff;
      }
    </style>
  </defs>
  <g id="Groupe_983" data-name="Groupe 983">
    <circle id="Ellipse_152" data-name="Ellipse 152" class="cls-1" cx="106.9997" cy="80.0449" r="52.5"/>
    <g id="Groupe_937" data-name="Groupe 937">
      <path id="Tracé_781" data-name="Tracé 781" class="cls-2" d="M31.5468,67.1905a1.6315,1.6315,0,0,1-1.4225-.833l-2.9176-5.2009-.4089.0392h0a19.8445,19.8445,0,0,1-3.6227-.3268l-3.6772,4.7481a1.6319,1.6319,0,0,1-2.0244.4462l-5.5353-2.82a1.63,1.63,0,0,1-.8293-1.9l1.6557-5.8276A17.5057,17.5057,0,0,1,10.12,52.4581L4.25,53.1832a1.6241,1.6241,0,0,1-1.7407-1.1158L.581,46.1557a1.63,1.63,0,0,1,.7528-1.9279l5.2048-2.9223a17.7106,17.7106,0,0,1,.2808-4.0345L2.078,33.5957A1.6327,1.6327,0,0,1,1.63,31.5722l2.8155-5.5353a1.624,1.624,0,0,1,1.8993-.8311l5.8276,1.6536a18.0261,18.0261,0,0,1,3.0571-2.6463l-.7289-5.8639a1.6311,1.6311,0,0,1,1.1158-1.7426l5.9118-1.9259a1.624,1.624,0,0,1,1.9289.7527l2.9262,5.2077.4357-.0439h0a20.0644,20.0644,0,0,1,3.5949.3238l3.6772-4.7462a1.6242,1.6242,0,0,1,2.0235-.4462L41.65,18.5469a1.6344,1.6344,0,0,1,.8312,1.8992l-1.6557,5.8277a17.6775,17.6775,0,0,1,2.6464,3.0571l5.862-.727a1.6413,1.6413,0,0,1,1.7426,1.1139l1.926,5.9136a1.6366,1.6366,0,0,1-.7528,1.93l-5.2029,2.9224a17.4542,17.4542,0,0,1-.2808,4.0316l4.7433,3.6753a1.6241,1.6241,0,0,1,.4461,2.0235L49.133,55.7551a1.6241,1.6241,0,0,1-1.8992.8293l-5.8277-1.6576a17.4075,17.4075,0,0,1-3.0571,2.6483l.7318,5.8658a1.624,1.624,0,0,1-1.1158,1.7407l-5.9231,1.926A1.5764,1.5764,0,0,1,31.5468,67.1905Zm-4.3449-9.2669a3.2415,3.2415,0,0,1,2.85,1.6241l2.2651,4.0411,3.3725-1.0967-.5436-4.5981a3.1794,3.1794,0,0,1,1.36-3.0074,17.0769,17.0769,0,0,0,2.6128-2.23,3.2485,3.2485,0,0,1,3.166-.877l4.5571,1.2945L48.4423,49.93,44.73,47.0211a3.1992,3.1992,0,0,1-1.1732-3.081,16.63,16.63,0,0,0,.2628-3.4269,3.184,3.184,0,0,1,1.6317-2.8765l4.0345-2.2651L48.3908,32.003l-4.5982.5417c-.063.0066-.2962.02-.3611.02a3.201,3.201,0,0,1-2.65-1.3833A16.6381,16.6381,0,0,0,38.56,28.5771a3.2026,3.2026,0,0,1-.8731-3.1947l1.2888-4.5388-3.1451-1.5992-2.9128,3.7115a3.1976,3.1976,0,0,1-3.0705,1.1771,16.8056,16.8056,0,0,0-3.0065-.2742l-.4528.0066h-.0105a3.1936,3.1936,0,0,1-2.8326-1.624l-2.2756-4.0479-3.3657,1.0948.5436,4.6a3.1948,3.1948,0,0,1-1.3624,3.0074,17.0644,17.0644,0,0,0-2.62,2.2346,3.2633,3.2633,0,0,1-3.168.8684L6.7451,28.7081,5.1478,31.85l3.71,2.9139a3.2043,3.2043,0,0,1,1.1732,3.081A16.4227,16.4227,0,0,0,9.77,41.2634a3.2129,3.2129,0,0,1-1.63,2.8813L4.0969,46.4118,5.1936,49.78l4.6-.5445c.0649-.0067.3019-.021.3659-.021a3.2053,3.2053,0,0,1,2.6521,1.3967,16.7793,16.7793,0,0,0,2.2241,2.6024,3.2,3.2,0,0,1,.8665,3.1881l-1.2907,4.535,3.1441,1.6012L20.67,58.8267a3.2174,3.2174,0,0,1,3.0839-1.175,16.67,16.67,0,0,0,3.0208.2741Z"/>
      <path id="Tracé_782" data-name="Tracé 782" class="cls-2" d="M26.78,51.8618a10.958,10.958,0,1,1,9.7972-5.9958A10.977,10.977,0,0,1,26.78,51.8618Zm.0326-18.6762A7.7087,7.7087,0,0,0,23.3,47.7624a7.5958,7.5958,0,0,0,3.4794.836,7.7059,7.7059,0,0,0,3.5138-14.5721,7.5821,7.5821,0,0,0-3.486-.8359Z"/>
      <path id="Tracé_783" data-name="Tracé 783" class="cls-2" d="M109.8086,145.4015H25.0371a1.6326,1.6326,0,0,1-1.6318-1.6317v-79.19a1.6323,1.6323,0,0,1,3.2645,0V142.138h81.508V55.2094L91.1724,38.204H56.7147a1.6322,1.6322,0,1,1,0-3.2644H91.8469a1.6313,1.6313,0,0,1,1.1551.4776L110.9627,53.378a1.6238,1.6238,0,0,1,.4776,1.1531v89.23a1.6326,1.6326,0,0,1-1.6251,1.64Z"/>
      <path id="Tracé_784" data-name="Tracé 784" class="cls-2" d="M109.8085,56.1132H91.8478a1.6326,1.6326,0,0,1-1.6317-1.6318v-17.91a1.6318,1.6318,0,0,1,3.2635,0V52.85h16.3365a1.6318,1.6318,0,1,1,0,3.2635Z"/>
      <path id="Tracé_785" data-name="Tracé 785" class="cls-2" d="M120.9691,135.8347H109.2783a1.6318,1.6318,0,0,1,0-3.2635h10.06V26.6166H45.7664a1.6323,1.6323,0,1,1,0-3.2645h75.2027a1.6326,1.6326,0,0,1,1.6317,1.6318v109.219A1.6326,1.6326,0,0,1,120.9691,135.8347Z"/>
      <path id="Tracé_786" data-name="Tracé 786" class="cls-2" d="M58.6322,78.0385H45.2371a1.6322,1.6322,0,1,1,0-3.2644H58.6322a1.6322,1.6322,0,1,1,0,3.2644Z"/>
      <path id="Tracé_787" data-name="Tracé 787" class="cls-2" d="M55.33,89.2764H45.2342a1.6323,1.6323,0,0,1,0-3.2645H55.33a1.6323,1.6323,0,0,1,0,3.2645Z"/>
      <path id="Tracé_788" data-name="Tracé 788" class="cls-2" d="M64.3929,100.519H45.2342a1.6318,1.6318,0,0,1,0-3.2635H64.3929a1.6318,1.6318,0,0,1,0,3.2635Z"/>
      <path id="Tracé_789" data-name="Tracé 789" class="cls-2" d="M53.1541,111.7549H45.2333a1.6318,1.6318,0,1,1,0-3.2635h7.9208a1.6318,1.6318,0,1,1,0,3.2635Z"/>
      <path id="Tracé_790" data-name="Tracé 790" class="cls-2" d="M65.12,111.7549H55.6284a1.6318,1.6318,0,0,1,0-3.2635H65.12a1.6318,1.6318,0,0,1,0,3.2635Z"/>
      <path id="Tracé_791" data-name="Tracé 791" class="cls-2" d="M89.3467,78.0385H63.5684a1.6322,1.6322,0,1,1,0-3.2644H89.3438a1.6322,1.6322,0,0,1,0,3.2644Z"/>
      <path id="Tracé_792" data-name="Tracé 792" class="cls-2" d="M89.71,89.2764H58.8337a1.6323,1.6323,0,0,1,0-3.2645H89.71a1.6323,1.6323,0,0,1,0,3.2645Z"/>
      <path id="Tracé_793" data-name="Tracé 793" class="cls-2" d="M89.71,100.519H68.2593a1.6318,1.6318,0,1,1,0-3.2635H89.71a1.6318,1.6318,0,1,1,0,3.2635Z"/>
      <path id="Tracé_794" data-name="Tracé 794" class="cls-2" d="M64.3929,67.1608H45.2342a1.6318,1.6318,0,0,1,0-3.2635H64.3929a1.6318,1.6318,0,0,1,0,3.2635Z"/>
      <path id="Tracé_795" data-name="Tracé 795" class="cls-2" d="M89.71,67.1608H68.2593a1.6318,1.6318,0,1,1,0-3.2635H89.71a1.6318,1.6318,0,1,1,0,3.2635Z"/>
      <path id="Tracé_796" data-name="Tracé 796" class="cls-2" d="M89.71,111.8762H68.2593a1.6322,1.6322,0,1,1,0-3.2644H89.71a1.6322,1.6322,0,1,1,0,3.2644Z"/>
      <path id="Tracé_797" data-name="Tracé 797" class="cls-2" d="M89.71,123.1151H65.3587a1.6323,1.6323,0,0,1,0-3.2645H89.71a1.6323,1.6323,0,1,1,0,3.2645Z"/>
      <path id="Tracé_798" data-name="Tracé 798" class="cls-2" d="M60.7683,123.1151h-15.35a1.6323,1.6323,0,0,1,0-3.2645H60.7673a1.6323,1.6323,0,1,1,0,3.2645Z"/>
    </g>
  </g>
</svg>
