<svg xmlns="http://www.w3.org/2000/svg" width="132.836" height="148.953" viewBox="0 0 132.836 148.953">
  <g id="Grupo_980" data-name="Grupo 980" transform="translate(-894 -7117)">
    <circle id="Elipse_164" data-name="Elipse 164" cx="52.5" cy="52.5" r="52.5" transform="translate(908 7117)" fill="#95b71d"/>
    <g id="Grupo_950" data-name="Grupo 950" transform="translate(-1104 5417.673)">
      <path id="Caminho_802" data-name="Caminho 802" d="M2004.618,1768.554c-3.507-3.667-5.79-1.977-5.79-1.977a2.777,2.777,0,0,0,0,3.957l9.376,9.612a18.863,18.863,0,0,1,5.239,10.462,29.853,29.853,0,0,0,3.033,8.764l-3.308,3.957a10.025,10.025,0,0,0,1.378,13.851,9.493,9.493,0,0,0,6.067,2.262h1.1a9.718,9.718,0,0,0,3.583,6.784,9.493,9.493,0,0,0,6.068,2.262h1.1a9.72,9.72,0,0,0,3.586,6.784,9.48,9.48,0,0,0,6.065,2.262h1.1a9.138,9.138,0,0,0,3.584,6.5,9.269,9.269,0,0,0,12.135,0l1.1,1.132a10.385,10.385,0,0,0,7.169,3.11,9.589,9.589,0,0,0,6.343-2.545,10.242,10.242,0,0,0,3.032-5.937c.554,0,1.1.282,1.656.282a9.509,9.509,0,0,0,6.619-2.827,7.327,7.327,0,0,0,2.206-3.675,9.773,9.773,0,0,0,5.514,1.695,8.452,8.452,0,0,0,6.619-2.827,9.942,9.942,0,0,0,2.757-7.067h.275a9.58,9.58,0,0,0,6.344-2.545,9.288,9.288,0,0,0,3.034-7.067,9.5,9.5,0,0,0-2.759-7.067l-2.758-2.827,3.033-3.11a25.5,25.5,0,0,0,6.894-13.571,18.884,18.884,0,0,1,5.242-10.459l8.433-9.612c1.223-1.23,1.842-3.068-.162-4.525-2.942-2.141-5.514,1.415-5.514,1.415l-7.721,7.915a25.487,25.487,0,0,0-6.895,13.571,18.867,18.867,0,0,1-5.241,10.459l-3.032,3.11-27.3-27.14a13.647,13.647,0,0,0-7.72-3.957,16.258,16.258,0,0,0-9.652,1.412l-12.962,6.787a2.472,2.472,0,0,1-3.032-.568,1.771,1.771,0,0,1-.554-1.977,1.722,1.722,0,0,1,.829-1.7l15.995-14.984a21.691,21.691,0,0,1,8-5.087,21.244,21.244,0,0,1,13.238-.567l6.068,1.7h.551a2.028,2.028,0,0,0,2.481,0,22.251,22.251,0,0,0,6.619-4.807l7.445-7.632s3.383-3,1.656-5.372a2.623,2.623,0,0,0-3.861,0l-9.376,9.612a15.719,15.719,0,0,1-4.412,3.11l-6.068-1.695a27.514,27.514,0,0,0-16.546.847,27.154,27.154,0,0,0-9.651,6.219,27.861,27.861,0,0,0-3.861-1.13,18.1,18.1,0,0,1-10.2-5.372l-9.376-9.612a2.618,2.618,0,0,0-3.861,0s-2.582,1.954,1.931,5.937l7.445,7.632a24.487,24.487,0,0,0,13.238,7.07l-11.031,10.459a7.623,7.623,0,0,0-2.482,5.655,9.264,9.264,0,0,0,2.206,5.937,7.821,7.821,0,0,0,9.651,1.695l12.962-6.784a8.976,8.976,0,0,1,6.068-.847,8.478,8.478,0,0,1,4.964,2.544l34.2,33.925a4.316,4.316,0,0,1,1.1,3.11,5.093,5.093,0,0,1-1.656,2.544,4.221,4.221,0,0,1-5.79-.567l-28.405-28.835a2.62,2.62,0,0,0-3.859,0,2.777,2.777,0,0,0,0,3.957l28.4,29.12.276.282a4.17,4.17,0,0,1,0,5.937,3.932,3.932,0,0,1-5.79,0l-10.756-11.026-17.925-18.376a2.621,2.621,0,0,0-3.859,0,2.78,2.78,0,0,0,0,3.959l17.923,18.376,6.068,6.219a3.681,3.681,0,0,1,1.1,2.827,4.387,4.387,0,0,1-1.1,2.827,3.932,3.932,0,0,1-5.79,0l-4.966-5.09a8.921,8.921,0,0,0,.276-2.827,9.138,9.138,0,0,0-3.584-6.5,8.939,8.939,0,0,0-4.412-1.98,8.343,8.343,0,0,0,.275-3.675,9.135,9.135,0,0,0-3.583-6.5,10.5,10.5,0,0,0-5.517-2.262v-1.7a9.144,9.144,0,0,0-3.584-6.5,9.275,9.275,0,0,0-12.135,0,10.739,10.739,0,0,0-2.481-3.675,9.494,9.494,0,0,0-6.065-2.262,10.043,10.043,0,0,0-7.447,3.677l-1.1,1.412a17.518,17.518,0,0,1-1.38-5.089,25.488,25.488,0,0,0-6.894-13.569Zm64.254,72.656a4.222,4.222,0,0,1-5.792-.565l-1.1-1.13,4.963-6.5,2.206,2.26a4.323,4.323,0,0,1,1.1,3.11,4.546,4.546,0,0,1-1.38,2.827m-19.3-1.7a3.506,3.506,0,0,1-1.379-2.827,5.8,5.8,0,0,1,.826-3.109l8.273-10.179a4.383,4.383,0,0,1,3.033-1.413,3.789,3.789,0,0,1,2.482.847,3.507,3.507,0,0,1,1.379,2.827,5.806,5.806,0,0,1-.826,3.11l-8.274,10.179a3.843,3.843,0,0,1-5.515.565m-10.48-8.764a3.512,3.512,0,0,1-1.38-2.827,5.818,5.818,0,0,1,.829-3.11l11.031-13.854a4.377,4.377,0,0,1,3.033-1.413,3.793,3.793,0,0,1,2.482.847,3.514,3.514,0,0,1,1.379,2.827,5.793,5.793,0,0,1-.829,3.11l-11.031,13.854c-1.1,1.412-3.859,1.695-5.514.565m-10.478-9.047a4.1,4.1,0,0,1-.553-5.655l8.274-10.177,4.412-5.372a4.386,4.386,0,0,1,3.033-1.415,3.792,3.792,0,0,1,2.482.85,3.5,3.5,0,0,1,1.38,2.827,5.8,5.8,0,0,1-.829,3.11l-1.377,1.7-11.031,13.854a4.482,4.482,0,0,1-5.79.283m-10.48-8.764a4.1,4.1,0,0,1-.551-5.655l8.272-10.176a4.388,4.388,0,0,1,3.035-1.415,3.78,3.78,0,0,1,2.481.85,4.1,4.1,0,0,1,.551,5.653l-8.274,10.179a3.841,3.841,0,0,1-5.514.565" transform="translate(0 0)" fill="#2755a1"/>
    </g>
  </g>
</svg>
