<svg xmlns="http://www.w3.org/2000/svg" width="169" height="136.913" viewBox="0 0 169 136.913">
  <g id="Grupo_983" data-name="Grupo 983" transform="translate(-896 -3919)">
    <circle id="Elipse_152" data-name="Elipse 152" cx="52.5" cy="52.5" r="52.5" transform="translate(960 3935)" fill="#2755a1"/>
    <g id="Grupo_937" data-name="Grupo 937" transform="translate(-1009.758 2239.804)">
      <path id="Caminho_781" data-name="Caminho 781" d="M1938.257,1734.243a1.708,1.708,0,0,1-1.489-.872l-3.054-5.444-.428.041h0a20.778,20.778,0,0,1-3.792-.342l-3.849,4.97a1.708,1.708,0,0,1-2.119.467l-5.794-2.952a1.706,1.706,0,0,1-.868-1.989l1.733-6.1a18.318,18.318,0,0,1-2.768-3.2l-6.145.759a1.7,1.7,0,0,1-1.822-1.168l-2.018-6.188a1.706,1.706,0,0,1,.788-2.018l5.448-3.059a18.539,18.539,0,0,1,.294-4.223l-4.963-3.847a1.709,1.709,0,0,1-.469-2.118l2.947-5.794a1.7,1.7,0,0,1,1.988-.87l6.1,1.731a18.863,18.863,0,0,1,3.2-2.77l-.763-6.138a1.707,1.707,0,0,1,1.168-1.824l6.188-2.016a1.7,1.7,0,0,1,2.019.788l3.063,5.451.456-.046h0a21,21,0,0,1,3.763.339l3.849-4.968a1.7,1.7,0,0,1,2.118-.467l5.794,2.95a1.711,1.711,0,0,1,.87,1.988l-1.733,6.1a18.505,18.505,0,0,1,2.77,3.2l6.136-.761a1.718,1.718,0,0,1,1.824,1.166l2.016,6.19a1.713,1.713,0,0,1-.788,2.02l-5.446,3.059a18.267,18.267,0,0,1-.294,4.22l4.965,3.847a1.7,1.7,0,0,1,.467,2.118l-2.954,5.8a1.7,1.7,0,0,1-1.988.868l-6.1-1.735a18.216,18.216,0,0,1-3.2,2.772l.766,6.14a1.7,1.7,0,0,1-1.168,1.822l-6.2,2.016A1.652,1.652,0,0,1,1938.257,1734.243Zm-4.548-9.7a3.393,3.393,0,0,1,2.983,1.7l2.371,4.23,3.53-1.148-.569-4.813a3.328,3.328,0,0,1,1.423-3.148,17.88,17.88,0,0,0,2.735-2.334,3.4,3.4,0,0,1,3.314-.918l4.77,1.355,1.676-3.291-3.886-3.045a3.349,3.349,0,0,1-1.228-3.225,17.4,17.4,0,0,0,.275-3.587,3.333,3.333,0,0,1,1.708-3.011l4.223-2.371-1.146-3.526-4.813.567c-.066.007-.31.021-.378.021a3.351,3.351,0,0,1-2.774-1.448,17.418,17.418,0,0,0-2.325-2.726,3.352,3.352,0,0,1-.914-3.344l1.349-4.751-3.292-1.674-3.049,3.885a3.347,3.347,0,0,1-3.214,1.232,17.6,17.6,0,0,0-3.147-.287l-.474.007h-.011a3.343,3.343,0,0,1-2.965-1.7l-2.382-4.237-3.523,1.146.569,4.815a3.344,3.344,0,0,1-1.426,3.148,17.853,17.853,0,0,0-2.742,2.339,3.416,3.416,0,0,1-3.316.909l-4.765-1.351-1.672,3.289,3.883,3.05a3.354,3.354,0,0,1,1.228,3.225,17.187,17.187,0,0,0-.273,3.578,3.363,3.363,0,0,1-1.706,3.016l-4.232,2.373,1.148,3.526,4.815-.57c.068-.007.316-.022.383-.022a3.355,3.355,0,0,1,2.776,1.462,17.57,17.57,0,0,0,2.328,2.724,3.349,3.349,0,0,1,.907,3.337l-1.351,4.747,3.291,1.676,3.05-3.885a3.368,3.368,0,0,1,3.228-1.23,17.456,17.456,0,0,0,3.162.287Z" transform="translate(0 0)" fill="#fff"/>
      <path id="Caminho_782" data-name="Caminho 782" d="M1924.271,1709.2a11.49,11.49,0,0,1-10.218-16.693,11.445,11.445,0,0,1,10.251-6.273,11.491,11.491,0,0,1,10.222,16.69A11.455,11.455,0,0,1,1924.271,1709.2Zm.034-19.549a8.069,8.069,0,0,0-3.676,15.258,7.95,7.95,0,0,0,3.642.875,8.066,8.066,0,0,0,3.678-15.253A7.936,7.936,0,0,0,1924.3,1689.656Z" transform="translate(8.996 8.998)" fill="#fff"/>
      <path id="Caminho_783" data-name="Caminho 783" d="M2006.727,1804.168h-88.733a1.709,1.709,0,0,1-1.708-1.708v-82.891a1.708,1.708,0,1,1,3.417,0v81.183h85.317v-90.991l-17.8-17.8h-36.068a1.708,1.708,0,0,1,0-3.417h36.774a1.707,1.707,0,0,1,1.209.5l18.8,18.8a1.7,1.7,0,0,1,.5,1.207v93.4A1.709,1.709,0,0,1,2006.727,1804.168Z" transform="translate(13.449 11.941)" fill="#fff"/>
      <path id="Caminho_784" data-name="Caminho 784" d="M1967.5,1710.707h-18.8a1.709,1.709,0,0,1-1.708-1.708v-18.747a1.708,1.708,0,1,1,3.416,0v17.039h17.1a1.708,1.708,0,1,1,0,3.416Z" transform="translate(52.676 11.941)" fill="#fff"/>
      <path id="Caminho_785" data-name="Caminho 785" d="M2006.237,1800.957H1994a1.708,1.708,0,0,1,0-3.416h10.53V1686.635H1927.52a1.708,1.708,0,0,1,0-3.417h78.717a1.709,1.709,0,0,1,1.708,1.708v114.323A1.709,1.709,0,0,1,2006.237,1800.957Z" transform="translate(25.621 5.138)" fill="#fff"/>
      <path id="Caminho_786" data-name="Caminho 786" d="M1941.3,1710.267h-14.021a1.708,1.708,0,1,1,0-3.417H1941.3a1.708,1.708,0,0,1,0,3.417Z" transform="translate(25.308 35.331)" fill="#fff"/>
      <path id="Caminho_787" data-name="Caminho 787" d="M1937.844,1715.432h-10.568a1.708,1.708,0,1,1,0-3.417h10.568a1.708,1.708,0,1,1,0,3.417Z" transform="translate(25.308 41.929)" fill="#fff"/>
      <path id="Caminho_788" data-name="Caminho 788" d="M1947.33,1720.6h-20.054a1.708,1.708,0,1,1,0-3.416h20.054a1.708,1.708,0,0,1,0,3.416Z" transform="translate(25.308 48.529)" fill="#fff"/>
      <path id="Caminho_789" data-name="Caminho 789" d="M1935.566,1725.762h-8.291a1.708,1.708,0,1,1,0-3.416h8.291a1.708,1.708,0,0,1,0,3.416Z" transform="translate(25.308 55.128)" fill="#fff"/>
      <path id="Caminho_790" data-name="Caminho 790" d="M1941.988,1725.762h-9.935a1.708,1.708,0,0,1,0-3.416h9.935a1.708,1.708,0,1,1,0,3.416Z" transform="translate(31.411 55.128)" fill="#fff"/>
      <path id="Caminho_791" data-name="Caminho 791" d="M1962.683,1710.267H1935.7a1.708,1.708,0,1,1,0-3.417h26.98a1.708,1.708,0,0,1,0,3.417Z" transform="translate(36.075 35.331)" fill="#fff"/>
      <path id="Caminho_792" data-name="Caminho 792" d="M1965.845,1715.432h-32.319a1.708,1.708,0,0,1,0-3.417h32.319a1.708,1.708,0,0,1,0,3.417Z" transform="translate(33.293 41.929)" fill="#fff"/>
      <path id="Caminho_793" data-name="Caminho 793" d="M1960.31,1720.6h-22.453a1.708,1.708,0,0,1,0-3.416h22.453a1.708,1.708,0,0,1,0,3.416Z" transform="translate(38.828 48.529)" fill="#fff"/>
      <path id="Caminho_794" data-name="Caminho 794" d="M1947.33,1705.268h-20.054a1.708,1.708,0,1,1,0-3.416h20.054a1.708,1.708,0,0,1,0,3.416Z" transform="translate(25.308 28.944)" fill="#fff"/>
      <path id="Caminho_795" data-name="Caminho 795" d="M1960.31,1705.268h-22.453a1.708,1.708,0,0,1,0-3.416h22.453a1.708,1.708,0,0,1,0,3.416Z" transform="translate(38.828 28.944)" fill="#fff"/>
      <path id="Caminho_796" data-name="Caminho 796" d="M1960.31,1725.818h-22.453a1.708,1.708,0,0,1,0-3.417h22.453a1.708,1.708,0,0,1,0,3.417Z" transform="translate(38.828 55.199)" fill="#fff"/>
      <path id="Caminho_797" data-name="Caminho 797" d="M1962.013,1730.983h-25.489a1.708,1.708,0,0,1,0-3.417h25.489a1.708,1.708,0,0,1,0,3.417Z" transform="translate(37.125 61.798)" fill="#fff"/>
      <path id="Caminho_798" data-name="Caminho 798" d="M1943.427,1730.983H1927.36a1.708,1.708,0,1,1,0-3.417h16.066a1.708,1.708,0,0,1,0,3.417Z" transform="translate(25.417 61.798)" fill="#fff"/>
    </g>
  </g>
</svg>
