<svg xmlns="http://www.w3.org/2000/svg" width="144" height="121.518" viewBox="0 0 144 121.518">
  <g id="Grupo_984" data-name="Grupo 984" transform="translate(-875 -3248.482)">
    <circle id="Elipse_145" data-name="Elipse 145" cx="52.5" cy="52.5" r="52.5" transform="translate(875 3265)" fill="#95b71d"/>
    <g id="Grupo_929" data-name="Grupo 929" transform="translate(-618 1271.686)">
      <g id="Grupo_927" data-name="Grupo 927" transform="translate(1519 1976.796)">
        <path id="Caminho_755" data-name="Caminho 755" d="M1598.4,2056.233c-17.218,17.218-44.83,17.624-61.551.9s-16.313-44.33.906-61.548c15.888-15.885,40.767-17.677,57.871-4.166l-2.7,3.378c-15.427-12.185-37.867-10.569-52.2,3.761-15.532,15.531-15.9,40.436-.816,55.515s39.989,14.719,55.518-.814c14.329-14.329,15.946-36.769,3.76-52.2l3.378-2.7c13.513,17.1,11.721,41.983-4.167,57.871" transform="translate(-1509.096 -1966.893)" fill="#2755a1"/>
        <path id="Caminho_756" data-name="Caminho 756" d="M1577.71,2035.531c-11.093,11.094-28.884,11.355-39.658.583s-10.507-28.562.586-39.656c9.7-9.7,24.731-11.3,35.741-3.816l-2.469,3.553a23.921,23.921,0,0,0-30.3,3.236c-9.408,9.405-9.63,24.49-.5,33.623s24.22,8.913,33.625-.495a23.925,23.925,0,0,0,3.236-30.3l3.549-2.469c7.489,11.011,5.886,26.043-3.814,35.742" transform="translate(-1499.193 -1956.977)" fill="#2755a1"/>
        <path id="Caminho_757" data-name="Caminho 757" d="M1619.09,2076.924c-23.343,23.343-60.776,23.9-83.444,1.228s-22.115-60.1,1.228-83.444a60.689,60.689,0,0,1,39.677-17.827,57.315,57.315,0,0,1,40.2,13.315l-2.805,3.295c-21.268-17.938-53.816-16.1-74.1,4.188-21.657,21.657-22.168,56.383-1.139,77.412s55.754,20.518,77.411-1.139c20.284-20.284,22.126-52.835,4.189-74.1l3.294-2.805a57.3,57.3,0,0,1,13.313,40.2,60.674,60.674,0,0,1-17.824,39.68" transform="translate(-1519 -1976.796)" fill="#2755a1"/>
        <path id="Caminho_758" data-name="Caminho 758" d="M1557.019,2014.576a12.379,12.379,0,1,1-17.5-17.5,12.971,12.971,0,0,1,6-3.411l.93,4.133a8.614,8.614,0,0,0-3.958,2.247,8.176,8.176,0,1,0,11.557,11.558,8.586,8.586,0,0,0,2.247-3.959l4.133.928a12.977,12.977,0,0,1-3.408,6" transform="translate(-1489.288 -1946.808)" fill="#2755a1"/>
        <path id="Caminho_759" data-name="Caminho 759" d="M1564.518,1988.473l2.589-2.592a2.669,2.669,0,0,0,.792-1.852,2.515,2.515,0,0,0-2.564-2.569,2.654,2.654,0,0,0-1.858.792l-2.591,2.589Zm5.561.381-5.65,5.649-9.574-9.574,5.65-5.649a7.026,7.026,0,0,1,4.891-2.086,6.634,6.634,0,0,1,6.769,6.771,7.04,7.04,0,0,1-2.086,4.889" transform="translate(-1455.265 -1976.094)" fill="#2755a1"/>
      </g>
      <path id="Caminho_760" data-name="Caminho 760" d="M1554.158,2003.2l-15.26,5.949,5.949-15.26,3.966,1.448-2.489,6.383,6.386-2.486Z" transform="translate(35.37 30.381)" fill="#2755a1"/>
      <g id="Grupo_928" data-name="Grupo 928" transform="translate(1580.069 1983.454)">
        <path id="Caminho_761" data-name="Caminho 761" d="M1549.765,2024.317l36.347-36.344-3.633-3.633-36.345,36.347Zm40.847-34.9-39.406,39.405a2.136,2.136,0,0,1-3.017.045l-6.6-6.6a2.135,2.135,0,0,1,.044-3.017l39.405-39.405a2.135,2.135,0,0,1,3.016-.044l6.6,6.6a2.133,2.133,0,0,1-.044,3.016" transform="translate(-1540.986 -1979.193)" fill="#2755a1"/>
      </g>
    </g>
  </g>
</svg>
