<svg xmlns="http://www.w3.org/2000/svg" xmlns:xlink="http://www.w3.org/1999/xlink" width="260" height="222" viewBox="0 0 260 222">
  <defs>
    <clipPath id="clip-path">
      <rect id="Ret칙ngulo_1178" data-name="Ret칙ngulo 1178" width="260" height="222" transform="translate(0 140)" fill="none"/>
    </clipPath>
  </defs>
  <g id="Grupo_de_m치scara_339" data-name="Grupo de m치scara 339" transform="translate(0 -140)" clip-path="url(#clip-path)">
    <g id="Caminho_817" data-name="Caminho 817" transform="translate(-259.613 -157.915)" fill="none">
      <path d="M259.806,0C403.293,0,519.612,116.319,519.612,259.806S403.293,519.612,259.806,519.612,0,403.293,0,259.806,116.319,0,259.806,0Z" stroke="none"/>
      <path d="M 259.8062438964844 85.99993896484375 C 163.9691772460938 85.99993896484375 85.99993896484375 163.9691772460938 85.99993896484375 259.8062438964844 C 85.99993896484375 355.643310546875 163.9691772460938 433.612548828125 259.8062438964844 433.612548828125 C 355.643310546875 433.612548828125 433.612548828125 355.643310546875 433.612548828125 259.8062438964844 C 433.612548828125 163.9691772460938 355.643310546875 85.99993896484375 259.8062438964844 85.99993896484375 M 259.8062438964844 -6.103515625e-05 C 403.2933349609375 -6.103515625e-05 519.612548828125 116.3191528320312 519.612548828125 259.8062438964844 C 519.612548828125 403.2933349609375 403.2933349609375 519.612548828125 259.8062438964844 519.612548828125 C 116.3191528320312 519.612548828125 -6.103515625e-05 403.2933349609375 -6.103515625e-05 259.8062438964844 C -6.103515625e-05 116.3191528320312 116.3191528320312 -6.103515625e-05 259.8062438964844 -6.103515625e-05 Z" stroke="none" fill="#2755a1"/>
    </g>
  </g>
</svg>
