<svg xmlns="http://www.w3.org/2000/svg" width="136.094" height="122.05" viewBox="0 0 136.094 122.05">
  <g id="Grupo_1007" data-name="Grupo 1007" transform="translate(-139.763 -265.334)">
    <g id="Groupe_983" data-name="Groupe 983">
      <circle id="Ellipse_152" data-name="Ellipse 152" cx="52.5" cy="52.5" r="52.5" transform="translate(170.857 269.527)" fill="#95b71d"/>
      <g id="Groupe_937" data-name="Groupe 937">
        <path id="Tracé_783" data-name="Tracé 783" d="M226.166,387.384H141.394a1.632,1.632,0,0,1-1.631-1.632V278.912a1.632,1.632,0,0,1,3.264,0V384.12h81.508V297.191L207.53,280.186H141.42a1.632,1.632,0,1,1,0-3.264H208.2a1.629,1.629,0,0,1,1.155.477L227.32,295.36a1.63,1.63,0,0,1,.478,1.153v89.23a1.634,1.634,0,0,1-1.625,1.641Z" fill="#fff"/>
        <path id="Tracé_784" data-name="Tracé 784" d="M226.166,298.1H208.205a1.632,1.632,0,0,1-1.632-1.631v-17.91a1.632,1.632,0,0,1,3.264,0v16.278h16.336a1.632,1.632,0,1,1,0,3.263Z" fill="#fff"/>
        <path id="Tracé_785" data-name="Tracé 785" d="M237.326,377.817h-11.69c-.9,0-.631-.731-.631-1.632s-.271-1.632.631-1.632H235.7V268.6h-77.94a1.632,1.632,0,0,1,0-3.265h79.57a1.633,1.633,0,0,1,1.632,1.632V376.185A1.633,1.633,0,0,1,237.326,377.817Z" fill="#fff"/>
        <path id="Tracé_786" data-name="Tracé 786" d="M174.989,320.021h-13.4a1.632,1.632,0,0,1,0-3.265h13.4a1.632,1.632,0,1,1,0,3.265Z" fill="#fff"/>
        <path id="Tracé_787" data-name="Tracé 787" d="M169.686,331.258h-8.094a1.632,1.632,0,1,1,0-3.264h8.094a1.632,1.632,0,1,1,0,3.264Z" fill="#fff"/>
        <path id="Tracé_788" data-name="Tracé 788" d="M180.75,342.5H161.592a1.632,1.632,0,1,1,0-3.263H180.75a1.632,1.632,0,1,1,0,3.263Z" fill="#fff"/>
        <path id="Tracé_789" data-name="Tracé 789" d="M179.281,353.737h-17.69a1.632,1.632,0,1,1,0-3.264h17.69a1.632,1.632,0,0,1,0,3.264Z" fill="#fff"/>
        <path id="Tracé_791" data-name="Tracé 791" d="M205.7,320.021H179.926a1.632,1.632,0,0,1,0-3.265H205.7a1.632,1.632,0,0,1,0,3.265Z" fill="#fff"/>
        <path id="Tracé_792" data-name="Tracé 792" d="M206.067,331.258H175.191a1.632,1.632,0,0,1,0-3.264h30.876a1.632,1.632,0,1,1,0,3.264Z" fill="#fff"/>
        <path id="Tracé_793" data-name="Tracé 793" d="M206.067,342.5h-21.45a1.632,1.632,0,1,1,0-3.263h21.45a1.632,1.632,0,1,1,0,3.263Z" fill="#fff"/>
        <path id="Tracé_794" data-name="Tracé 794" d="M180.75,309.143H161.592a1.632,1.632,0,0,1,0-3.264H180.75a1.632,1.632,0,1,1,0,3.264Z" fill="#fff"/>
        <path id="Tracé_795" data-name="Tracé 795" d="M206.067,309.143h-21.45a1.632,1.632,0,1,1,0-3.264h21.45a1.632,1.632,0,1,1,0,3.264Z" fill="#fff"/>
        <path id="Tracé_796" data-name="Tracé 796" d="M206.067,353.858h-21.45a1.632,1.632,0,1,1,0-3.264h21.45a1.632,1.632,0,1,1,0,3.264Z" fill="#fff"/>
        <path id="Tracé_797" data-name="Tracé 797" d="M206.067,365.1H181.716a1.632,1.632,0,1,1,0-3.264h24.351a1.632,1.632,0,1,1,0,3.264Z" fill="#fff"/>
        <path id="Tracé_798" data-name="Tracé 798" d="M177.126,365.1h-15.35a1.632,1.632,0,1,1,0-3.264h15.349a1.632,1.632,0,1,1,0,3.264Z" fill="#fff"/>
      </g>
    </g>
    <path id="Tracé_794-2" data-name="Tracé 794" d="M156.135,277.636V267.121a1.632,1.632,0,0,1,3.264,0v10.515a1.632,1.632,0,1,1-3.264,0Z" fill="#fff"/>
  </g>
</svg>
