<svg xmlns="http://www.w3.org/2000/svg" width="129.64" height="144.869" viewBox="0 0 129.64 144.869">
  <g id="Grupo_1027" data-name="Grupo 1027" transform="translate(-544.5 -293.519)">
    <path id="União_1" data-name="União 1" d="M-6830.163,227.868a16.59,16.59,0,0,1-16.521-16.665,16.593,16.593,0,0,1,16.667-16.521,16.522,16.522,0,0,1,8.618,2.455l12.815-15.389q-5.719-8.634-5.719-20.849,0-16.6,9.621-26.855,1.036-1.105,2.146-2.092l-20.242-18.618a16.524,16.524,0,0,1-10.7,3.856A16.6,16.6,0,0,1-6850,100.521,16.6,16.6,0,0,1-6833.333,84a16.6,16.6,0,0,1,16.521,16.667,16.5,16.5,0,0,1-2.053,7.927l21.4,19.686a35.842,35.842,0,0,1,18.266-4.491,33.654,33.654,0,0,1,17.917,4.649l10.888-13.331a16.343,16.343,0,0,1-4.159-11.082A16.6,16.6,0,0,1-6737.884,87.5a16.6,16.6,0,0,1,16.523,16.665,16.593,16.593,0,0,1-16.666,16.523,13.261,13.261,0,0,1-5.852-.928l-10.952,13.325a35.866,35.866,0,0,0-3.648-2.708,31.538,31.538,0,0,1,3.527,3.223q9.253,9.815,9.252,25.878,0,16.5-9.595,26.612t-25.023,10.107q-14.776,0-24.178-9.45l-12.359,14.52a16.527,16.527,0,0,1,3.357,10.076,16.6,16.6,0,0,1-16.593,16.523C-6830.113,227.869-6830.138,227.869-6830.163,227.868Zm37.346-84.279q-4.884,6.225-4.884,16.48,0,10.4,4.884,16.456a15.643,15.643,0,0,0,12.792,6.055,15.8,15.8,0,0,0,12.94-5.885q4.783-5.882,4.785-16.332,0-10.89-4.638-16.944a15.124,15.124,0,0,0-12.7-6.055A15.876,15.876,0,0,0-6792.817,143.589Z" transform="translate(7395 210.019)" fill="#95b71d" stroke="rgba(0,0,0,0)" stroke-miterlimit="10" stroke-width="1"/>
  </g>
</svg>
