<svg id="Calque_1" data-name="Calque 1" xmlns="http://www.w3.org/2000/svg" width="150" height="150" viewBox="0 0 150 150">
  <defs>
    <style>
      .cls-1 {
        fill: #95b71d;
      }

      .cls-2 {
        fill: #fff;
      }
    </style>
  </defs>
  <g id="Groupe_832" data-name="Groupe 832">
    <circle id="Ellipse_64" data-name="Ellipse 64" class="cls-1" cx="53.5453" cy="72.5634" r="52.5"/>
    <g>
      <path class="cls-2" d="M98.33,83.6885c-4.8076-2.76-11.2246-4.28-18.0693-4.28-6.8516,0-13.2686,1.5205-18.0694,4.28-5.7148,3.2949-8.7353,8.043-8.7353,13.7334v40.6416h53.61V97.4219C107.0666,91.7246,104.0461,86.9756,98.33,83.6885ZM57.259,134.2539l.0039-36.832c0-5.374,3.7129-8.6367,6.8272-10.4268,4.2324-2.4326,9.9746-3.7724,16.1709-3.7724,6.2021,0,11.9443,1.34,16.1709,3.7724,3.1142,1.79,6.8271,5.0528,6.8271,10.4268v36.832Z"/>
      <path class="cls-2" d="M80.2131,74.918h.1123a14.634,14.634,0,0,0,13.668-20.1826,14.7943,14.7943,0,1,0-13.78,20.1826Zm.0674-3.3057h0l.0019-.5H80.27a10.9873,10.9873,0,0,1-.0147-21.9746,11.13,11.13,0,0,1,7.9727,3.4932,11.08,11.08,0,0,1-.4805,15.6513,11.1329,11.1329,0,0,1-7.4229,2.83Zm-.0674,2.803h0l0,.0027Z"/>
      <path class="cls-2" d="M145.7141,24.8565a24.6362,24.6362,0,0,0-21.7617-12.92,26.589,26.589,0,0,0-3.2256.2032,24.6068,24.6068,0,0,0-20.43,15.789,25.345,25.345,0,0,0,3.73,24.9131l-2.47,12.4609L114.33,60.3936a25.0082,25.0082,0,0,0,9.3955,1.8056,25.7006,25.7006,0,0,0,3.11-.19,25.12,25.12,0,0,0,16.4834-9.041,24.6938,24.6938,0,0,0,5.5927-14.2A25.4693,25.4693,0,0,0,145.7141,24.8565ZM108.12,51.7813l-.6084-.7012a21.3682,21.3682,0,0,1-3.6611-21.7832,20.8661,20.8661,0,0,1,17.333-13.3809,22.6018,22.6018,0,0,1,2.7481-.17A21.4822,21.4822,0,0,1,137.11,20.4736a21.2587,21.2587,0,0,1-10.7344,37.7618,22.2737,22.2737,0,0,1-2.6963.1621,21.1383,21.1383,0,0,1-8.55-1.795l-.7187-.3173-7.7764,2.9912Z"/>
      <path class="cls-2" d="M115.593,53.5635l.082-.4453c.1612-.8809.5537-1.2823.8506-1.2823.2822,0,.65.36.8359,1.1651l.1045.4541.46-.0723a4.6252,4.6252,0,0,0,2.3691-1.1211l.3409-.3047-.2725-.3672c-.501-.6728-.5459-1.1767-.4316-1.4042a.57.57,0,0,1,.538-.2452,2.498,2.498,0,0,1,1.1817.3741l.4648.2578.2285-.48a11.459,11.459,0,0,0,.8116-2.3086l.122-.52-.5253-.0879c-.89-.15-1.3633-.5313-1.3711-.8321-.0069-.2754.3828-.66,1.2548-.8525l.55-.1211-.1855-.5322a11.4814,11.4814,0,0,0-.7643-1.688,13.3131,13.3131,0,0,0,2.4274.7309l.5049.1.084-.5088c.3144-1.9073,1.1738-2.7608,1.8857-2.7608.8184,0,1.5879.999,1.9619,2.5449l.126.5166.5078-.1572a13.3417,13.3417,0,0,0,3.8691-1.9228l.4024-.29-.2862-.4043c-.8281-1.1748-1.1142-2.28-.7646-2.955a1.2834,1.2834,0,0,1,1.2139-.6045,4.6091,4.6091,0,0,1,2.1484.6748l.4326.2412.2461-.43a13.3066,13.3066,0,0,0,1.5069-4.0518l.1025-.5205-.5264-.07c-1.6054-.2158-2.68-.8916-2.7363-1.7226-.0566-.8506.9424-1.6846,2.5469-2.125l.497-.1368-.0483-.1562.92-.6914-1.1489.0019a13.3308,13.3308,0,0,0-1.7974-3.5146l-.2969-.4131-.4082.3037a4.1353,4.1353,0,0,1-2.2919.9561,1.1543,1.1543,0,0,1-1.0538-.5391c-.3906-.6641-.2138-1.7939.4717-3.0215l.2383-.4258-.42-.249a10.4993,10.4993,0,0,0-4.085-1.3906l-.4873-.0606-.0683.4873c-.2247,1.6094-.93,2.6485-1.7959,2.6485-.8272,0-1.6338-.9658-2.0547-2.4619l-.13-.459-.4639.1074a10.47,10.47,0,0,0-3.916,1.8106l-.4023.2988.2988.4013c.8642,1.1592,1.1709,2.27.8193,2.97-.4238.8427-1.875.8213-3.4131-.09l-.4306-.2558-.2549.4306a10.4719,10.4719,0,0,0-1.39,4.086l-.0576.4726.47.0811c1.5888.2715,2.6357,1,2.6679,1.8545.03.834-.9316,1.6162-2.4512,1.9931l-.4775.1182.11.48a10.4833,10.4833,0,0,0,1.81,3.916l.291.3916.3985-.2812a4.314,4.314,0,0,1,2.3213-.9092,1.2114,1.2114,0,0,1,1.1133.5576c.3681.6465.165,1.7451-.543,2.9385l-.26.4365.4414.2529c.1422.0813.29.15.4348.2256-.6775.4121-1.3062.5007-1.4992.17-.1446-.2451-.1455-.7822.2832-1.5576l.25-.4512-.459-.2353a9.0518,9.0518,0,0,0-2.3359-.8223l-.5352-.1084-.0615.542c-.1.88-.4483,1.3408-.7412,1.3408-.2852,0-.7022-.3994-.9463-1.2773l-.1426-.5137-.5029.1748a11.4854,11.4854,0,0,0-2.211,1.0459l-.4531.2784.3057.4355c.5273.7529.5654,1.3057.4375,1.5508a.4954.4954,0,0,1-.4844.23,2.186,2.186,0,0,1-1.0889-.3672l-.4052-.2393-.2637.3907a5.13,5.13,0,0,0-.86,2.4453l-.04.4834.4814.0547c.89.1005,1.3174.4423,1.34.7167.0234.3-.4072.73-1.2764.9727l-.4424.1231.085.4511a5.1163,5.1163,0,0,0,1.1084,2.3408l.3037.3614.3779-.2823a2.013,2.013,0,0,1,1.1553-.4873.4384.4384,0,0,1,.416.2c.1309.2315.1231.7286-.2959,1.4307l-.2412.4053.3906.2646a5.1173,5.1173,0,0,0,2.4463.86Zm14.5059-18.93-.0293.0391a4.4135,4.4135,0,0,1-6.169.5722,4.4885,4.4885,0,0,1-.4189-.3906,4.3453,4.3453,0,0,1,2.9238-7.3525l.1748-.0039a4.4376,4.4376,0,0,1,3.5186,7.1357ZM114.04,46.3291a2.254,2.254,0,1,1,4.0117,1.6719,2.4124,2.4124,0,0,1-3.3057.2441,2.1886,2.1886,0,0,1-.2519-.2529A2.2317,2.2317,0,0,1,114.04,46.3291Z"/>
    </g>
  </g>
</svg>
