<svg id="Calque_1" data-name="Calque 1" xmlns="http://www.w3.org/2000/svg" xmlns:xlink="http://www.w3.org/1999/xlink" width="160" height="160" viewBox="0 0 160 160">
  <defs>
    <style>
      .cls-1 {
        fill: none;
      }

      .cls-2 {
        fill: #95b71d;
      }

      .cls-3 {
        clip-path: url(#clip-path);
      }

      .cls-4 {
        fill: #2755a1;
      }
    </style>
    <clipPath id="clip-path">
      <rect class="cls-1" x="7.525" y="25.1425" width="144.95" height="131.715"/>
    </clipPath>
  </defs>
  <g id="Groupe_985" data-name="Groupe 985">
    <circle id="Ellipse_106" data-name="Ellipse 106" class="cls-2" cx="80.025" cy="55.6425" r="52.5"/>
    <g id="Groupe_925" data-name="Groupe 925">
      <g class="cls-3">
        <g id="Groupe_924" data-name="Groupe 924">
          <g id="Groupe_923" data-name="Groupe 923">
            <path id="Tracé_753" data-name="Tracé 753" class="cls-4" d="M152.187,153.9775,96.697,65.2a2.6429,2.6429,0,0,0-.7-.725v-37.5a1.8827,1.8827,0,0,0-3.764,0V28.86H73.852a4.207,4.207,0,0,0-4.206,4.2v1a.44.44,0,0,1-.439.439H48.941a1.882,1.882,0,0,0-1.885,1.879v.001a1.8873,1.8873,0,0,0,.553,1.334l9.961,9.966-9.963,9.966a1.881,1.881,0,0,0-.0009,2.66l.0006.0006a1.885,1.885,0,0,0,1.3323.5513H69.207a4.208,4.208,0,0,0,4.2-4.2v-1.446H92.236v9.265a2.6426,2.6426,0,0,0-.7.723l-25.654,41.048L54.345,87.7845a3.148,3.148,0,0,0-4.3836-.777l-.0014.001a3.1033,3.1033,0,0,0-.776.776l-41.37,66.193a1.8761,1.8761,0,0,0,.5875,2.5872l.0045.0028a1.8821,1.8821,0,0,0,1,.289H150.591a1.878,1.878,0,0,0,1.6-2.879M69.644,56.6525a.4431.4431,0,0,1-.441.439H53.488l8.082-8.086a1.88,1.88,0,0,0,0-2.658h0l-8.082-8.086H69.202a4.3407,4.3407,0,0,0,.441-.022Zm3.764-5.21V33.0615a.4389.4389,0,0,1,.439-.439H92.236v18.826Zm20.71,16.73,16.435,26.289-7.019,7.019-8.086-8.086a1.881,1.881,0,0,0-2.66-.0009l-.0009.0009-8.089,8.086-7.016-7.019ZM51.764,90.7615l11.727,18.767-4.669,4.669-5.726-5.729a1.8881,1.8881,0,0,0-2.663,0l-5.729,5.729-4.669-4.666Zm-38.959,62.331,25.183-40.29,5.394,5.387a1.8849,1.8849,0,0,0,2.661,0l5.727-5.728,5.729,5.731a1.9006,1.9006,0,0,0,.662.42l-7.991,12.775a1.8842,1.8842,0,1,0,3.097,2.147c.032-.046.061-.095.09-.146l14.123-22.587,8.157-13.054,7.733,7.74a1.881,1.881,0,0,0,2.66.0009l.0006-.0006L94.12,97.4015l8.086,8.086a1.881,1.881,0,0,0,2.66.0009l.0006-.0006,7.7393-7.7393,34.589,55.344Z"/>
          </g>
        </g>
      </g>
    </g>
  </g>
</svg>
