<svg id="Calque_1" data-name="Calque 1" xmlns="http://www.w3.org/2000/svg" width="160" height="160" viewBox="0 0 160 160">
  <defs>
    <style>
      .cls-1 {
        fill: #95b71d;
      }

      .cls-2 {
        fill: #2755a1;
      }
    </style>
  </defs>
  <g id="Groupe_984" data-name="Groupe 984">
    <circle id="Ellipse_145" data-name="Ellipse 145" class="cls-1" cx="60.4937" cy="88.2656" r="52.5"/>
    <g id="Groupe_929" data-name="Groupe 929">
      <g id="Groupe_927" data-name="Groupe 927">
        <path id="Tracé_755" data-name="Tracé 755" class="cls-2" d="M123.2978,108.5876c-17.218,17.218-44.83,17.624-61.551.9s-16.313-44.33.906-61.548c15.8879-15.885,40.7669-17.677,57.8709-4.166l-2.7,3.3781c-15.427-12.1851-37.867-10.569-52.2,3.7609-15.5319,15.5311-15.9,40.4361-.816,55.5149s39.989,14.719,55.5179-.8139c14.329-14.329,15.9461-36.7691,3.76-52.2l3.3781-2.7c13.5129,17.1,11.7209,41.983-4.167,57.8711"/>
        <path id="Tracé_756" data-name="Tracé 756" class="cls-2" d="M112.5107,97.8016c-11.093,11.094-28.8841,11.355-39.658.583s-10.5069-28.562.5861-39.656c9.7-9.7,24.7309-11.3,35.7409-3.8161l-2.469,3.553a23.921,23.921,0,0,0-30.3,3.236c-9.408,9.405-9.63,24.49-.5,33.623s24.22,8.913,33.625-.495a23.925,23.925,0,0,0,3.236-30.3l3.5489-2.469c7.489,11.011,5.886,26.043-3.814,35.7419"/>
        <path id="Tracé_757" data-name="Tracé 757" class="cls-2" d="M134.0837,119.3757c-23.343,23.343-60.776,23.9-83.444,1.228s-22.115-60.1,1.228-83.444a60.69,60.69,0,0,1,39.677-17.827,57.3148,57.3148,0,0,1,40.2,13.315l-2.8051,3.295c-21.2679-17.938-53.816-16.1-74.1,4.188-21.657,21.657-22.168,56.3829-1.1391,77.412s55.754,20.518,77.411-1.1389c20.2841-20.284,22.126-52.835,4.189-74.1l3.2939-2.8051a57.3,57.3,0,0,1,13.313,40.2,60.6746,60.6746,0,0,1-17.8239,39.68"/>
        <path id="Tracé_758" data-name="Tracé 758" class="cls-2" d="M101.7248,87.0157A12.379,12.379,0,1,1,83.7459,69.9946q.2329-.246.4789-.4789a12.97,12.97,0,0,1,6-3.411l.93,4.133a8.6149,8.6149,0,0,0-3.958,2.247A8.176,8.176,0,1,0,98.41,84.3865q.177-.1668.3438-.3438a8.5864,8.5864,0,0,0,2.247-3.959l4.133.928a12.9779,12.9779,0,0,1-3.4079,6"/>
        <path id="Tracé_759" data-name="Tracé 759" class="cls-2" d="M143.2466,31.6267l2.589-2.5921a2.6684,2.6684,0,0,0,.792-1.852,2.5151,2.5151,0,0,0-2.46-2.5689c-.0347-.0007-.0694-.0008-.104,0a2.6544,2.6544,0,0,0-1.8581.792l-2.5909,2.589Zm5.5611.3809-5.65,5.6491-9.5739-9.574,5.65-5.649a7.0259,7.0259,0,0,1,4.891-2.0861,6.6338,6.6338,0,0,1,6.769,6.4961q.003.1376,0,.2749a7.04,7.04,0,0,1-2.086,4.889"/>
      </g>
      <path id="Tracé_760" data-name="Tracé 760" class="cls-2" d="M104.5217,76.0326l-15.26,5.9489,5.9489-15.26,3.966,1.448-2.489,6.3831,6.3859-2.486Z"/>
      <g id="Groupe_928" data-name="Groupe 928">
        <path id="Tracé_761" data-name="Tracé 761" class="cls-2" d="M103.8417,71.03l36.3471-36.344-3.6331-3.633L100.2107,67.4Zm40.8471-34.9-39.406,39.405a2.136,2.136,0,0,1-3.017.0451l-6.6-6.6a2.135,2.135,0,0,1,.044-3.017l39.405-39.405a2.1351,2.1351,0,0,1,3.016-.044l6.6,6.6a2.133,2.133,0,0,1-.044,3.016"/>
      </g>
    </g>
  </g>
</svg>
