<svg xmlns="http://www.w3.org/2000/svg" width="129.05" height="120.5" viewBox="0 0 129.05 120.5">
  <g id="Grupo_833" data-name="Grupo 833" transform="translate(-1093.604 -1395.5)">
    <circle id="Elipse_65" data-name="Elipse 65" cx="52.5" cy="52.5" r="52.5" transform="translate(1103 1411)" fill="#95b71d"/>
    <g id="Grupo_763" data-name="Grupo 763" transform="translate(473.095 582.661)">
      <circle id="Elipse_10" data-name="Elipse 10" cx="9.049" cy="9.049" r="9.049" transform="translate(630.964 815.348)" fill="none" stroke="#fff" stroke-miterlimit="10" stroke-width="5"/>
      <path id="Caminho_67" data-name="Caminho 67" d="M770.81,913.278,767.3,925.947H752.486" transform="translate(-91.932 -66.716)" fill="none" stroke="#fff" stroke-miterlimit="10" stroke-width="5"/>
      <path id="Caminho_68" data-name="Caminho 68" d="M749.411,971.862h25.5v32.85" transform="translate(-89.744 -104.407)" fill="none" stroke="#fff" stroke-miterlimit="10" stroke-width="5"/>
      <path id="Caminho_69" data-name="Caminho 69" d="M678.867,943.05" transform="translate(-39.542 -85.903)" fill="none" stroke="#fff" stroke-miterlimit="10" stroke-width="5"/>
      <path id="Caminho_70" data-name="Caminho 70" d="M666.345,921.119a4.1,4.1,0,0,0,4.3,4.44h10.993l1.025.007c2.458,0,3.884,2.022,3.884,4.48v17.376c0,2.458-1.463,4.469-3.921,4.469h0a4.451,4.451,0,0,1-4.432-4.469V933.853H656.271c-4.977,0-3.846-5.316-3.846-5.316l2.135-31.072a5.548,5.548,0,0,1,5.532-5.532h0a5.543,5.543,0,0,1,4.741,2.691l4.512,7.429a3.1,3.1,0,0,0,2.745,1.656l12.889.921" transform="translate(-20.646 -52.372)" fill="none" stroke="#fff" stroke-miterlimit="10" stroke-width="5"/>
      <circle id="Elipse_11" data-name="Elipse 11" cx="9.049" cy="9.049" r="9.049" transform="translate(721.284 815.339)" fill="none" stroke="#fff" stroke-miterlimit="10" stroke-width="5"/>
      <path id="Caminho_71" data-name="Caminho 71" d="M859.7,913.248l3.506,12.669h14.818" transform="translate(-168.23 -66.695)" fill="none" stroke="#fff" stroke-miterlimit="10" stroke-width="5"/>
      <line id="Linha_4" data-name="Linha 4" x1="25.501" transform="translate(685.179 867.446)" fill="none" stroke="#fff" stroke-miterlimit="10" stroke-width="5"/>
      <path id="Caminho_72" data-name="Caminho 72" d="M996.865,943.019" transform="translate(-265.843 -85.881)" fill="none" stroke="#fff" stroke-miterlimit="10" stroke-width="5"/>
      <path id="Caminho_73" data-name="Caminho 73" d="M924.909,921.089c0,3.16-4.052,4.428-4.289,4.44.113.005-.009,0-.009,0H909.618l-1.025.007c-2.458,0-3.884,2.023-3.884,4.48v17.376c0,2.458,1.463,4.469,3.921,4.469h0a4.451,4.451,0,0,0,4.432-4.469v-13.57h21.921c4.977,0,3.846-7.316,3.846-7.316l-2.135-29.072a5.548,5.548,0,0,0-5.532-5.532h0a5.543,5.543,0,0,0-4.741,2.691l-4.512,7.429a3.1,3.1,0,0,1-2.745,1.656l-12.889.921" transform="translate(-200.261 -52.351)" fill="none" stroke="#fff" stroke-miterlimit="10" stroke-width="5"/>
      <g id="Grupo_24" data-name="Grupo 24" transform="translate(725.009 857.36)">
        <line id="Linha_5" data-name="Linha 5" y2="46.873" transform="translate(22.05 -2)" fill="none" stroke="#fff" stroke-miterlimit="10" stroke-width="5"/>
        <path id="Caminho_74" data-name="Caminho 74" d="M976.015,1054.213v-9.1l.009-.945a2.6,2.6,0,0,1,2.6-2.6l.2,0h19.243" transform="translate(-976.015 -1009.374)" fill="none" stroke="#fff" stroke-miterlimit="10" stroke-width="5"/>
      </g>
      <g id="Grupo_26" data-name="Grupo 26" transform="translate(623.009 855.36)">
        <line id="Linha_5-2" data-name="Linha 5" y2="46.873" transform="translate(0)" fill="none" stroke="#fff" stroke-miterlimit="10" stroke-width="5"/>
        <path id="Caminho_74-2" data-name="Caminho 74" d="M998.065,1054.213v-9.1l-.009-.945a2.6,2.6,0,0,0-2.6-2.6l-.2,0H976.015" transform="translate(-976.015 -1007.374)" fill="none" stroke="#fff" stroke-miterlimit="10" stroke-width="5"/>
      </g>
    </g>
  </g>
</svg>
