<svg id="Calque_1" data-name="Calque 1" xmlns="http://www.w3.org/2000/svg" width="160" height="160" viewBox="0 0 160 160">
  <defs>
    <style>
      .cls-1 {
        fill: #95b71d;
      }

      .cls-2 {
        fill: #fff;
      }
    </style>
  </defs>
  <g id="Groupe_986" data-name="Groupe 986">
    <ellipse id="Ellipse_148" data-name="Ellipse 148" class="cls-1" cx="80" cy="55.0395" rx="52.5" ry="51.676"/>
    <g id="Groupe_931" data-name="Groupe 931">
      <g id="Groupe_933" data-name="Groupe 933">
        <path id="Tracé_774" data-name="Tracé 774" class="cls-2" d="M78.786,137.0944l-1.651-1.99c-8.286-9.9671-35.323-43.8-35.323-60.5661,0-20.081,16.6-36.4189,37-36.4189s37,16.338,37,36.4189c0,19.1391-33.9,58.91-35.343,60.5921Zm.026-94.705c-18.01,0-32.662,14.422-32.662,32.1491,0,11.795,16.5811,36.2,32.6851,55.858,13.718-16.375,32.639-43.32,32.639-55.858C111.474,56.8124,96.8191,42.3894,78.812,42.3894Z"/>
        <path id="Tracé_775" data-name="Tracé 775" class="cls-2" d="M78.812,91.81a17.2225,17.2225,0,1,1,.37.003Q78.9971,91.8139,78.812,91.81Zm0-30.276a12.9661,12.9661,0,1,0,.28-.0022Q78.9522,61.5319,78.812,61.5344Z"/>
      </g>
      <path id="Tracé_776" data-name="Tracé 776" class="cls-2" d="M79.0181,156.6365c-27.6551,0-48.5141-8.1761-48.5141-19.022,0-7.692,10.3371-14.1429,27.653-17.2581a2.182,2.182,0,0,1,2.525,1.72,2.1409,2.1409,0,0,1-1.7328,2.483l-.0112.002c-14.4139,2.588-24.095,7.834-24.095,13.052,0,6.978,18.143,14.752,44.1761,14.752s44.182-7.7741,44.182-14.752c0-5.218-9.683-10.465-24.1-13.052a2.1431,2.1431,0,0,1-1.7487-2.4753l.0011-.0065a2.2008,2.2008,0,0,1,2.5257-1.7232c17.316,3.115,27.655,9.565,27.655,17.2581C127.5341,148.46,106.6751,156.6365,79.0181,156.6365Z"/>
    </g>
  </g>
</svg>
