<svg id="Calque_1" data-name="Calque 1" xmlns="http://www.w3.org/2000/svg" width="160" height="160" viewBox="0 0 160 160">
  <defs>
    <style>
      .cls-1 {
        fill: #95b71d;
      }

      .cls-2 {
        fill: #2755a1;
      }
    </style>
  </defs>
  <g id="Groupe_980" data-name="Groupe 980">
    <circle id="Ellipse_164" data-name="Ellipse 164" class="cls-1" cx="80.0893" cy="58.0256" r="52.5"/>
    <g id="Groupe_950" data-name="Groupe 950">
      <path id="Tracé_802" data-name="Tracé 802" class="cls-2" d="M20.2074,74.7524c-3.507-3.667-5.79-1.9771-5.79-1.9771a2.7772,2.7772,0,0,0-.03,3.9272l.03.03,9.376,9.612a18.8622,18.8622,0,0,1,5.239,10.4621,29.852,29.852,0,0,0,3.033,8.764l-3.308,3.957a10.025,10.025,0,0,0,1.3781,13.851,9.4927,9.4927,0,0,0,6.067,2.2619h1.1a9.7178,9.7178,0,0,0,3.5831,6.7841,9.4927,9.4927,0,0,0,6.0679,2.262h1.1a9.72,9.72,0,0,0,3.5861,6.784,9.48,9.48,0,0,0,6.0649,2.262h1.1a9.1382,9.1382,0,0,0,3.584,6.5,9.2692,9.2692,0,0,0,12.1349,0l1.1,1.1319a10.384,10.384,0,0,0,7.1689,3.11,9.5891,9.5891,0,0,0,6.343-2.545,10.2416,10.2416,0,0,0,3.032-5.937c.554,0,1.1.282,1.656.282a9.5089,9.5089,0,0,0,6.6189-2.8271,7.3278,7.3278,0,0,0,2.2061-3.675,9.7727,9.7727,0,0,0,5.5139,1.6949,8.4519,8.4519,0,0,0,6.6189-2.827,9.9427,9.9427,0,0,0,2.7571-7.067h.2749a9.58,9.58,0,0,0,6.344-2.5451,9.2878,9.2878,0,0,0,3.0339-7.067,9.5009,9.5009,0,0,0-2.759-7.067l-2.7581-2.827,3.033-3.11a25.5009,25.5009,0,0,0,6.894-13.5711,18.8851,18.8851,0,0,1,5.2419-10.4589l8.4332-9.6121c1.2229-1.23,1.842-3.068-.1622-4.525-2.9419-2.141-5.5139,1.415-5.5139,1.415L131.8789,80.12a25.4863,25.4863,0,0,0-6.895,13.571,18.8679,18.8679,0,0,1-5.241,10.459l-3.032,3.11-27.3-27.14a13.6467,13.6467,0,0,0-7.72-3.9571,16.2583,16.2583,0,0,0-9.6521,1.412l-12.962,6.787a2.472,2.472,0,0,1-3.032-.568,1.7711,1.7711,0,0,1-.554-1.977,1.7222,1.7222,0,0,1,.829-1.7L72.3149,65.133a21.692,21.692,0,0,1,8-5.087,21.2444,21.2444,0,0,1,13.2381-.5671l6.0681,1.7h.551a2.0282,2.0282,0,0,0,2.481,0,22.2556,22.2556,0,0,0,6.6188-4.807l7.4451-7.632s3.3831-3,1.656-5.3719a2.6231,2.6231,0,0,0-3.7063-.1548q-.0806.0741-.1548.1548L105.136,52.98a15.7184,15.7184,0,0,1-4.4121,3.11l-6.0682-1.6949a27.5142,27.5142,0,0,0-16.5459.847,27.1523,27.1523,0,0,0-9.6508,6.219,27.8617,27.8617,0,0,0-3.8611-1.13,18.1,18.1,0,0,1-10.2-5.3719l-9.376-9.6121a2.6179,2.6179,0,0,0-3.6988-.1621q-.0846.0774-.1621.1621s-2.582,1.954,1.931,5.937l7.445,7.632a24.4875,24.4875,0,0,0,13.2379,7.07L52.7439,76.445A7.6234,7.6234,0,0,0,50.2618,82.1a9.2633,9.2633,0,0,0,2.2061,5.937,7.8208,7.8208,0,0,0,9.651,1.695l12.9619-6.7841a8.9762,8.9762,0,0,1,6.0681-.847,8.4779,8.4779,0,0,1,4.9641,2.5439l34.2,33.9251a4.3168,4.3168,0,0,1,1.1,3.11,5.0923,5.0923,0,0,1-1.656,2.5439,4.221,4.221,0,0,1-5.79-.567L85.562,94.8218a2.62,2.62,0,0,0-3.7019-.1569q-.0818.075-.157.1569a2.777,2.777,0,0,0-.03,3.9272l.03.03,28.4,29.12.2759.2819a4.17,4.17,0,0,1,.04,5.8971l-.04.04a3.932,3.932,0,0,1-5.5557.2342q-.1223-.1121-.2344-.2342l-10.7561-11.026-17.925-18.376a2.6209,2.6209,0,0,0-3.7034-.1555q-.0808.0744-.1555.1555a2.78,2.78,0,0,0-.0276,3.9314l.0276.0276,17.9231,18.3759L96.04,133.27a3.6807,3.6807,0,0,1,1.1,2.8271,4.3865,4.3865,0,0,1-1.1,2.827,3.9319,3.9319,0,0,1-5.5557.2342q-.1223-.112-.2343-.2342l-4.9661-5.09a8.92,8.92,0,0,0,.2759-2.827,9.1371,9.1371,0,0,0-3.584-6.5,8.9377,8.9377,0,0,0-4.4121-1.98,8.344,8.344,0,0,0,.2749-3.675,9.1355,9.1355,0,0,0-3.583-6.5,10.5,10.5,0,0,0-5.5171-2.262v-1.7a9.1437,9.1437,0,0,0-3.584-6.5,9.2747,9.2747,0,0,0-12.135,0,10.7393,10.7393,0,0,0-2.481-3.6751,9.4937,9.4937,0,0,0-6.0649-2.262,10.0431,10.0431,0,0,0-7.447,3.677l-1.1,1.412a17.517,17.517,0,0,1-1.38-5.089,25.4879,25.4879,0,0,0-6.894-13.5689Zm64.254,72.656a4.222,4.222,0,0,1-5.792-.565l-1.1-1.13,4.9629-6.5,2.2061,2.26a4.3229,4.3229,0,0,1,1.1,3.11,4.5464,4.5464,0,0,1-1.38,2.8271m-19.3-1.7a3.5055,3.5055,0,0,1-1.3789-2.827,5.8,5.8,0,0,1,.8259-3.109l8.273-10.179a4.383,4.383,0,0,1,3.033-1.4129,3.7893,3.7893,0,0,1,2.4819.847,3.5073,3.5073,0,0,1,1.3789,2.827,5.8068,5.8068,0,0,1-.8259,3.11l-8.274,10.179a3.843,3.843,0,0,1-5.3942.6632q-.0612-.048-.1207-.0983m-10.48-8.764a3.5121,3.5121,0,0,1-1.38-2.8271,5.8188,5.8188,0,0,1,.8289-3.11l11.031-13.854a4.3769,4.3769,0,0,1,3.033-1.413,3.7935,3.7935,0,0,1,2.4819.847,3.5142,3.5142,0,0,1,1.3789,2.8271,5.7917,5.7917,0,0,1-.8291,3.11l-11.031,13.854c-1.1,1.4119-3.859,1.6949-5.514.5649m-10.478-9.047a4.1,4.1,0,0,1-.553-5.655l8.274-10.177,4.412-5.372a4.3859,4.3859,0,0,1,3.033-1.415,3.7921,3.7921,0,0,1,2.482.85,3.4994,3.4994,0,0,1,1.38,2.827,5.8,5.8,0,0,1-.8289,3.11l-1.377,1.7L49.99,127.62a4.482,4.482,0,0,1-5.79.283m-10.48-8.7641a4.1,4.1,0,0,1-.551-5.655l8.2719-10.176a4.3877,4.3877,0,0,1,3.0351-1.4151,3.78,3.78,0,0,1,2.4809.85,4.1,4.1,0,0,1,.5511,5.653l-8.2741,10.1789a3.841,3.841,0,0,1-5.3911.6651q-.0624-.0489-.1229-.1"/>
    </g>
  </g>
</svg>
