<svg id="Calque_1" data-name="Calque 1" xmlns="http://www.w3.org/2000/svg" xmlns:xlink="http://www.w3.org/1999/xlink" width="150" height="150" viewBox="0 0 150 150">
  <defs>
    <style>
      .cls-1 {
        fill: none;
      }

      .cls-2 {
        fill: #95b71d;
      }

      .cls-3 {
        clip-path: url(#clip-path);
      }

      .cls-4 {
        fill: #2755a1;
      }
    </style>
    <clipPath id="clip-path">
      <rect class="cls-1" x="7.5612" y="15.6782" width="134.8775" height="122.5622"/>
    </clipPath>
  </defs>
  <g>
    <g id="Groupe_836" data-name="Groupe 836">
      <circle id="Ellipse_108" data-name="Ellipse 108" class="cls-2" cx="75" cy="74.8359" r="52.5"/>
    </g>
    <g id="Groupe_925" data-name="Groupe 925">
      <g class="cls-3">
        <g id="Groupe_924" data-name="Groupe 924">
          <g id="Groupe_923" data-name="Groupe 923">
            <g>
              <path id="Tracé_753" data-name="Tracé 753" class="cls-4" d="M142.1708,135.5606,90.5367,52.9517a2.4575,2.4575,0,0,0-.6513-.6746V17.3829a1.7519,1.7519,0,0,0-3.5025,0v1.754H69.2792a3.9147,3.9147,0,0,0-3.9137,3.9082v.93a.4094.4094,0,0,1-.4085.4085H46.0993a1.7511,1.7511,0,0,0-1.754,1.7484v.001a1.7558,1.7558,0,0,0,.5145,1.2413l9.2688,9.2734L44.858,45.9217a1.75,1.75,0,0,0-.0008,2.4753l.0008.0008a1.7539,1.7539,0,0,0,1.2394.5127h18.86a3.9155,3.9155,0,0,0,3.9081-3.9081V43.6568H86.3857V52.278a2.4594,2.4594,0,0,0-.6513.6728L61.863,91.1464,51.1277,73.9673a2.9293,2.9293,0,0,0-4.079-.723l-.0012.0009a2.8876,2.8876,0,0,0-.7221.7221L7.83,135.5606a1.7456,1.7456,0,0,0,.5468,2.4074l.0041.0026a1.75,1.75,0,0,0,.9305.2689H140.6857a1.7475,1.7475,0,0,0,1.4888-2.6789M65.3636,44.9986a.4121.4121,0,0,1-.41.4085H50.33l7.52-7.5241a1.7494,1.7494,0,0,0,0-2.4733h0l-7.52-7.5241h14.622a4.0264,4.0264,0,0,0,.41-.02Zm3.5025-4.8479V23.0469a.4084.4084,0,0,1,.4085-.4084H86.3857V40.1563ZM88.137,55.7181,103.43,80.18l-6.5313,6.5313-7.5241-7.5241a1.75,1.75,0,0,0-2.4753-.0008l0,.0005-7.5272,7.5244L72.8431,80.18ZM48.7261,76.7374,59.6382,94.2l-4.3446,4.3446L49.9655,93.214a1.7568,1.7568,0,0,0-2.4779,0l-5.3309,5.3309-4.3446-4.3418Zm-36.2518,58,23.4331-37.49,5.0192,5.0127a1.7539,1.7539,0,0,0,2.476,0l5.3291-5.33,5.3309,5.3328a1.7681,1.7681,0,0,0,.616.3908L47.2429,114.54a1.7533,1.7533,0,0,0,2.8818,1.9978c.03-.0428.0567-.0884.0837-.1359L63.35,95.3849,70.94,83.238,78.1358,90.44a1.75,1.75,0,0,0,2.4753.0008l.0008-.0008,7.5269-7.5241L95.6629,90.44a1.75,1.75,0,0,0,2.4753.0008l.0008-.0008,7.2012-7.2012,32.1855,51.4982Z"/>
              <path class="cls-4" d="M140.6971,138.3674H9.311a1.8743,1.8743,0,0,1-.998-.2887l-.0269-.02a1.83,1.83,0,0,1-.8062-1.1528,1.8565,1.8565,0,0,1,.2428-1.4135L46.2161,73.9a3.04,3.04,0,0,1,.7043-.7213v-.0009l.0549-.038a3.0572,3.0572,0,0,1,4.2577.7552l10.63,17.01L85.6257,52.8832a2.594,2.594,0,0,1,.6323-.6713V43.7845H68.9927v1.2178a4.05,4.05,0,0,1-4.0358,4.0358h-18.86a1.87,1.87,0,0,1-1.33-.5494l-.0379-.04a1.88,1.88,0,0,1,.0369-2.6183l9.1816-9.1825-9.18-9.1836a1.8941,1.8941,0,0,1-.5514-1.3306,1.8792,1.8792,0,0,1,1.878-1.8771H64.9569a.2823.2823,0,0,0,.2807-.2807v-.9311a4.05,4.05,0,0,1,4.0418-4.0358H86.255V17.3826a1.8827,1.8827,0,0,1,1.8261-1.8291l.054-.001a1.8788,1.8788,0,0,1,1.8781,1.8261V52.2109a2.5707,2.5707,0,0,1,.63.6713l51.636,82.61-.2178.1358L90.4277,53.02a2.2977,2.2977,0,0,0-.6153-.6383l-.055-.038V17.3826a1.6232,1.6232,0,0,0-1.6223-1.5743l-.046.001a1.6253,1.6253,0,0,0-1.5784,1.5773v1.8781H69.2794a3.7941,3.7941,0,0,0-3.7861,3.78v.9311a.5382.5382,0,0,1-.5354.5364H46.0962a1.6235,1.6235,0,0,0-1.6233,1.62,1.6358,1.6358,0,0,0,.4775,1.1508L54.31,36.6479l-9.3614,9.3643a1.6208,1.6208,0,0,0,0,2.2937l.032.033a1.6164,1.6164,0,0,0,1.1168.4435h18.86a3.7941,3.7941,0,0,0,3.78-3.78V43.5288H86.5137v8.8159l-.0549.038a2.3057,2.3057,0,0,0-.6174.6383L61.8631,91.3877l-.1089-.1739L51.0192,74.0355a2.8,2.8,0,0,0-3.8431-.7233v.06l-.0879.0009a2.7492,2.7492,0,0,0-.6583.6674L7.9394,135.6282a1.6171,1.6171,0,0,0,.5055,2.2317l.027.02a1.623,1.623,0,0,0,.8391.2318H140.6961a1.6207,1.6207,0,0,0,1.3706-2.4835l.2158-.1358a1.8752,1.8752,0,0,1-1.5854,2.875Zm-2.941-3.5024H12.244l.1219-.1958L35.8847,97.0428l5.1318,5.1258a1.6292,1.6292,0,0,0,2.2966,0l5.4184-5.4195,5.4225,5.4225a1.6,1.6,0,0,0,.5694.3616l.1468.055-7.5182,12.02a1.6254,1.6254,0,1,0,2.6682,1.8571c.026-.039.051-.0809.0759-.1259L70.9168,83.0342l7.31,7.3165A1.6219,1.6219,0,0,0,80.52,90.35l.039-.0369,7.58-7.5773.0909.09L95.7543,90.35a1.6195,1.6195,0,0,0,2.2926,0l.039-.0369,7.2775-7.2776.0859.1359Zm-125.0506-.2557H137.2946L105.3174,83.4428,98.19,90.5685a1.8789,1.8789,0,0,1-2.6174-.037l-7.4333-7.4343-7.4763,7.4713a1.88,1.88,0,0,1-2.6184-.037l-7.0817-7.09L50.3169,116.47c-.026.0459-.0549.0939-.0859.14a1.8813,1.8813,0,1,1-3.0928-2.1428l7.3524-11.754a1.8854,1.8854,0,0,1-.5164-.3586l-5.2427-5.2436-5.2376,5.24a1.8874,1.8874,0,0,1-2.6573,0l-4.9059-4.9ZM55.2938,98.7261l-5.4194-5.4224a1.6347,1.6347,0,0,0-2.2967.001l-5.4214,5.4214-4.5074-4.5044.054-.0869L48.7265,76.4959l.1089.1739L59.8,94.22l-.071.072ZM37.9746,94.1838l4.1817,4.1807,5.2406-5.2416a1.8921,1.8921,0,0,1,2.6583,0l5.2386,5.2416,4.1817-4.1827L48.7265,76.9794Zm58.9245-7.2915-.0909-.09-7.5243-7.5243a1.6245,1.6245,0,0,0-2.2567-.038v.0739l-.0759.001-7.58,7.5773L72.68,80.1981l.0539-.0859L88.1371,55.4775l.1089.1728,15.3472,24.5478-.0719.073Zm-8.763-8.3465h.001a1.8736,1.8736,0,0,1,1.3286.55l7.4334,7.4343,6.3684-6.3684L88.1371,55.959,73.0056,80.1622l6.3655,6.3684,7.4373-7.4353.005-.004.033-.032A1.8615,1.8615,0,0,1,88.1361,78.5458ZM64.9539,45.5347H50.0212l7.7391-7.742a1.6208,1.6208,0,0,0,0-2.2917l-7.7391-7.743H64.9519c.1338,0,.2637-.007.3976-.02l.1408-.015.001,17.2763A.5423.5423,0,0,1,64.9539,45.5347ZM50.6386,45.279H64.9529a.286.286,0,0,0,.2827-.2807l-.001-16.9946c-.0949.007-.1878.01-.2827.01H50.6386L57.9421,35.32a1.8789,1.8789,0,0,1,0,2.6533Zm35.8751-4.9949-17.7757-.006V23.0468a.5372.5372,0,0,1,.5364-.5364H86.5137Zm-17.52-.2617,17.2643.006V22.7661H69.2744a.281.281,0,0,0-.2807.2807Z"/>
            </g>
          </g>
        </g>
      </g>
    </g>
  </g>
</svg>
