<svg xmlns="http://www.w3.org/2000/svg" width="128.227" height="142.869" viewBox="0 0 128.227 142.869">
  <g id="Grupo_834" data-name="Grupo 834" transform="translate(-1473 -1389)">
    <circle id="Elipse_66" data-name="Elipse 66" cx="52.5" cy="52.5" r="52.5" transform="translate(1473 1389)" fill="#95b71d"/>
    <g id="Grupo_764" data-name="Grupo 764" transform="translate(1479.081 1260.569)">
      <path id="Caminho_48" data-name="Caminho 48" d="M59.976,147.948a1.1,1.1,0,0,0-1.113,1.127v14.792a1.1,1.1,0,0,0,1.113,1.126H84.444a1.1,1.1,0,0,0,1.112-1.126V149.075a1.1,1.1,0,0,0-1.112-1.127Zm24.468,20.427H59.976a4.421,4.421,0,0,1-4.449-4.508V149.075a4.421,4.421,0,0,1,4.449-4.508H84.444a4.422,4.422,0,0,1,4.449,4.508v14.792a4.511,4.511,0,0,1-4.449,4.508" transform="translate(-10.977)" fill="#fff" stroke="#fff" stroke-width="1"/>
      <path id="Caminho_49" data-name="Caminho 49" d="M82.515,187.864H68.89a3.106,3.106,0,0,1-3.058-3.1v-7.608a1.668,1.668,0,1,1,3.336,0v7.467H82.376v-7.467a1.668,1.668,0,1,1,3.336,0v7.608a3.137,3.137,0,0,1-3.2,3.1" transform="translate(-14.47 -10.473)" fill="#fff" stroke="#fff" stroke-width="1"/>
      <path id="Caminho_50" data-name="Caminho 50" d="M79.7,202.521a1.617,1.617,0,0,1-1.669-1.69v-7.608a1.669,1.669,0,1,1,3.337,0v7.608a1.7,1.7,0,0,1-1.669,1.69" transform="translate(-18.604 -15.918)" fill="#fff" stroke="#fff" stroke-width="1"/>
      <path id="Caminho_51" data-name="Caminho 51" d="M24.851,210.794a1.526,1.526,0,0,1-1.39-.846,1.74,1.74,0,0,1,.556-2.254l19.741-11.552a1.691,1.691,0,0,1,2.224.564,1.74,1.74,0,0,1-.556,2.254L25.685,210.653a1.744,1.744,0,0,1-.834.141" transform="translate(-0.042 -17.413)" fill="#fff" stroke="#fff" stroke-width="1"/>
      <path id="Caminho_52" data-name="Caminho 52" d="M80.791,232.44a1.526,1.526,0,0,1-1.39-.846,1.74,1.74,0,0,1,.556-2.254l34.478-20.286L97.2,198.911a1.532,1.532,0,0,1-.556-2.254,1.492,1.492,0,0,1,2.224-.564l19.742,11.552a1.607,1.607,0,0,1,0,2.817l-36.98,21.695a1.959,1.959,0,0,1-.834.282" transform="translate(-19.002 -17.365)" fill="#fff" stroke="#fff" stroke-width="1"/>
      <path id="Caminho_53" data-name="Caminho 53" d="M61.789,281.759,23.14,259.219V214.983a1.668,1.668,0,1,1,3.336,0v42.263l35.312,20.568L97.1,257.246V214.983a1.668,1.668,0,1,1,3.336,0v44.235Z" transform="translate(0 -23.293)" fill="#fff" stroke="#fff" stroke-width="1"/>
      <path id="Caminho_54" data-name="Caminho 54" d="M80.749,278.23a1.617,1.617,0,0,1-1.669-1.69V247.8a1.669,1.669,0,1,1,3.337,0V276.54a1.7,1.7,0,0,1-1.669,1.69" transform="translate(-18.96 -34.416)" fill="#fff" stroke="#fff" stroke-width="1"/>
      <path id="Caminho_55" data-name="Caminho 55" d="M123.639,319.694a1.959,1.959,0,0,1-.834-.282l-9.036-5.213a1.533,1.533,0,0,1-.557-2.254,1.493,1.493,0,0,1,2.224-.563l9.037,5.213a1.682,1.682,0,0,1-.834,3.1" transform="translate(-30.43 -56.44)" fill="#fff" stroke="#fff" stroke-width="1"/>
      <path id="Caminho_56" data-name="Caminho 56" d="M142.356,308.826a1.96,1.96,0,0,1-.834-.282l-9.036-5.213a1.533,1.533,0,0,1-.557-2.254,1.493,1.493,0,0,1,2.225-.563l9.037,5.212a1.682,1.682,0,0,1-.834,3.1" transform="translate(-36.774 -52.756)" fill="#fff" stroke="#fff" stroke-width="1"/>
      <path id="Caminho_57" data-name="Caminho 57" d="M104.922,319.793l-9.871-5.776a1.534,1.534,0,0,1-.556-2.254,1.493,1.493,0,0,1,2.224-.563l8.2,4.789,33.644-19.722-6.534-3.8a1.533,1.533,0,0,1-.556-2.254,1.492,1.492,0,0,1,2.224-.563l11.539,6.761Z" transform="translate(-24.086 -49.072)" fill="#fff" stroke="#fff" stroke-width="1"/>
    </g>
  </g>
</svg>
