<svg xmlns="http://www.w3.org/2000/svg" width="147.914" height="126.126" viewBox="0 0 147.914 126.126">
  <g id="Grupo_832" data-name="Grupo 832" transform="translate(-694 -1380.874)">
    <circle id="Elipse_64" data-name="Elipse 64" cx="52.5" cy="52.5" r="52.5" transform="translate(694 1389)" fill="#95b71d"/>
    <g id="Grupo_762" data-name="Grupo 762" transform="translate(53.629 462.792)">
      <g id="Grupo_21" data-name="Grupo 21" transform="translate(693.282 918.582)">
        <path id="Caminho_58" data-name="Caminho 58" d="M749.892,1081.087h-52.61v-40.141c0-5.507,2.934-10.1,8.485-13.3,4.727-2.718,11.055-4.214,17.819-4.214s13.094,1.5,17.821,4.214c5.551,3.192,8.485,7.789,8.485,13.3Zm-51.7-.912H748.98v-39.229c0-5.162-2.776-9.485-8.028-12.505-4.591-2.638-10.758-4.092-17.366-4.092s-12.774,1.454-17.365,4.092c-5.252,3.02-8.028,7.344-8.028,12.505Zm49.8-.985H699.178v-38.244c0-6.052,4.1-9.676,7.536-11.651,4.441-2.554,10.434-3.961,16.873-3.961s12.433,1.407,16.875,3.961c3.438,1.976,7.536,5.6,7.536,11.651Zm-47.907-.912h47v-37.332c0-5.614-3.849-9.005-7.079-10.861-4.3-2.475-10.137-3.839-16.42-3.839s-12.113,1.364-16.419,3.839c-3.23,1.856-7.078,5.246-7.078,10.861Z" transform="translate(-697.282 -955.961)" fill="#2755a1" stroke="#2755a1" stroke-width="1"/>
        <path id="Caminho_59" data-name="Caminho 59" d="M730.25,1004.932a14.294,14.294,0,1,1,13.246-19.5,14.3,14.3,0,0,1-3.556,15.814A14.471,14.471,0,0,1,730.25,1004.932Zm-.021-27.675a13.382,13.382,0,0,0,.02,26.764h0a13.557,13.557,0,0,0,9.076-3.451,13.387,13.387,0,0,0,3.32-14.809A13.107,13.107,0,0,0,730.23,977.257Zm.021,25.78a12.243,12.243,0,1,1,8.415-3.194A12.561,12.561,0,0,1,730.25,1003.037Zm-.021-23.886a11.487,11.487,0,0,0,.02,22.975,11.647,11.647,0,0,0,7.8-2.957,11.579,11.579,0,0,0-7.821-20.018Z" transform="translate(-703.925 -942.951)" fill="#2755a1" stroke="#2755a1" stroke-width="1"/>
        <path id="Caminho_60" data-name="Caminho 60" d="M764.671,970.655l2.339-11.8a24.789,24.789,0,0,1-3.8-24.6,24.218,24.218,0,0,1,20.018-15.474,26.074,26.074,0,0,1,3.173-.2,24.126,24.126,0,0,1,21.321,12.657,25.027,25.027,0,0,1,3.139,13.646,24.347,24.347,0,0,1-5.48,13.911,24.738,24.738,0,0,1-16.157,8.862,25.205,25.205,0,0,1-3.051.187A24.571,24.571,0,0,1,776.783,966ZM786.4,919.494a25.171,25.171,0,0,0-3.062.189,23.323,23.323,0,0,0-19.278,14.9,23.873,23.873,0,0,0,3.79,23.858l.139.167-2.1,10.606,10.91-4.2.169.071a23.656,23.656,0,0,0,9.2,1.846,24.171,24.171,0,0,0,2.94-.18,23.827,23.827,0,0,0,15.562-8.533,23.445,23.445,0,0,0,5.277-13.389,24.122,24.122,0,0,0-3.027-13.149A23.225,23.225,0,0,0,786.4,919.494Zm-19.2,48.159,1.849-9.328-.158-.181a22.819,22.819,0,0,1-3.911-23.211,22.352,22.352,0,0,1,18.48-14.274,24.082,24.082,0,0,1,2.926-.18A22.807,22.807,0,0,1,803.91,957.6a22.833,22.833,0,0,1-14.921,8.18,23.338,23.338,0,0,1-2.819.172,22.637,22.637,0,0,1-9.164-1.915l-.185-.081Zm19.186-46.263a23.187,23.187,0,0,0-2.816.174,21.453,21.453,0,0,0-17.739,13.7,21.911,21.911,0,0,0,3.749,22.286l.45.518-1.615,8.145,8.43-3.242.53.233a21.74,21.74,0,0,0,8.8,1.838,22.305,22.305,0,0,0,2.708-.166A21.923,21.923,0,0,0,803.2,957.02a21.9,21.9,0,0,0-16.82-35.63Z" transform="translate(-716.404 -918.582)" fill="#2755a1" stroke="#2755a1" stroke-width="1"/>
        <path id="Caminho_61" data-name="Caminho 61" d="M801.92,945.642a4.912,4.912,0,0,1-7.374.259,4.846,4.846,0,0,1,3.265-8.2,4.937,4.937,0,0,1,4.109,7.936m7.262-5.983a12.863,12.863,0,0,0-1.851-3.724c-3.31,2.466-5.589.293-3.609-3.25a10.031,10.031,0,0,0-3.891-1.325c-.556,3.978-3.731,4.144-4.827.253a10.047,10.047,0,0,0-3.73,1.724c2.466,3.31.3,5.716-3.25,3.609a10.033,10.033,0,0,0-1.325,3.891c3.985.683,4.151,3.859.253,4.827a10.045,10.045,0,0,0,1.724,3.73c3.317-2.339,5.716-.3,3.609,3.25a12.843,12.843,0,0,0,3.9,1.452c.676-4.111,3.852-4.277,4.827-.253a12.861,12.861,0,0,0,3.724-1.851c-2.339-3.317-.293-5.589,3.25-3.609a12.842,12.842,0,0,0,1.452-3.9c-4.1-.549-4.271-3.725-.253-4.827" transform="translate(-725.381 -923.137)" fill="#2755a1" stroke="#2755a1" stroke-width="1"/>
        <path id="Caminho_62" data-name="Caminho 62" d="M786.839,969.848a2.845,2.845,0,0,1-4.332-.028,2.754,2.754,0,1,1,4.332.028m4.1-3.319a11,11,0,0,0-1-2.113c-1.965,1.377-3.3.173-2.138-1.926a8.539,8.539,0,0,0-2.206-.776c-.261,2.306-2.04,2.4-2.667.14a10.961,10.961,0,0,0-2.113,1c1.377,1.966.173,3.3-1.8,2.132a4.625,4.625,0,0,0-.776,2.206c2.306.261,2.4,2.04.14,2.668a4.623,4.623,0,0,0,1,2.113c1.839-1.37,3.176-.167,2.005,1.8a4.612,4.612,0,0,0,2.206.776c.4-2.186,2.173-2.279,2.667-.14a4.128,4.128,0,0,0,2.113-1c-1.37-1.839-.166-3.175,1.932-2.012a10.951,10.951,0,0,0,.776-2.206c-2.313-.388-2.406-2.167-.14-2.667" transform="translate(-722.364 -933.958)" fill="#2755a1" stroke="#2755a1" stroke-width="1"/>
      </g>
      <path id="Caminho_63" data-name="Caminho 63" d="M699.887,1078.987h47.907V1041.2c0-5.832-3.974-9.341-7.306-11.256-4.375-2.516-10.287-3.9-16.647-3.9s-12.272,1.385-16.647,3.9c-3.333,1.916-7.306,5.424-7.306,11.256Zm49.8,1.9h-51.7V1041.2c0-5.334,2.855-9.795,8.257-12.9,4.658-2.678,10.906-4.153,17.592-4.153s12.934,1.475,17.592,4.153c5.4,3.106,8.257,7.566,8.257,12.9Z" transform="translate(-4.253 -37.632)" fill="#2755a1" stroke="#2755a1" stroke-width="1"/>
      <path id="Caminho_64" data-name="Caminho 64" d="M730.484,978.948a11.943,11.943,0,0,0,.019,23.887h0a12.1,12.1,0,0,0,8.105-3.073,12.035,12.035,0,0,0-8.125-20.813m.02,25.781h0a13.838,13.838,0,1,1,12.822-18.881,13.844,13.844,0,0,1-3.441,15.314,14,14,0,0,1-9.38,3.568" transform="translate(-10.897 -24.622)" fill="#2755a1" stroke="#2755a1" stroke-width="1"/>
      <path id="Caminho_65" data-name="Caminho 65" d="M777.081,963.712l.358.157a22.523,22.523,0,0,0,26.365-6.307,22.331,22.331,0,1,0-38.153-22.214,22.365,22.365,0,0,0,3.831,22.748l.3.35-1.732,8.736Zm12.334,3.745h0a24.33,24.33,0,0,1-12.377-1.7l-11.51,4.425,2.221-11.2a24.268,24.268,0,0,1-3.866-24.314,24.224,24.224,0,0,1,43.688-2.956,24.564,24.564,0,0,1,3.082,13.4,23.9,23.9,0,0,1-5.379,13.651,24.276,24.276,0,0,1-15.859,8.7" transform="translate(-23.37 -0.253)" fill="#2755a1" stroke="#2755a1" stroke-width="1"/>
    </g>
  </g>
</svg>
