<svg id="Calque_1" data-name="Calque 1" xmlns="http://www.w3.org/2000/svg" width="150" height="150" viewBox="0 0 150 150">
  <defs>
    <style>
      .cls-1 {
        fill: #95b71d;
      }

      .cls-2 {
        fill: #2755a1;
      }
    </style>
  </defs>
  <g id="Groupe_833" data-name="Groupe 833">
    <circle id="Ellipse_65" data-name="Ellipse 65" class="cls-1" cx="72.3707" cy="82.7498" r="52.5"/>
    <g id="Groupe_763" data-name="Groupe 763">
      <path class="cls-2" d="M29.979,37.8566A11.5488,11.5488,0,1,1,41.5278,26.3078,11.5617,11.5617,0,0,1,29.979,37.8566Zm0-18.0976a6.5488,6.5488,0,1,0,6.5488,6.5488A6.5559,6.5559,0,0,0,29.979,19.759Z"/>
      <polygon class="cls-2" points="67.235 63.642 50.52 63.642 50.52 58.642 63.432 58.642 66.434 47.806 71.252 49.14 67.235 63.642"/>
      <polygon class="cls-2" points="77.632 102.216 72.632 102.216 72.632 71.865 49.632 71.865 49.632 66.865 77.632 66.865 77.632 102.216"/>
      <path class="cls-2" d="M51.9458,103.93a6.962,6.962,0,0,1-6.9326-6.9785v-11.06H25.59a6.16,6.16,0,0,1-5.0488-2.1709,7.7851,7.7851,0,0,1-1.2812-5.96l2.12-30.8535a8.028,8.028,0,0,1,14.916-4.03l4.58,7.5507a.6017.6017,0,0,0,.5332.32l.1777.0069,12.8887.9209-.3555,4.9863-12.8125-.915a5.5864,5.5864,0,0,1-4.8145-2.9141l-4.4775-7.3721a3.0286,3.0286,0,0,0-5.6367,1.55l-.0059.1641L24.19,78.5959a3.0077,3.0077,0,0,0,.2412,1.9834c.2247.2715.8223.3125,1.1592.3125H50.0132V96.9611A1.9565,1.9565,0,0,0,51.9565,98.93c1.3077,0,1.41-1.5069,1.41-1.9688V79.5852c0-.4649-.1-1.9805-1.3838-1.9805l-1.042-.0068H40.022a6.5166,6.5166,0,0,1-.8272-.0176,6.61,6.61,0,0,1-6.0215-7.1328l4.9825.42a1.6031,1.6031,0,0,0,1.46,1.73,1.8166,1.8166,0,0,0,.2178.0039l.1309-.0039L52,72.6047c3.6826,0,6.3672,2.9355,6.3672,6.9805V96.9611C58.3667,100.9992,55.6665,103.93,51.9458,103.93Z"/>
      <path class="cls-2" d="M120.2983,37.8479a11.5489,11.5489,0,1,1,11.55-11.5489A11.5618,11.5618,0,0,1,120.2983,37.8479Zm0-18.0977a6.5489,6.5489,0,1,0,6.55,6.5488A6.5559,6.5559,0,0,0,120.2983,19.75Z"/>
      <polygon class="cls-2" points="99.759 63.633 83.04 63.633 79.027 49.131 83.845 47.797 86.844 58.633 99.759 58.633 99.759 63.633"/>
      <rect class="cls-2" x="75.145" y="66.8566" width="25.501" height="5"/>
      <path class="cls-2" d="M98.3452,103.9211c-3.7314,0-6.4316-2.9316-6.4316-6.97V79.5754c0-4.044,2.6845-6.98,6.3838-6.98l1.0087-.0068H109.978c.6641-.2432,2.1358-1.0049,2.1358-1.94h5c0,3.1905-2.3555,5.1524-4.31,6.1426l-.0371.8975-2.5508-.1016-11.9023.0088c-1.3008,0-1.4,1.5146-1.4,1.98v17.376c0,.4619.1025,1.97,1.4209,1.97a1.9523,1.9523,0,0,0,1.9326-1.96V80.882H124.688c.57,0,.7285-.1845.8135-.2832.7119-.83.7158-3.15.5615-4.1513l-.0225-.1993L123.8989,47a3.029,3.029,0,0,0-5.63-1.5615l-4.4843,7.3847a5.5836,5.5836,0,0,1-4.8145,2.9131l-12.8125.9151-.3555-4.9864,13.0684-.9277h.001a.5988.5988,0,0,0,.53-.3193l.0751-.1338,4.5118-7.43A8.0285,8.0285,0,0,1,128.8979,46.89l2.1231,28.9043c.124.8965.6006,5.3487-1.7236,8.0586a5.8666,5.8666,0,0,1-4.6094,2.0293H105.2671V96.9514A6.958,6.958,0,0,1,98.3452,103.9211Z"/>
      <g id="Groupe_24" data-name="Groupe 24">
        <rect class="cls-2" x="134.5249" y="57.2707" width="5" height="46.873"/>
        <path class="cls-2" d="M117.4751,104.11h-5l.0088-10.0684a5.101,5.101,0,0,1,5.1-5.0762h19.4434v5H117.5835a.1.1,0,0,0-.1.1l-.0088.9687Z"/>
      </g>
      <g id="Groupe_26" data-name="Groupe 26">
        <rect class="cls-2" x="10.4751" y="57.2707" width="5" height="46.873"/>
        <path class="cls-2" d="M37.5249,104.11h-5l-.0088-10.0215c0-.0781-.0449-.1231-.1006-.1231h-19.44v-5h19.44a5.1062,5.1062,0,0,1,5.1006,5.1l.0088.9218Z"/>
      </g>
    </g>
  </g>
</svg>
