<svg xmlns="http://www.w3.org/2000/svg" width="120.843" height="123.048" viewBox="0 0 120.843 123.048">
  <g id="Grupo_836" data-name="Grupo 836" transform="translate(-900 -2234.14)">
    <circle id="Elipse_108" data-name="Elipse 108" cx="52.5" cy="52.5" r="52.5" transform="translate(907 2243)" fill="#95b71d"/>
    <g id="Grupo_814" data-name="Grupo 814" transform="translate(717.167 2206.621)">
      <g id="Grupo_812" data-name="Grupo 812" transform="translate(188.332 68.753)">
        <path id="Caminho_714" data-name="Caminho 714" d="M393.812,249.322l-39.7-71.455L325.2,229.92l-3.909-2.173,32.826-59.087,43.608,78.491Z" transform="translate(-286.338 -168.659)" fill="#2755a1"/>
        <path id="Caminho_715" data-name="Caminho 715" d="M205.564,293.511l-3.909-2.172,33.473-60.254,14.04,25.272-3.909,2.172-10.13-18.235Z" transform="translate(-201.656 -212.848)" fill="#2755a1"/>
        <path id="Caminho_716" data-name="Caminho 716" d="M401.154,279.212l-7.453-7.453-7.453,7.453-9.034-9.035,3.162-3.162,5.873,5.872,7.453-7.452,7.453,7.452,5.873-5.872,3.162,3.162Z" transform="translate(-325.925 -237.163)" fill="#2755a1"/>
      </g>
      <rect id="Ret창ngulo_935" data-name="Ret창ngulo 935" width="120.843" height="4.472" transform="translate(182.833 146.095)" fill="#2755a1"/>
      <g id="Grupo_813" data-name="Grupo 813" transform="translate(253.871 27.519)">
        <path id="Caminho_717" data-name="Caminho 717" d="M461.25,53.561H425.993V27.519H461.25l-4.8,13.021Zm-30.784-4.472h24.37l-3.15-8.549,3.15-8.549h-24.37v17.1Z" transform="translate(-425.993 -27.519)" fill="#2755a1"/>
        <rect id="Ret창ngulo_936" data-name="Ret창ngulo 936" width="4.472" height="43.602" transform="translate(0 2.236)" fill="#2755a1"/>
      </g>
    </g>
  </g>
</svg>
