<svg xmlns="http://www.w3.org/2000/svg" width="883" height="143.869" viewBox="0 0 883 143.869">
  <g id="Grupo_1023" data-name="Grupo 1023" transform="translate(-519 -3533.019)">
    <g id="Grupo_727" data-name="Grupo 727" transform="translate(1105.75 3402.932)">
      <path id="Caminho_661" data-name="Caminho 661" d="M-430.554,188.391l-17.435,20.484a16.525,16.525,0,0,1,3.358,10.076A16.6,16.6,0,0,1-461.3,235.473a16.594,16.594,0,0,1-16.522-16.666,16.594,16.594,0,0,1,16.668-16.522,16.519,16.519,0,0,1,8.618,2.455l17.52-21.039Z" transform="translate(1.385 38.483)" fill="#95b71d"/>
      <path id="Caminho_662" data-name="Caminho 662" d="M-431.462,178.8l-21.067-19.376a16.519,16.519,0,0,1-10.7,3.855,16.594,16.594,0,0,1-16.522-16.668,16.594,16.594,0,0,1,16.666-16.522,16.6,16.6,0,0,1,16.522,16.668,16.506,16.506,0,0,1-2.053,7.926l21.737,19.993Z" fill="#95b71d"/>
      <path id="Caminho_663" data-name="Caminho 663" d="M-405.252,132.127a16.594,16.594,0,0,0-16.666,16.522,16.351,16.351,0,0,0,4.157,11.081l-10.953,13.414a64.927,64.927,0,0,1,6.514,4.568l10.953-13.325a13.261,13.261,0,0,0,5.851.928,16.593,16.593,0,0,0,16.666-16.522,16.594,16.594,0,0,0-16.522-16.666" transform="translate(37.619 1.464)" fill="#95b71d"/>
    </g>
    <text id="Notre_impact" data-name="Notre impact" transform="translate(519 3558)" fill="#fff" font-size="100" font-family="Helvetica-Bold, Helvetica" font-weight="700"><tspan x="64.645" y="77">N</tspan><tspan y="77" fill="#95b71d">O</tspan><tspan y="77">TRE IMPACT</tspan></text>
  </g>
</svg>
