<svg xmlns="http://www.w3.org/2000/svg" xmlns:xlink="http://www.w3.org/1999/xlink" width="144.95" height="153.715" viewBox="0 0 144.95 153.715">
  <defs>
    <clipPath id="clip-path">
      <path id="Caminho_754" data-name="Caminho 754" d="M0,77.408H144.95V-54.307H0Z" transform="translate(0 54.307)" fill="#2755a1"/>
    </clipPath>
  </defs>
  <g id="Grupo_985" data-name="Grupo 985" transform="translate(-888 -1208)">
    <circle id="Elipse_106" data-name="Elipse 106" cx="52.5" cy="52.5" r="52.5" transform="translate(908 1208)" fill="#95b71d"/>
    <g id="Grupo_925" data-name="Grupo 925" transform="translate(888 1284.307)">
      <g id="Grupo_924" data-name="Grupo 924" transform="translate(0 -54.307)" clip-path="url(#clip-path)">
        <g id="Grupo_923" data-name="Grupo 923" transform="translate(0 -0.001)">
          <path id="Caminho_753" data-name="Caminho 753" d="M85.017,75.716,29.527-13.062a2.643,2.643,0,0,0-.7-.725v-37.5a1.883,1.883,0,0,0-1.935-1.829,1.884,1.884,0,0,0-1.829,1.829v1.885H6.682a4.207,4.207,0,0,0-4.206,4.2v1a.44.44,0,0,1-.439.439H-18.229a1.882,1.882,0,0,0-1.885,1.88,1.887,1.887,0,0,0,.553,1.334L-9.6-30.583l-9.963,9.966a1.881,1.881,0,0,0,0,2.661,1.885,1.885,0,0,0,1.332.551H2.037a4.208,4.208,0,0,0,4.2-4.2v-1.446H25.066v9.265a2.642,2.642,0,0,0-.7.723L-1.288,27.985-12.825,9.523a3.148,3.148,0,0,0-4.385-.776,3.105,3.105,0,0,0-.776.776l-41.37,66.193a1.876,1.876,0,0,0,.592,2.59,1.882,1.882,0,0,0,1,.289H83.421a1.878,1.878,0,0,0,1.6-2.879M2.474-21.609a.443.443,0,0,1-.441.439H-13.682L-5.6-29.256a1.88,1.88,0,0,0,0-2.658l0,0L-13.682-40H2.032c.148,0,.293-.007.441-.022Zm3.764-5.21V-45.2a.439.439,0,0,1,.439-.439H25.066v18.826Zm20.71,16.73L43.383,16.2l-7.019,7.019-8.086-8.086a1.881,1.881,0,0,0-2.661,0l-8.089,8.086L10.512,16.2ZM-15.406,12.5-3.679,31.267l-4.669,4.669-5.726-5.729a1.888,1.888,0,0,0-2.663,0l-5.729,5.729-4.669-4.666ZM-54.365,74.831l25.183-40.29,5.394,5.387a1.885,1.885,0,0,0,2.661,0L-15.4,34.2l5.729,5.731a1.9,1.9,0,0,0,.662.42L-17,53.126a1.886,1.886,0,0,0,.475,2.622,1.886,1.886,0,0,0,2.622-.475c.032-.046.061-.095.09-.146L.31,32.54,8.467,19.486,16.2,27.226a1.881,1.881,0,0,0,2.661,0l8.089-8.086,8.086,8.086a1.881,1.881,0,0,0,2.661,0l7.739-7.739L80.025,74.831Z" transform="translate(59.645 53.12)" fill="#2755a1"/>
        </g>
      </g>
    </g>
  </g>
</svg>
