<svg xmlns="http://www.w3.org/2000/svg" width="147.238" height="126.094" viewBox="0 0 147.238 126.094">
  <g id="Grupo_1003" data-name="Grupo 1003" transform="translate(-891 -6384.906)">
    <circle id="Elipse_223" data-name="Elipse 223" cx="52.5" cy="52.5" r="52.5" transform="translate(891 6406)" fill="#95b71d"/>
    <g id="Grupo_1002" data-name="Grupo 1002" transform="translate(1282.555 5812.672)">
      <g id="Grupo_12" data-name="Grupo 12" transform="translate(-288.815 591.429)">
        <path id="Caminho_27" data-name="Caminho 27" d="M-300.02,588.676a9.35,9.35,0,0,0-13.208-.23,9.351,9.351,0,0,0-.231,13.206,9.354,9.354,0,0,0,13.21.231,9.351,9.351,0,0,0,.229-13.207m-14.41,13.917a10.706,10.706,0,0,1,.263-15.122,10.705,10.705,0,0,1,15.121.265,10.706,10.706,0,0,1-.263,15.122,10.707,10.707,0,0,1-15.121-.265" transform="translate(319.136 -582.768)" fill="#fff"/>
        <path id="Caminho_28" data-name="Caminho 28" d="M-306.029,608.268a12.3,12.3,0,0,1-8.924-3.781,12.319,12.319,0,0,1-3.473-8.832,12.317,12.317,0,0,1,3.781-8.705,12.329,12.329,0,0,1,8.611-3.475,12.3,12.3,0,0,1,8.924,3.781,12.416,12.416,0,0,1-.306,17.537A12.331,12.331,0,0,1-306.029,608.268Zm0-20.025a7.6,7.6,0,0,0-5.3,2.138,7.641,7.641,0,0,0-.188,10.792,7.567,7.567,0,0,0,5.492,2.327,7.6,7.6,0,0,0,5.3-2.138A7.583,7.583,0,0,0-298.4,596a7.574,7.574,0,0,0-2.136-5.434A7.567,7.567,0,0,0-306.032,588.243Z" transform="translate(318.428 -583.475)" fill="#fff"/>
      </g>
      <path id="Caminho_29" data-name="Caminho 29" d="M-306.029,608.268a12.3,12.3,0,0,1-8.924-3.781,12.319,12.319,0,0,1-3.473-8.832,12.317,12.317,0,0,1,3.781-8.705,12.329,12.329,0,0,1,8.611-3.475,12.3,12.3,0,0,1,8.924,3.781,12.416,12.416,0,0,1-.306,17.537A12.331,12.331,0,0,1-306.029,608.268Zm0-20.025a7.6,7.6,0,0,0-5.3,2.138,7.641,7.641,0,0,0-.188,10.792,7.567,7.567,0,0,0,5.492,2.327,7.6,7.6,0,0,0,5.3-2.138A7.583,7.583,0,0,0-298.4,596a7.574,7.574,0,0,0-2.136-5.434A7.567,7.567,0,0,0-306.032,588.243Z" transform="translate(29.613 7.954)" fill="#fff"/>
      <g id="Grupo_13" data-name="Grupo 13" transform="translate(-360.279 572.234)">
        <path id="Caminho_30" data-name="Caminho 30" d="M-250.447,576.357A57.687,57.687,0,0,0-305.1,591.195a83.457,83.457,0,0,0-9.453,10.783l-.319.437-.5-.21c-13.425-5.635-29.733,6.653-38.995,15.333a70.137,70.137,0,0,1,9.628,1.023c5.763,1.023,13.727,3.282,18.944,8.229l.261.246-.055.355a31.355,31.355,0,0,0-.359,7.889l.044.343-2.514,2.428,13.581,14.064,2.514-2.428.342.056a31.447,31.447,0,0,0,7.887-.082l.362-.043.237.276c4.662,5.415,6.6,13.4,7.4,19.139a70,70,0,0,1,.668,9.537c8.924-8.883,21.693-24.625,16.772-38.187l-.181-.5.442-.3a83.277,83.277,0,0,0,11.2-9.134c23.58-22.771,17.477-51.073,16.741-54.09M-357.771,618.9l1.245-1.2c6.791-6.559,13.4-11.453,19.658-14.545,8.1-4.008,15.336-4.819,21.528-2.42a85.259,85.259,0,0,1,9.293-10.531,59.074,59.074,0,0,1,56.26-15.083l.179.077a.85.85,0,0,1,.176.14.917.917,0,0,1,.28.536,57.125,57.125,0,0,1,1.013,18.932,59.1,59.1,0,0,1-18.094,36.628,84.991,84.991,0,0,1-10.951,8.987c2.076,6.245.958,13.408-3.326,21.3-3.314,6.1-8.412,12.5-15.151,19.006l-1.245,1.2.084-1.731c.009-.191.809-19.149-7.471-29.135a34,34,0,0,1-7.554.082l-3.012,2.908-15.491-16.039,3.014-2.91a33.974,33.974,0,0,1,.347-7.565c-9.636-8.806-28.853-8.663-29.048-8.659Z" transform="translate(362.054 -571.527)" fill="#fff"/>
        <path id="Caminho_31" data-name="Caminho 31" d="M-297.048,686.861l.294-6.038c.009-.172.683-17.677-6.525-27.262a40.974,40.974,0,0,1-6.178.07l-3.671,3.544-17.863-18.5,3.673-3.547a37.1,37.1,0,0,1,.289-6.2c-9.091-7.547-26.372-7.636-27.122-7.636l-6.127.077,4.342-4.192c6.917-6.68,13.676-11.676,20.086-14.847,7.98-3.948,15.315-4.935,21.673-2.913a87.7,87.7,0,0,1,8.717-9.733,60.449,60.449,0,0,1,42.712-17.452,55.512,55.512,0,0,1,15.237,1.964l.548.241a2.5,2.5,0,0,1,.531.42,2.642,2.642,0,0,1,.731,1.39,59.031,59.031,0,0,1,1.035,19.446,60.794,60.794,0,0,1-18.606,37.676,87.365,87.365,0,0,1-10.148,8.453c1.709,6.407.429,13.606-3.815,21.422-3.4,6.255-8.6,12.788-15.466,19.419Zm-4.2-38.339.83.97c4.93,5.725,6.96,14.043,7.792,20.013.29,2.071.463,4,.562,5.678,7.928-8.528,17.739-22.06,13.584-33.51l-.634-1.759,1.544-1.042a81.75,81.75,0,0,0,10.97-8.946,56.462,56.462,0,0,0,16.485-51.481,53.468,53.468,0,0,0-12.636-1.436,55.754,55.754,0,0,0-39.384,16.12,81.628,81.628,0,0,0-9.259,10.562l-1.118,1.528-1.743-.734a17.037,17.037,0,0,0-6.629-1.293c-9.875,0-20.621,7.614-27.552,13.611,1.711.162,3.671.408,5.777.784,5.99,1.062,14.293,3.429,19.818,8.669l.912.859-.193,1.243a30.312,30.312,0,0,0-.353,7.406l.159,1.2-1.906,1.839,11.209,11.608,1.9-1.838,1.187.195a21.916,21.916,0,0,0,3.028.171,38.149,38.149,0,0,0,4.389-.263Z" transform="translate(360.279 -572.234)" fill="#fff"/>
      </g>
      <path id="Caminho_32" data-name="Caminho 32" d="M-297.048,686.861l.294-6.038c.009-.172.683-17.677-6.525-27.262a40.974,40.974,0,0,1-6.178.07l-3.671,3.544-17.863-18.5,3.673-3.547a37.1,37.1,0,0,1,.289-6.2c-9.091-7.547-26.372-7.636-27.122-7.636l-6.127.077,4.342-4.192c6.917-6.68,13.676-11.676,20.086-14.847,7.98-3.948,15.315-4.935,21.673-2.913a87.7,87.7,0,0,1,8.717-9.733,60.449,60.449,0,0,1,42.712-17.452,55.512,55.512,0,0,1,15.237,1.964l.548.241a2.5,2.5,0,0,1,.531.42,2.642,2.642,0,0,1,.731,1.39,59.031,59.031,0,0,1,1.035,19.446,60.794,60.794,0,0,1-18.606,37.676,87.365,87.365,0,0,1-10.148,8.453c1.709,6.407.429,13.606-3.815,21.422-3.4,6.255-8.6,12.788-15.466,19.419Zm-4.2-38.339.83.97c4.93,5.725,6.96,14.043,7.792,20.013.29,2.071.463,4,.562,5.678,7.928-8.528,17.739-22.06,13.584-33.51l-.634-1.759,1.544-1.042a81.75,81.75,0,0,0,10.97-8.946,56.462,56.462,0,0,0,16.485-51.481,53.468,53.468,0,0,0-12.636-1.436,55.754,55.754,0,0,0-39.384,16.12,81.628,81.628,0,0,0-9.259,10.562l-1.118,1.528-1.743-.734a17.037,17.037,0,0,0-6.629-1.293c-9.875,0-20.621,7.614-27.552,13.611,1.711.162,3.671.408,5.777.784,5.99,1.062,14.293,3.429,19.818,8.669l.912.859-.193,1.243a30.312,30.312,0,0,0-.353,7.406l.159,1.2-1.906,1.839,11.209,11.608,1.9-1.838,1.187.195a21.916,21.916,0,0,0,3.028.171,38.149,38.149,0,0,0,4.389-.263Z" fill="#fff"/>
      <g id="Grupo_14" data-name="Grupo 14" transform="translate(-343.055 644.489)">
        <path id="Caminho_33" data-name="Caminho 33" d="M-349.085,622.476a.594.594,0,0,1,.14-.809l6.115-5.907a.6.6,0,0,1,.814-.111.6.6,0,0,1-.14.81l-6.117,5.907a.594.594,0,0,1-.813.111" transform="translate(350.899 -613.852)" fill="#fff"/>
        <path id="Caminho_34" data-name="Caminho 34" d="M-348.078,625a2.1,2.1,0,0,1-1.532-.642,2.1,2.1,0,0,1-.582-1.511,2.468,2.468,0,0,1,.772-1.713l6.111-5.9a2.344,2.344,0,0,1,3.229-.068,2.265,2.265,0,0,1-.179,3.222l-6.118,5.908A2.488,2.488,0,0,1-348.078,625Z" transform="translate(350.192 -614.548)" fill="#fff"/>
      </g>
      <path id="Caminho_35" data-name="Caminho 35" d="M-348.078,625a2.1,2.1,0,0,1-1.532-.642,2.1,2.1,0,0,1-.582-1.511,2.468,2.468,0,0,1,.772-1.713l6.111-5.9a2.344,2.344,0,0,1,3.229-.068,2.265,2.265,0,0,1-.179,3.222l-6.118,5.908A2.488,2.488,0,0,1-348.078,625Z" transform="translate(7.137 29.941)" fill="#fff"/>
      <g id="Grupo_15" data-name="Grupo 15" transform="translate(-354.525 659.318)">
        <path id="Caminho_36" data-name="Caminho 36" d="M-355.8,634.084a.6.6,0,0,1,.145-.815l9.134-8.821a.6.6,0,0,1,.82-.116.6.6,0,0,1-.145.815l-9.134,8.821a.6.6,0,0,1-.82.116" transform="translate(357.617 -622.535)" fill="#fff"/>
        <path id="Caminho_37" data-name="Caminho 37" d="M-354.8,636.606a2.1,2.1,0,0,1-1.528-.642,2.1,2.1,0,0,1-.584-1.508,2.481,2.481,0,0,1,.777-1.721l9.129-8.818a2.344,2.344,0,0,1,3.234-.073,2.092,2.092,0,0,1,.586,1.509,2.472,2.472,0,0,1-.777,1.723l-9.129,8.818A2.506,2.506,0,0,1-354.8,636.606Z" transform="translate(356.909 -623.232)" fill="#fff"/>
      </g>
      <path id="Caminho_38" data-name="Caminho 38" d="M-354.8,636.606a2.1,2.1,0,0,1-1.528-.642,2.1,2.1,0,0,1-.584-1.508,2.481,2.481,0,0,1,.777-1.721l9.129-8.818a2.344,2.344,0,0,1,3.234-.073,2.092,2.092,0,0,1,.586,1.509,2.472,2.472,0,0,1-.777,1.723l-9.129,8.818A2.506,2.506,0,0,1-354.8,636.606Z" transform="translate(2.384 36.086)" fill="#fff"/>
      <g id="Grupo_16" data-name="Grupo 16" transform="translate(-335.707 652.208)">
        <path id="Caminho_39" data-name="Caminho 39" d="M-344.78,628a.6.6,0,0,1,.142-.811l7.157-6.911a.594.594,0,0,1,.815-.113.6.6,0,0,1-.142.811l-7.155,6.909a.6.6,0,0,1-.816.114" transform="translate(346.599 -618.372)" fill="#fff"/>
        <path id="Caminho_40" data-name="Caminho 40" d="M-343.771,630.524a2.1,2.1,0,0,1-1.525-.635,2.266,2.266,0,0,1,.183-3.231l7.155-6.909a2.341,2.341,0,0,1,3.231-.067,2.082,2.082,0,0,1,.584,1.5,2.47,2.47,0,0,1-.77,1.723l-7.153,6.909A2.486,2.486,0,0,1-343.771,630.524Z" transform="translate(345.889 -619.068)" fill="#fff"/>
      </g>
      <path id="Caminho_41" data-name="Caminho 41" d="M-343.771,630.524a2.1,2.1,0,0,1-1.525-.635,2.266,2.266,0,0,1,.183-3.231l7.155-6.909a2.341,2.341,0,0,1,3.231-.067,2.082,2.082,0,0,1,.584,1.5,2.47,2.47,0,0,1-.77,1.723l-7.153,6.909A2.486,2.486,0,0,1-343.771,630.524Z" transform="translate(10.182 33.14)" fill="#fff"/>
      <g id="Grupo_17" data-name="Grupo 17" transform="translate(-335.374 664.216)">
        <path id="Caminho_42" data-name="Caminho 42" d="M-344.586,635.642a.6.6,0,0,1,.143-.813l7.78-7.513a.6.6,0,0,1,.818-.114.6.6,0,0,1-.143.813l-7.78,7.513a.6.6,0,0,1-.818.114" transform="translate(346.403 -625.404)" fill="#fff"/>
        <path id="Caminho_43" data-name="Caminho 43" d="M-343.578,638.162a2.1,2.1,0,0,1-1.527-.639,2.265,2.265,0,0,1,.186-3.225l7.778-7.514a2.344,2.344,0,0,1,3.236-.07,2.1,2.1,0,0,1,.582,1.5,2.476,2.476,0,0,1-.772,1.721l-7.778,7.513A2.5,2.5,0,0,1-343.578,638.162Z" transform="translate(345.694 -626.1)" fill="#fff"/>
      </g>
      <path id="Caminho_44" data-name="Caminho 44" d="M-343.578,638.162a2.1,2.1,0,0,1-1.527-.639,2.265,2.265,0,0,1,.186-3.225l7.778-7.514a2.344,2.344,0,0,1,3.236-.07,2.1,2.1,0,0,1,.582,1.5,2.476,2.476,0,0,1-.772,1.721l-7.778,7.513A2.5,2.5,0,0,1-343.578,638.162Z" transform="translate(10.32 38.115)" fill="#fff"/>
      <g id="Grupo_18" data-name="Grupo 18" transform="translate(-352.356 674.435)">
        <path id="Caminho_45" data-name="Caminho 45" d="M-354.529,639.106a.592.592,0,0,1,.137-.806l5.183-5a.59.59,0,0,1,.809-.108.592.592,0,0,1-.137.806L-353.718,639a.594.594,0,0,1-.811.108" transform="translate(356.349 -631.388)" fill="#fff"/>
        <path id="Caminho_46" data-name="Caminho 46" d="M-353.518,641.627a2.1,2.1,0,0,1-1.53-.64,2.26,2.26,0,0,1,.178-3.219l5.183-5.005a2.339,2.339,0,0,1,3.224-.066,2.262,2.262,0,0,1-.178,3.219l-5.181,5.007A2.481,2.481,0,0,1-353.518,641.627Z" transform="translate(355.639 -632.085)" fill="#fff"/>
      </g>
      <path id="Caminho_47" data-name="Caminho 47" d="M-353.518,641.627a2.1,2.1,0,0,1-1.53-.64,2.26,2.26,0,0,1,.178-3.219l5.183-5.005a2.339,2.339,0,0,1,3.224-.066,2.262,2.262,0,0,1-.178,3.219l-5.181,5.007A2.481,2.481,0,0,1-353.518,641.627Z" transform="translate(3.283 42.35)" fill="#fff"/>
    </g>
  </g>
</svg>
