<svg xmlns="http://www.w3.org/2000/svg" width="105" height="153.271" viewBox="0 0 105 153.271">
  <g id="Grupo_986" data-name="Grupo 986" transform="translate(-995 -2468.443)">
    <ellipse id="Elipse_148" data-name="Elipse 148" cx="52.5" cy="51.676" rx="52.5" ry="51.676" transform="translate(995 2468.443)" fill="#95b71d"/>
    <g id="Grupo_931" data-name="Grupo 931" transform="translate(998 2503.199)">
      <g id="Grupo_933" data-name="Grupo 933" transform="translate(11.312 0)">
        <path id="Caminho_774" data-name="Caminho 774" d="M1354.267,1771.444l-1.651-1.99c-8.286-9.967-35.323-43.8-35.323-60.566,0-20.081,16.6-36.419,37-36.419s37,16.338,37,36.419c0,19.139-33.9,58.91-35.343,60.592Zm.026-94.705c-18.01,0-32.662,14.422-32.662,32.149,0,11.795,16.581,36.2,32.685,55.858,13.718-16.375,32.639-43.32,32.639-55.858C1386.955,1691.162,1372.3,1676.739,1354.293,1676.739Z" transform="translate(-1317.293 -1672.469)" fill="#fff"/>
        <path id="Caminho_775" data-name="Caminho 775" d="M1341.566,1713.74a17.275,17.275,0,1,1,17.547-17.272A17.226,17.226,0,0,1,1341.566,1713.74Zm0-30.276a13,13,0,1,0,13.208,13A12.965,12.965,0,0,0,1341.566,1683.464Z" transform="translate(-1304.566 -1660.049)" fill="#fff"/>
      </g>
      <path id="Caminho_776" data-name="Caminho 776" d="M1361.9,1737.655c-27.655,0-48.514-8.176-48.514-19.022,0-7.692,10.337-14.143,27.653-17.258a2.182,2.182,0,0,1,2.525,1.72,2.141,2.141,0,0,1-1.744,2.485c-14.414,2.588-24.095,7.834-24.095,13.052,0,6.978,18.143,14.752,44.176,14.752s44.182-7.774,44.182-14.752c0-5.218-9.683-10.465-24.1-13.052a2.143,2.143,0,0,1-1.747-2.485,2.2,2.2,0,0,1,2.525-1.72c17.316,3.115,27.655,9.565,27.655,17.258C1410.416,1729.479,1389.557,1737.655,1361.9,1737.655Z" transform="translate(-1313.382 -1619.138)" fill="#fff"/>
    </g>
  </g>
</svg>
