<svg xmlns="http://www.w3.org/2000/svg" width="126.146" height="131.903" viewBox="0 0 126.146 131.903">
  <g id="Grupo_1009" data-name="Grupo 1009" transform="translate(-181.658 -153.35)">
    <circle id="Ellipse_164" data-name="Ellipse 164" cx="52.5" cy="52.5" r="52.5" transform="translate(202.804 153.35)" fill="#2755a1"/>
    <g id="Grupo_1008" data-name="Grupo 1008" transform="translate(0 -14)">
      <path id="Caminho_821" data-name="Caminho 821" d="M266.513,249.887A19.872,19.872,0,0,1,233.4,243.83a19.988,19.988,0,0,1,3.792-20.767,19.69,19.69,0,0,1,7.306-5.044,19.871,19.871,0,0,1,22.02,31.868Zm-24.9-22.777a13.959,13.959,0,0,0-2.648,14.5,13.852,13.852,0,1,0,2.648-14.5Z" fill="#fff"/>
      <path id="Caminho_822" data-name="Caminho 822" d="M204.713,209.937a13.145,13.145,0,0,1-4.879,3.369,13.266,13.266,0,1,1,4.879-3.369Zm-15.159-13.869a7.284,7.284,0,1,0,2.674-1.843A7.226,7.226,0,0,0,189.554,196.068Z" fill="#fff"/>
      <path id="Caminho_823" data-name="Caminho 823" d="M210.821,272.913a10.564,10.564,0,0,1-17.61-3.22,10.626,10.626,0,0,1,2.016-11.041,10.464,10.464,0,0,1,3.885-2.683,10.566,10.566,0,0,1,11.709,16.944ZM199.657,262.7a4.567,4.567,0,1,0,1.678-1.157A4.535,4.535,0,0,0,199.657,262.7Z" fill="#fff"/>
      <path id="Caminho_824" data-name="Caminho 824" d="M256.282,295.032a12.968,12.968,0,0,1-21.615-3.953,13.044,13.044,0,0,1,2.474-13.552,12.849,12.849,0,0,1,4.77-3.292,12.968,12.968,0,0,1,14.371,20.8Zm-14.711-13.458a6.974,6.974,0,1,0,2.561-1.765A6.924,6.924,0,0,0,241.571,281.574Z" fill="#fff"/>
      <path id="Caminho_825" data-name="Caminho 825" d="M297.091,193.025a14.953,14.953,0,0,1-5.551,3.833,15.093,15.093,0,1,1,5.551-3.833Zm-17.856-16.337a9.1,9.1,0,1,0,3.345-2.307A9.037,9.037,0,0,0,279.235,176.688Z" fill="#fff"/>
      <path id="Caminho_826" data-name="Caminho 826" d="M304.682,255.77a10.68,10.68,0,0,1-17.8-3.252,10.744,10.744,0,0,1,2.038-11.16,10.678,10.678,0,0,1,17.8,3.252A10.74,10.74,0,0,1,304.682,255.77ZM293.352,245.4a4.687,4.687,0,1,0,1.719-1.184A4.652,4.652,0,0,0,293.352,245.4Z" fill="#fff"/>
      <rect id="Retângulo_1167" data-name="Retângulo 1167" width="32.582" height="6" transform="translate(207.343 258.426) rotate(-29.863)" fill="#fff"/>
      <rect id="Retângulo_1168" data-name="Retângulo 1168" width="6" height="39.749" transform="matrix(0.537, -0.843, 0.843, 0.537, 202.621, 207.935)" fill="#fff"/>
      <rect id="Retângulo_1169" data-name="Retângulo 1169" width="22.818" height="6.001" transform="matrix(0.159, -0.987, 0.987, 0.159, 245.715, 275.464)" fill="#fff"/>
      <rect id="Retângulo_1170" data-name="Retângulo 1170" width="6.001" height="22.502" transform="translate(267.485 242.927) rotate(-75.059)" fill="#fff"/>
      <rect id="Retângulo_1171" data-name="Retângulo 1171" width="34.957" height="6" transform="translate(259.001 220.78) rotate(-55.462)" fill="#fff"/>
    </g>
  </g>
</svg>
