<svg id="Calque_1" data-name="Calque 1" xmlns="http://www.w3.org/2000/svg" width="150" height="150" viewBox="0 0 150 150">
  <defs>
    <style>
      .cls-1 {
        fill: #95b71d;
      }

      .cls-2 {
        fill: #2755a1;
        stroke: #2755a1;
      }
    </style>
  </defs>
  <g id="Groupe_834" data-name="Groupe 834">
    <circle id="Ellipse_66" data-name="Ellipse 66" class="cls-1" cx="63.3881" cy="56.0657" r="52.5"/>
    <g id="Groupe_764" data-name="Groupe 764">
      <path id="Tracé_48" data-name="Tracé 48" class="cls-2" d="M65.9681,23.0827a1.1,1.1,0,0,0-1.1132,1.0865c0,.0135,0,.027,0,.0405v14.792a1.1,1.1,0,0,0,1.0736,1.1257c.0132,0,.0263,0,.0394,0h24.468A1.1,1.1,0,0,0,91.5484,39.04q0-.0194,0-.0384V24.21a1.1,1.1,0,0,0-1.0726-1.1268c-.0131,0-.0262,0-.0394,0ZM90.4361,43.51H65.9681a4.421,4.421,0,0,1-4.45-4.3921c0-.0386,0-.0773.0007-.1159V24.21a4.4211,4.4211,0,0,1,4.3331-4.5073c.0386-.0007.0773-.001.1159-.0007h24.468a4.422,4.422,0,0,1,4.45,4.394c0,.038,0,.076-.0008.114v14.792a4.511,4.511,0,0,1-4.449,4.508"/>
      <path id="Tracé_49" data-name="Tracé 49" class="cls-2" d="M85.0141,52.5257H71.3891a3.1061,3.1061,0,0,1-3.058-3.1v-7.608a1.668,1.668,0,1,1,3.336-.003v7.47h13.208v-7.467a1.668,1.668,0,1,1,3.336-.003v7.611a3.137,3.137,0,0,1-3.1731,3.1l-.0269,0"/>
      <path id="Tracé_50" data-name="Tracé 50" class="cls-2" d="M78.0651,61.7377a1.6171,1.6171,0,0,1-1.67-1.5625q-.0021-.0637.0008-.1276V52.44a1.669,1.669,0,0,1,3.337-.0817c.0007.0272.0007.0545,0,.0817v7.608a1.7,1.7,0,0,1-1.669,1.69"/>
      <path id="Tracé_51" data-name="Tracé 51" class="cls-2" d="M41.7781,68.5157a1.5262,1.5262,0,0,1-1.39-.846,1.74,1.74,0,0,1,.556-2.254l19.741-11.552a1.691,1.691,0,0,1,2.224.564,1.74,1.74,0,0,1-.556,2.254l-19.741,11.693a1.7447,1.7447,0,0,1-.834.141"/>
      <path id="Tracé_52" data-name="Tracé 52" class="cls-2" d="M78.7581,90.21a1.5262,1.5262,0,0,1-1.39-.846,1.74,1.74,0,0,1,.556-2.254l34.478-20.286-17.235-10.143a1.5321,1.5321,0,0,1-.556-2.254,1.4916,1.4916,0,0,1,2.224-.564l19.742,11.552a1.607,1.607,0,0,1,0,2.817l-36.98,21.695a1.96,1.96,0,0,1-.834.282"/>
      <path id="Tracé_53" data-name="Tracé 53" class="cls-2" d="M78.7581,133.6007l-38.649-22.54V66.8247a1.668,1.668,0,1,1,3.336,0v42.263l35.312,20.568,35.312-20.568V66.8247a1.668,1.668,0,1,1,3.336-.0031V111.06Z"/>
      <path id="Tracé_54" data-name="Tracé 54" class="cls-2" d="M78.7581,118.9487a1.6171,1.6171,0,0,1-1.67-1.5624q-.0021-.0639.0008-.1276v-28.74a1.669,1.669,0,0,1,3.337-.0818q.001.0408,0,.0818v28.74a1.7,1.7,0,0,1-1.669,1.69"/>
      <path id="Tracé_55" data-name="Tracé 55" class="cls-2" d="M110.1781,138.3887a1.96,1.96,0,0,1-.834-.2821l-9.036-5.213a1.5333,1.5333,0,0,1-.557-2.254,1.4933,1.4933,0,0,1,2.224-.563l9.037,5.2131a1.682,1.682,0,0,1-.834,3.1"/>
      <path id="Tracé_56" data-name="Tracé 56" class="cls-2" d="M122.5511,131.2046a1.9588,1.9588,0,0,1-.834-.282l-9.036-5.213a1.5333,1.5333,0,0,1-.557-2.254,1.4929,1.4929,0,0,1,2.225-.563l9.037,5.212a1.682,1.682,0,0,1-.834,3.1"/>
      <path id="Tracé_57" data-name="Tracé 57" class="cls-2" d="M97.8051,145.8557l-9.871-5.776a1.5339,1.5339,0,0,1-.556-2.254,1.4929,1.4929,0,0,1,2.224-.563l8.2,4.789,33.644-19.722-6.534-3.8a1.5331,1.5331,0,0,1-.556-2.254,1.492,1.492,0,0,1,2.224-.563l11.539,6.761Z"/>
    </g>
  </g>
</svg>
