<svg id="Calque_1" data-name="Calque 1" xmlns="http://www.w3.org/2000/svg" width="150" height="150" viewBox="0 0 150 150">
  <defs>
    <style>
      .cls-1 {
        fill: #2755a1;
      }

      .cls-2 {
        fill: #fff;
      }
    </style>
  </defs>
  <g id="Groupe_816" data-name="Groupe 816">
    <circle id="Ellipse_107" data-name="Ellipse 107" class="cls-1" cx="83.8695" cy="53.7306" r="52.5"/>
    <g id="Groupe_811" data-name="Groupe 811">
      <path id="Tracé_712" data-name="Tracé 712" class="cls-2" d="M64.7215,79.3042a1.8779,1.8779,0,0,0,.5285-1.362,23.9669,23.9669,0,0,1,.8509-7.589A32.0432,32.0432,0,0,1,69.8453,62.63a1.8771,1.8771,0,0,0-1.5911-2.8733H59.0086V47.7414h2.04a1.878,1.878,0,0,0,1.1782-3.3392l-16.03-12.9168a1.8772,1.8772,0,0,0-2.3564,0L27.8068,44.4022a1.877,1.877,0,0,0,1.1772,3.3392h1.31V59.7553H21.3267a1.876,1.876,0,0,0-1.5931,2.8694A32.4237,32.4237,0,0,1,23.47,70.3513a24.0418,24.0418,0,0,1,.8558,7.5909,1.8509,1.8509,0,0,0,1.3476,1.8423q-1.0338,7.67-2.0677,15.3377l-5.4731,40.59-.1839,1.3572-1.5767,11.7H73.2105L63.9091,79.7865A1.8655,1.8655,0,0,0,64.7215,79.3042Zm-3.8926,5.737L26.0443,105.1234l1.2783-9.4978q1.0588-7.871,2.1244-15.7525H60.131ZM55.2594,59.7543H46.4547V47.74h8.8047ZM45.0215,35.3579l10.71,8.6294H34.31ZM34.0481,47.7414h8.6478V59.7562H34.0481ZM24.6014,63.5093h40.38a30.1492,30.1492,0,0,0-2.4738,5.7755,25.9,25.9,0,0,0-1.0126,6.8343H28.0879a26.0247,26.0247,0,0,0-1.0155-6.8411A30.479,30.479,0,0,0,24.6014,63.5093Zm.8114,46.3153L61.3746,89.0618,64.0872,109.18,22.2431,133.34Zm-3.8021,28.2169L64.63,113.2071l2.7346,20.2862-19.96,11.522H20.67Zm33.3051,6.9738,12.9947-7.5023,1.0117,7.5023Z"/>
      <path id="Tracé_713" data-name="Tracé 713" class="cls-2" d="M105.9419,42.2788l-.8259-3.6578L61.7809,48.4017v.0125a2.06,2.06,0,0,0-.2494,3.9052v.0029l.1675.0462a1.9149,1.9149,0,0,0,.2436.0654l42.9808,11.5885.9771-3.6241L69.3448,50.5425Z"/>
    </g>
  </g>
</svg>
