<svg id="Calque_1" data-name="Calque 1" xmlns="http://www.w3.org/2000/svg" xmlns:xlink="http://www.w3.org/1999/xlink" width="220" height="220" viewBox="0 0 220 220">
  <defs>
    <style>
      .cls-1, .cls-5 {
        fill: none;
      }

      .cls-2 {
        fill: #95b71d;
      }

      .cls-3 {
        clip-path: url(#clip-path);
      }

      .cls-4 {
        fill: #fff;
      }

      .cls-5 {
        stroke: #fff;
        stroke-width: 4px;
      }

      .cls-6 {
        fill: #2755a1;
      }
    </style>
    <clipPath id="clip-path">
      <rect class="cls-1" x="63.8941" y="62.6757" width="152.8848" height="129.0083"/>
    </clipPath>
  </defs>
  <g id="Groupe_978" data-name="Groupe 978">
    <ellipse id="Ellipse_15" data-name="Ellipse 15" class="cls-2" cx="79.2211" cy="103.816" rx="76" ry="75.5"/>
    <g id="Groupe_41" data-name="Groupe 41">
      <g class="cls-3">
        <g id="Groupe_40" data-name="Groupe 40">
          <g id="Groupe_37" data-name="Groupe 37">
            <path id="Tracé_106" data-name="Tracé 106" class="cls-4" d="M151.7915,191.684a18.2813,18.2813,0,0,1-6.5231-1.2059l-39.1229-15.9862h-9.79v-4.7955h10.6969l39.9137,16.3081a13.7934,13.7934,0,0,0,12.3553-1.3355l49.2106-32.8661a4.41,4.41,0,0,0,1.7151-2.9122,4.479,4.479,0,0,0-.8321-3.3379l-.0788-.1067a4.3239,4.3239,0,0,0-2.6807-1.6853,4.2774,4.2774,0,0,0-3.1006.5957L177.34,160.9913l-2.4885-4.07,26.219-16.6348a8.9012,8.9012,0,0,1,6.4443-1.2376,9.0125,9.0125,0,0,1,5.5728,3.5109l.0826.1086a9.3091,9.3091,0,0,1,1.73,6.9362,9.1826,9.1826,0,0,1-3.6511,6.1137l-.0884.0625L161.8667,188.7a18.3518,18.3518,0,0,1-8.1123,2.8825,18.6258,18.6258,0,0,1-1.9629.1048"/>
          </g>
          <g id="Groupe_38" data-name="Groupe 38">
            <path id="Tracé_107" data-name="Tracé 107" class="cls-4" d="M133.1236,167.32h-4.7081a9.0078,9.0078,0,0,1,8.9107-9.08H171.743a4.2827,4.2827,0,0,0,0-8.5639H136.6383l-12.5849-8.21a31.7829,31.7829,0,0,0-8.2795-3.8356,31.4452,31.4452,0,0,0-9.0029-1.3145H96.3547v-4.7954h10.4172a36.0672,36.0672,0,0,1,10.3251,1.5085,36.4376,36.4376,0,0,1,9.4929,4.3986l11.4252,7.4512H171.74a9.0805,9.0805,0,0,1,0,18.1577H137.3272a4.2488,4.2488,0,0,0-4.2036,4.2834"/>
          </g>
          <path id="Tracé_108" data-name="Tracé 108" class="cls-4" d="M107.3014,117.7676H215.7691V63.7105H107.3014ZM213.8791,77.3168a11.88,11.88,0,0,1-10.5239-11.6827h10.5239Zm0,1.9274v23.4221a13.7772,13.7772,0,0,0-12.4,13.18H122.0424a13.7658,13.7658,0,0,0-12.8549-13.2152V79.2826a13.7733,13.7733,0,0,0,12.8664-13.6437h79.4142a13.7831,13.7831,0,0,0,12.412,13.61M120.1668,65.6341a11.8652,11.8652,0,0,1-10.98,11.7221V65.6341Zm-10.9793,38.9231a11.8584,11.8584,0,0,1,10.9668,11.2887H109.1875Zm94.1792,11.2887a11.872,11.872,0,0,1,10.5124-11.2532v11.2532Z"/>
          <path id="Tracé_109" data-name="Tracé 109" class="cls-4" d="M216.7808,118.8024H106.2858V62.6757h110.495Zm-12.29-3.9913h8.3717m-89.8815,0h77.56A14.83,14.83,0,0,1,212.8626,101.75V80.1628A14.7373,14.7373,0,0,1,200.5015,66.667H123.0186A14.83,14.83,0,0,1,110.203,80.2262v21.4572a14.476,14.476,0,0,1,8.6215,4.31,14.9888,14.9888,0,0,1,4.1566,8.8223m-12.779,0H119.03m.0528-48.1441,93.7767,9.444V66.667"/>
          <g id="Groupe_39" data-name="Groupe 39">
            <path id="Tracé_110" data-name="Tracé 110" class="cls-5" d="M161.5333,76.8671a13.8744,13.8744,0,1,0,13.612,13.8734,13.759,13.759,0,0,0-13.612-13.8734"/>
          </g>
        </g>
      </g>
      <path id="Tracé_112" data-name="Tracé 112" class="cls-4" d="M63.8941,186.558H98.7077V119.449H63.8941Zm4.708-62.3116H94.0006v57.52H68.6021Z"/>
      <path id="Tracé_113" data-name="Tracé 113" class="cls-6" d="M84.5893,169.6964h4.7081v4.7955H84.5893Z"/>
    </g>
  </g>
</svg>
