<svg id="Calque_1" data-name="Calque 1" xmlns="http://www.w3.org/2000/svg" width="220" height="220" viewBox="0 0 220 220">
  <defs>
    <style>
      .cls-1 {
        fill: #95b71d;
      }

      .cls-2, .cls-3 {
        fill: #fff;
        stroke: #fff;
      }

      .cls-2 {
        stroke-width: 1.5px;
      }
    </style>
  </defs>
  <g id="Groupe_976" data-name="Groupe 976">
    <ellipse id="Ellipse_13" data-name="Ellipse 13" class="cls-1" cx="123.6134" cy="88.4696" rx="76" ry="75.5"/>
    <g id="Groupe_36" data-name="Groupe 36">
      <g id="Groupe_34" data-name="Groupe 34">
        <path id="Tracé_99" data-name="Tracé 99" class="cls-2" d="M26.78,70.1568a19.7173,19.7173,0,0,1,3.5528,9.8713C30.8054,86.9294,35.4446,94.62,41.3505,94.62c3.3788,0,7.0813-2.4441,10.7049-7.07.4391-.7485,4.0576-7.1693,2.4563-12.4925-.7749-2.5735-2.7264-4.5624-5.8-5.9129a23.7855,23.7855,0,0,0-9.6154-2.0232A27.8359,27.8359,0,0,0,26.78,70.1557m14.5673,27.938h0c-7.8663,0-13.7792-9.2169-14.365-17.8228A16.2687,16.2687,0,0,0,23.01,70.88L21.545,69.37l1.7258-1.1785a30.4688,30.4688,0,0,1,15.8248-4.5523A27.0168,27.0168,0,0,1,50.0211,65.94c4.0312,1.7683,6.619,4.4916,7.6994,8.093,2.1507,7.1825-2.6727,15.1146-2.8791,15.45l-.1082.1548c-4.3672,5.6054-8.8709,8.4491-13.3848,8.4491"/>
        <path id="Tracé_100" data-name="Tracé 100" class="cls-2" d="M116.4633,44.848A90.4292,90.4292,0,0,0,94.675,48.1237c-9.1744,2.355-14.77,6.8517-16.6391,13.3655-2.2964,8.01,1.7046,17.1975,5.2786,21.1611,3.51,3.8907,7.4223,5.8674,11.6235,5.8674,9.8765,0,18.804-10.9357,19.1773-17.8046.4158-7.6883,2.1912-13.8136,10.4278-24.9162a28.95,28.95,0,0,0-8.08-.9458M94.938,91.9926c-5.17,0-9.9068-2.346-14.0777-6.9691-3.8341-4.2488-8.8689-14.6685-6.0444-24.52,1.5305-5.3465,6.0818-12.4217,19.0478-15.749a93.5893,93.5893,0,0,1,22.5985-3.3768c8.2751,0,11.3858,1.998,11.7156,2.2256l1.5073,1.05-1.132,1.4719c-8.8638,11.5507-10.6868,17.409-11.0853,24.7847-.2327,4.2781-2.9236,9.5426-7.0187,13.7418-4.6231,4.7344-10.1323,7.3424-15.5121,7.3424"/>
        <path id="Tracé_101" data-name="Tracé 101" class="cls-2" d="M101.984,58.9834C66.2171,86.42,74.7056,131.2526,74.6965,131.22c-.1011-.4582-8.43-44.69,27.3229-72.1285ZM74.64,133.034a1.746,1.746,0,0,1-1.69-1.3808c-.1083-.4745-8.6534-45.9276,28.0016-74.0507a1.7491,1.7491,0,0,1,2.4279.3733,1.8411,1.8411,0,0,1-.3622,2.5149c-34.8088,26.7129-26.79,69.8817-26.6885,70.3319a1.8006,1.8006,0,0,1-1.2888,2.1628,1.7516,1.7516,0,0,1-.4046.05"/>
        <path id="Tracé_102" data-name="Tracé 102" class="cls-2" d="M48.4986,83.9522c19.4474,6.5917,26.7664,25.3624,26.8373,25.5525h-1.26c-.04-.265-6.1709-19.1-25.5424-25.6678ZM75.39,111.2791c-.7162,0-2.6869-.4765-2.95-1.1674-.0708-.181-5.8856-18.2091-24.464-24.5075a1.821,1.821,0,0,1-1.1128-2.2681,1.7491,1.7491,0,0,1,2.1905-1.149l.0027.0008c20.194,6.8447,26.5358,26.4033,26.6056,26.6056a1.821,1.821,0,0,1-.9772,2.3268,1.6765,1.6765,0,0,1-.6384.1264"/>
      </g>
      <g id="Groupe_35" data-name="Groupe 35">
        <path id="Tracé_103" data-name="Tracé 103" class="cls-3" d="M80.1016,151.0613a1.9485,1.9485,0,0,1-1.7744-1.0794,2.2257,2.2257,0,0,1,.7082-2.8771l44.0136-25.8974-22.0068-12.9488a1.9554,1.9554,0,0,1-.7082-2.877,1.9047,1.9047,0,0,1,2.8386-.72l25.2015,14.7474a2.05,2.05,0,0,1,0,3.5963L81.1669,150.7022a2.504,2.504,0,0,1-1.0653.3591"/>
        <path id="Tracé_104" data-name="Tracé 104" class="cls-3" d="M80.1016,206.4516,30.7639,177.678v-56.47a2.1295,2.1295,0,1,1,4.2589-.0029V175.16l45.0788,26.2566L125.18,175.16V121.2084a2.13,2.13,0,0,1,4.259-.0029V177.678Z"/>
        <path id="Tracé_105" data-name="Tracé 105" class="cls-3" d="M80.1026,187.7487a2.0647,2.0647,0,0,1-2.1315-1.9957q-.0027-.081.001-.1621V148.9035a2.1305,2.1305,0,0,1,4.26-.0929c.0007.031.0007.0619,0,.0929v36.6874a2.174,2.174,0,0,1-2.13,2.1578"/>
      </g>
    </g>
  </g>
</svg>
