<svg xmlns="http://www.w3.org/2000/svg" width="146.978" height="114.975" viewBox="0 0 146.978 114.975">
  <g id="Grupo_831" data-name="Grupo 831" transform="translate(-313 -1401.025)">
    <g id="Grupo_830" data-name="Grupo 830">
      <circle id="Elipse_63" data-name="Elipse 63" cx="52.5" cy="52.5" r="52.5" transform="translate(313 1411)" fill="#95b71d"/>
    </g>
    <g id="Grupo_761" data-name="Grupo 761" transform="translate(716.554 828.791)">
      <g id="Grupo_12" data-name="Grupo 12" transform="translate(-296.37 589.4)">
        <path id="Caminho_27" data-name="Caminho 27" d="M-301.861,588.232a8.362,8.362,0,0,0-11.812-.206,8.363,8.363,0,0,0-.206,11.81,8.365,8.365,0,0,0,11.813.206,8.363,8.363,0,0,0,.2-11.81m-12.887,12.446a9.574,9.574,0,0,1,.235-13.524,9.574,9.574,0,0,1,13.522.237,9.574,9.574,0,0,1-.235,13.524,9.575,9.575,0,0,1-13.522-.237" transform="translate(318.955 -582.948)" fill="#fff"/>
        <path id="Caminho_28" data-name="Caminho 28" d="M-307.34,605.646a11,11,0,0,1-7.98-3.381,11.017,11.017,0,0,1-3.106-7.9,11.015,11.015,0,0,1,3.381-7.785,11.026,11.026,0,0,1,7.7-3.108,11,11,0,0,1,7.98,3.381,11.1,11.1,0,0,1-.273,15.683A11.027,11.027,0,0,1-307.34,605.646Zm0-17.908a6.793,6.793,0,0,0-4.742,1.912,6.833,6.833,0,0,0-.168,9.651,6.767,6.767,0,0,0,4.911,2.081,6.793,6.793,0,0,0,4.742-1.912,6.781,6.781,0,0,0,2.078-4.792,6.773,6.773,0,0,0-1.91-4.859A6.767,6.767,0,0,0-307.343,587.739Z" transform="translate(318.428 -583.475)" fill="#fff"/>
      </g>
      <path id="Caminho_29" data-name="Caminho 29" d="M-307.34,605.646a11,11,0,0,1-7.98-3.381,11.017,11.017,0,0,1-3.106-7.9,11.015,11.015,0,0,1,3.381-7.785,11.026,11.026,0,0,1,7.7-3.108,11,11,0,0,1,7.98,3.381,11.1,11.1,0,0,1-.273,15.683A11.027,11.027,0,0,1-307.34,605.646Zm0-17.908a6.793,6.793,0,0,0-4.742,1.912,6.833,6.833,0,0,0-.168,9.651,6.767,6.767,0,0,0,4.911,2.081,6.793,6.793,0,0,0,4.742-1.912,6.781,6.781,0,0,0,2.078-4.792,6.773,6.773,0,0,0-1.91-4.859A6.767,6.767,0,0,0-307.343,587.739Z" transform="translate(22.058 5.925)" fill="#fff"/>
      <g id="Grupo_13" data-name="Grupo 13" transform="translate(-360.279 572.234)">
        <path id="Caminho_30" data-name="Caminho 30" d="M-261.794,576.027A51.588,51.588,0,0,0-310.664,589.3a74.631,74.631,0,0,0-8.454,9.643l-.286.391-.446-.188c-12.006-5.039-26.589,5.949-34.872,13.711a62.718,62.718,0,0,1,8.61.915c5.154.915,12.276,2.935,16.941,7.359l.234.22-.049.318a28.039,28.039,0,0,0-.321,7.055l.04.307-2.248,2.172,12.145,12.577,2.248-2.172.305.05a28.123,28.123,0,0,0,7.053-.073l.324-.038.212.247c4.169,4.842,5.9,11.98,6.617,17.115a62.593,62.593,0,0,1,.6,8.529c7.98-7.944,19.4-22.022,15-34.15l-.162-.45.4-.267a74.473,74.473,0,0,0,10.016-8.168,52.066,52.066,0,0,0,14.971-48.371m-95.977,38.048,1.113-1.075c6.073-5.866,11.987-10.242,17.58-13.008,7.241-3.584,13.715-4.309,19.252-2.164a76.238,76.238,0,0,1,8.31-9.417A52.828,52.828,0,0,1-261.2,574.923l.16.069a.76.76,0,0,1,.157.125.82.82,0,0,1,.25.48,51.086,51.086,0,0,1,.905,16.93,52.853,52.853,0,0,1-16.181,32.756,76.01,76.01,0,0,1-9.793,8.037c1.857,5.584.857,11.99-2.975,19.049a72.616,72.616,0,0,1-13.55,17l-1.113,1.075.075-1.548c.008-.171.724-17.125-6.681-26.055a30.4,30.4,0,0,1-6.756.073l-2.694,2.6-13.854-14.344,2.7-2.6a30.383,30.383,0,0,1,.31-6.765c-8.617-7.875-25.8-7.747-25.977-7.744Z" transform="translate(361.601 -571.707)" fill="#fff"/>
        <path id="Caminho_31" data-name="Caminho 31" d="M-303.733,674.742l.263-5.4c.008-.154.611-15.808-5.835-24.379a36.647,36.647,0,0,1-5.525.062l-3.283,3.169-15.975-16.54,3.285-3.172a33.181,33.181,0,0,1,.258-5.546c-8.13-6.75-23.584-6.829-24.254-6.829l-5.479.069,3.883-3.749c6.186-5.974,12.23-10.442,17.963-13.278,7.136-3.531,13.7-4.413,19.381-2.605a78.433,78.433,0,0,1,7.8-8.7,54.058,54.058,0,0,1,38.2-15.607,49.646,49.646,0,0,1,13.626,1.756l.49.215a2.232,2.232,0,0,1,.475.376,2.363,2.363,0,0,1,.654,1.243,52.789,52.789,0,0,1,.925,17.39,54.367,54.367,0,0,1-16.639,33.693,78.134,78.134,0,0,1-9.075,7.559c1.529,5.73.383,12.168-3.411,19.157a74.124,74.124,0,0,1-13.831,17.366Zm-3.754-34.286.742.867c4.409,5.12,6.224,12.559,6.968,17.9.26,1.852.414,3.573.5,5.078,7.09-7.626,15.863-19.728,12.148-29.967l-.567-1.573,1.38-.932a73.112,73.112,0,0,0,9.81-8,50.493,50.493,0,0,0,14.742-46.038,47.815,47.815,0,0,0-11.3-1.284,49.859,49.859,0,0,0-35.22,14.416,73,73,0,0,0-8.28,9.445l-1,1.367-1.559-.657a15.236,15.236,0,0,0-5.928-1.156c-8.831,0-18.441,6.809-24.639,12.172,1.53.145,3.283.365,5.166.7,5.357.95,12.781,3.066,17.723,7.753l.815.768-.173,1.112a27.107,27.107,0,0,0-.316,6.623l.142,1.069-1.7,1.645,10.024,10.381,1.7-1.643,1.061.174a19.6,19.6,0,0,0,2.707.153,34.12,34.12,0,0,0,3.925-.235Z" transform="translate(360.279 -572.234)" fill="#fff"/>
      </g>
      <path id="Caminho_32" data-name="Caminho 32" d="M-303.733,674.742l.263-5.4c.008-.154.611-15.808-5.835-24.379a36.647,36.647,0,0,1-5.525.062l-3.283,3.169-15.975-16.54,3.285-3.172a33.181,33.181,0,0,1,.258-5.546c-8.13-6.75-23.584-6.829-24.254-6.829l-5.479.069,3.883-3.749c6.186-5.974,12.23-10.442,17.963-13.278,7.136-3.531,13.7-4.413,19.381-2.605a78.433,78.433,0,0,1,7.8-8.7,54.058,54.058,0,0,1,38.2-15.607,49.646,49.646,0,0,1,13.626,1.756l.49.215a2.232,2.232,0,0,1,.475.376,2.363,2.363,0,0,1,.654,1.243,52.789,52.789,0,0,1,.925,17.39,54.367,54.367,0,0,1-16.639,33.693,78.134,78.134,0,0,1-9.075,7.559c1.529,5.73.383,12.168-3.411,19.157a74.124,74.124,0,0,1-13.831,17.366Zm-3.754-34.286.742.867c4.409,5.12,6.224,12.559,6.968,17.9.26,1.852.414,3.573.5,5.078,7.09-7.626,15.863-19.728,12.148-29.967l-.567-1.573,1.38-.932a73.112,73.112,0,0,0,9.81-8,50.493,50.493,0,0,0,14.742-46.038,47.815,47.815,0,0,0-11.3-1.284,49.859,49.859,0,0,0-35.22,14.416,73,73,0,0,0-8.28,9.445l-1,1.367-1.559-.657a15.236,15.236,0,0,0-5.928-1.156c-8.831,0-18.441,6.809-24.639,12.172,1.53.145,3.283.365,5.166.7,5.357.95,12.781,3.066,17.723,7.753l.815.768-.173,1.112a27.107,27.107,0,0,0-.316,6.623l.142,1.069-1.7,1.645,10.024,10.381,1.7-1.643,1.061.174a19.6,19.6,0,0,0,2.707.153,34.12,34.12,0,0,0,3.925-.235Z" fill="#fff"/>
      <g id="Grupo_14" data-name="Grupo 14" transform="translate(-344.876 636.85)">
        <path id="Caminho_33" data-name="Caminho 33" d="M-349.1,621.742a.531.531,0,0,1,.125-.724l5.468-5.282a.533.533,0,0,1,.728-.1.533.533,0,0,1-.125.724l-5.47,5.282a.531.531,0,0,1-.727.1" transform="translate(350.719 -614.029)" fill="#fff"/>
        <path id="Caminho_34" data-name="Caminho 34" d="M-348.3,623.892a1.88,1.88,0,0,1-1.37-.574,1.875,1.875,0,0,1-.521-1.351,2.207,2.207,0,0,1,.69-1.532l5.465-5.279a2.1,2.1,0,0,1,2.888-.061,2.026,2.026,0,0,1-.16,2.882l-5.471,5.284A2.225,2.225,0,0,1-348.3,623.892Z" transform="translate(350.192 -614.548)" fill="#fff"/>
      </g>
      <path id="Caminho_35" data-name="Caminho 35" d="M-348.3,623.892a1.88,1.88,0,0,1-1.37-.574,1.875,1.875,0,0,1-.521-1.351,2.207,2.207,0,0,1,.69-1.532l5.465-5.279a2.1,2.1,0,0,1,2.888-.061,2.026,2.026,0,0,1-.16,2.882l-5.471,5.284A2.225,2.225,0,0,1-348.3,623.892Z" transform="translate(5.316 22.302)" fill="#fff"/>
      <g id="Grupo_15" data-name="Grupo 15" transform="translate(-355.133 650.111)">
        <path id="Caminho_36" data-name="Caminho 36" d="M-355.814,633.041a.537.537,0,0,1,.13-.728l8.168-7.889a.538.538,0,0,1,.733-.1.537.537,0,0,1-.13.728l-8.168,7.889a.538.538,0,0,1-.733.1" transform="translate(357.436 -622.713)" fill="#fff"/>
        <path id="Caminho_37" data-name="Caminho 37" d="M-355.02,635.192a1.874,1.874,0,0,1-1.367-.574,1.873,1.873,0,0,1-.522-1.348,2.219,2.219,0,0,1,.695-1.539l8.164-7.886a2.1,2.1,0,0,1,2.892-.066,1.871,1.871,0,0,1,.524,1.35,2.21,2.21,0,0,1-.695,1.541l-8.164,7.886A2.242,2.242,0,0,1-355.02,635.192Z" transform="translate(356.909 -623.232)" fill="#fff"/>
      </g>
      <path id="Caminho_38" data-name="Caminho 38" d="M-355.02,635.192a1.874,1.874,0,0,1-1.367-.574,1.873,1.873,0,0,1-.522-1.348,2.219,2.219,0,0,1,.695-1.539l8.164-7.886a2.1,2.1,0,0,1,2.892-.066,1.871,1.871,0,0,1,.524,1.35,2.21,2.21,0,0,1-.695,1.541l-8.164,7.886A2.242,2.242,0,0,1-355.02,635.192Z" transform="translate(1.776 26.879)" fill="#fff"/>
      <g id="Grupo_16" data-name="Grupo 16" transform="translate(-338.305 643.753)">
        <path id="Caminho_39" data-name="Caminho 39" d="M-344.791,627.163a.533.533,0,0,1,.127-.725l6.4-6.18a.532.532,0,0,1,.728-.1.534.534,0,0,1-.127.725l-6.4,6.178a.534.534,0,0,1-.73.1" transform="translate(346.418 -618.549)" fill="#fff"/>
        <path id="Caminho_40" data-name="Caminho 40" d="M-344,629.313a1.878,1.878,0,0,1-1.364-.568,2.026,2.026,0,0,1,.163-2.889l6.4-6.179a2.093,2.093,0,0,1,2.889-.06,1.862,1.862,0,0,1,.522,1.341,2.209,2.209,0,0,1-.689,1.541l-6.4,6.179A2.223,2.223,0,0,1-344,629.313Z" transform="translate(345.889 -619.068)" fill="#fff"/>
      </g>
      <path id="Caminho_41" data-name="Caminho 41" d="M-344,629.313a1.878,1.878,0,0,1-1.364-.568,2.026,2.026,0,0,1,.163-2.889l6.4-6.179a2.093,2.093,0,0,1,2.889-.06,1.862,1.862,0,0,1,.522,1.341,2.209,2.209,0,0,1-.689,1.541l-6.4,6.179A2.223,2.223,0,0,1-344,629.313Z" transform="translate(7.584 24.684)" fill="#fff"/>
      <g id="Grupo_17" data-name="Grupo 17" transform="translate(-338.007 654.491)">
        <path id="Caminho_42" data-name="Caminho 42" d="M-344.6,634.737a.536.536,0,0,1,.128-.727l6.957-6.719a.536.536,0,0,1,.731-.1.536.536,0,0,1-.128.727l-6.957,6.719a.536.536,0,0,1-.731.1" transform="translate(346.222 -625.581)" fill="#fff"/>
        <path id="Caminho_43" data-name="Caminho 43" d="M-343.8,636.887a1.876,1.876,0,0,1-1.365-.571,2.025,2.025,0,0,1,.166-2.885l6.956-6.719a2.1,2.1,0,0,1,2.894-.062,1.875,1.875,0,0,1,.521,1.344,2.214,2.214,0,0,1-.69,1.539l-6.956,6.719A2.234,2.234,0,0,1-343.8,636.887Z" transform="translate(345.694 -626.1)" fill="#fff"/>
      </g>
      <path id="Caminho_44" data-name="Caminho 44" d="M-343.8,636.887a1.876,1.876,0,0,1-1.365-.571,2.025,2.025,0,0,1,.166-2.885l6.956-6.719a2.1,2.1,0,0,1,2.894-.062,1.875,1.875,0,0,1,.521,1.344,2.214,2.214,0,0,1-.69,1.539l-6.956,6.719A2.234,2.234,0,0,1-343.8,636.887Z" transform="translate(7.687 28.391)" fill="#fff"/>
      <g id="Grupo_18" data-name="Grupo 18" transform="translate(-353.194 663.63)">
        <path id="Caminho_45" data-name="Caminho 45" d="M-354.541,638.467a.529.529,0,0,1,.122-.721l4.635-4.476a.528.528,0,0,1,.724-.1.529.529,0,0,1-.122.721l-4.633,4.476a.531.531,0,0,1-.725.1" transform="translate(356.168 -631.566)" fill="#fff"/>
        <path id="Caminho_46" data-name="Caminho 46" d="M-353.742,640.618a1.878,1.878,0,0,1-1.368-.573,2.021,2.021,0,0,1,.159-2.878l4.635-4.476a2.092,2.092,0,0,1,2.883-.059,2.023,2.023,0,0,1-.159,2.878l-4.633,4.477A2.218,2.218,0,0,1-353.742,640.618Z" transform="translate(355.639 -632.085)" fill="#fff"/>
      </g>
      <path id="Caminho_47" data-name="Caminho 47" d="M-353.742,640.618a1.878,1.878,0,0,1-1.368-.573,2.021,2.021,0,0,1,.159-2.878l4.635-4.476a2.092,2.092,0,0,1,2.883-.059,2.023,2.023,0,0,1-.159,2.878l-4.633,4.477A2.218,2.218,0,0,1-353.742,640.618Z" transform="translate(2.445 31.545)" fill="#fff"/>
    </g>
  </g>
</svg>
