<svg id="Calque_1" data-name="Calque 1" xmlns="http://www.w3.org/2000/svg" width="150" height="150" viewBox="0 0 150 150">
  <defs>
    <style>
      .cls-1 {
        fill: #95b71d;
      }

      .cls-2 {
        fill: #2755a1;
      }
    </style>
  </defs>
  <g id="Groupe_835" data-name="Groupe 835">
    <circle id="Ellipse_106" data-name="Ellipse 106" class="cls-1" cx="75.0855" cy="61.6135" r="52.5"/>
    <g id="Groupe_810" data-name="Groupe 810">
      <path id="Tracé_703" data-name="Tracé 703" class="cls-2" d="M28.7475,72.1335a1.736,1.736,0,0,1-.435-3.444,141.28,141.28,0,0,1,18.283-1.13,152.0336,152.0336,0,0,1,17.956,1.122,1.743,1.743,0,0,1-.407,3.461,147.9214,147.9214,0,0,0-17.549-1.114,137.9011,137.9011,0,0,0-17.847,1.105Z"/>
      <path id="Tracé_704" data-name="Tracé 704" class="cls-2" d="M28.7475,84.6465a1.735,1.735,0,0,1-.5-3.4338c.0217-.0031.0434-.0059.0651-.0082a141.3005,141.3005,0,0,1,18.283-1.136,151.4459,151.4459,0,0,1,17.964,1.128,1.742,1.742,0,0,1-.3964,3.4614l-.0276-.0034a147.2642,147.2642,0,0,0-17.54-1.114A138.8683,138.8683,0,0,0,28.7475,84.6465Z"/>
      <path id="Tracé_705" data-name="Tracé 705" class="cls-2" d="M28.7475,97.1565a1.735,1.735,0,0,1-.5-3.4338c.0217-.0031.0434-.0059.0651-.0082a141.2466,141.2466,0,0,1,18.283-1.133,151.3521,151.3521,0,0,1,17.956,1.125,1.741,1.741,0,0,1-.3761,3.4616l-.0309-.0036a148.5181,148.5181,0,0,0-17.549-1.114,138.8889,138.8889,0,0,0-17.847,1.105Z"/>
      <path id="Tracé_706" data-name="Tracé 706" class="cls-2" d="M28.7475,109.67a1.735,1.735,0,0,1-.5009-3.4337c.0219-.0032.0439-.0059.0659-.0083a141.8,141.8,0,0,1,18.283-1.133,151.97,151.97,0,0,1,17.956,1.125,1.741,1.741,0,1,1-.3779,3.4614l-.0291-.0034a149.12,149.12,0,0,0-17.549-1.114,138.9069,138.9069,0,0,0-17.847,1.105Z"/>
      <path id="Tracé_707" data-name="Tracé 707" class="cls-2" d="M121.2955,68.6915a1.736,1.736,0,0,1-.432,3.444,137.5123,137.5123,0,0,0-17.847-1.108,147.857,147.857,0,0,0-17.54,1.116,1.744,1.744,0,1,1-.5119-3.45q.0438-.0066.0879-.0108a152.02,152.02,0,0,1,17.964-1.125,140.7209,140.7209,0,0,1,18.28,1.133Z"/>
      <path id="Tracé_708" data-name="Tracé 708" class="cls-2" d="M121.2955,81.2045a1.7345,1.7345,0,1,1-.432,3.442h0a138.8878,138.8878,0,0,0-17.847-1.105,147.2642,147.2642,0,0,0-17.54,1.114,1.742,1.742,0,1,1-.4513-3.4546l.0273-.0034a151.4459,151.4459,0,0,1,17.964-1.128A141.2214,141.2214,0,0,1,121.2955,81.2045Z"/>
      <path id="Tracé_709" data-name="Tracé 709" class="cls-2" d="M121.2985,93.7175a1.7345,1.7345,0,1,1-.432,3.442h0a138.42,138.42,0,0,0-17.847-1.105,148.5194,148.5194,0,0,0-17.549,1.114,1.741,1.741,0,1,1-.42-3.4565l.0124-.0015a151.3759,151.3759,0,0,1,17.956-1.125A140.6847,140.6847,0,0,1,121.2985,93.7175Z"/>
      <path id="Tracé_710" data-name="Tracé 710" class="cls-2" d="M121.2985,106.2235a1.7345,1.7345,0,1,1-.432,3.442,138.9238,138.9238,0,0,0-17.847-1.105,149.12,149.12,0,0,0-17.549,1.114,1.741,1.741,0,1,1-.4151-3.4571l.0071-.0009a151.9715,151.9715,0,0,1,17.956-1.125A141.717,141.717,0,0,1,121.2985,106.2235Z"/>
      <path id="Tracé_711" data-name="Tracé 711" class="cls-2" d="M129.7975,51.5535a156.6744,156.6744,0,0,0-26.617-2.069,192.74,192.74,0,0,0-26.634,2.1v84.982a132.313,132.313,0,0,1,26.175-7.386,120.1041,120.1041,0,0,1,27.078-1.544V51.5535Zm-56.738.033a192.7281,192.7281,0,0,0-26.631-2.1,156.73,156.73,0,0,0-26.62,2.068v76.11a129.8919,129.8919,0,0,1,27.7,1.675,125.5507,125.5507,0,0,1,25.551,7.213Zm-62.73,89.3a1.749,1.749,0,0,1-1.745-1.745V57.3645a1.746,1.746,0,0,1,1.745-1.742h5.992v-5.538a1.748,1.748,0,0,1,1.446-1.717,159.2027,159.2027,0,0,1,28.673-2.353,198.3707,198.3707,0,0,1,28.362,2.308,198.5282,198.5282,0,0,1,28.367-2.308,159.372,159.372,0,0,1,28.6,2.339,1.7469,1.7469,0,0,1,1.518,1.731v5.538h6.386a1.744,1.744,0,0,1,1.742,1.742V139.14a1.7459,1.7459,0,0,1-1.742,1.745Zm5.992-81.777h-4.247v78.288h53.226a122.5063,122.5063,0,0,0-18.38-4.628,127.1579,127.1579,0,0,0-28.619-1.555,1.7371,1.7371,0,0,1-1.98-1.721Zm68.081,78.289h53.519V59.11H133.28l-.004,70.505a1.74,1.74,0,0,1-1.859,1.611,116.6557,116.6557,0,0,0-28.107,1.389,126.2868,126.2868,0,0,0-18.905,4.787Z"/>
    </g>
  </g>
</svg>
