<svg id="Calque_1" data-name="Calque 1" xmlns="http://www.w3.org/2000/svg" width="220" height="220" viewBox="0 0 220 220">
  <defs>
    <style>
      .cls-1 {
        fill: #95b71d;
      }

      .cls-2 {
        fill: #fff;
      }

      .cls-3 {
        fill: #2755a1;
      }
    </style>
  </defs>
  <g id="Groupe_979" data-name="Groupe 979">
    <ellipse id="Ellipse_16" data-name="Ellipse 16" class="cls-1" cx="138.7594" cy="101.8779" rx="76" ry="75.5"/>
    <g id="Groupe_30" data-name="Groupe 30">
      <path id="Tracé_76" data-name="Tracé 76" class="cls-2" d="M21.7686,186.3239l4.2264-2.2732,4.2754,2.1247-.8942-4.6443,3.3812-3.41-4.7737-.5923-2.19-4.25-2.0385,4.2993-4.7239.7408,3.4809,3.31Z"/>
      <path id="Tracé_77" data-name="Tracé 77" class="cls-3" d="M28.0306,110.3714l-2.1879-4.25-2.0376,4.3021-4.7238.7418,3.4808,3.31-.7456,4.696,4.2255-2.2733,4.2763,2.1248-.8951-4.6443,3.3811-3.41Z"/>
      <path id="Tracé_80" data-name="Tracé 80" class="cls-2" d="M130.101,162.6663l4.2264-2.2733,4.2754,2.1746-.8942-4.696,3.38-3.36-4.7229-.6431-2.188-4.25-2.0883,4.2984-4.7238.7906,3.4808,3.2585Z"/>
      <path class="cls-2" d="M154.3274,102.0341V84.4473a12.82,12.82,0,0,0-.5915-3.8981l-.2121.0664-.0018-.0047.2111-.0674a13.1,13.1,0,0,0-3.3254-5.3815l-.116-.1151c-.2565-.2527-.52-.512-.803-.7413l-.3735-.2779-.0149.0028c-.2-.1619-.4044-.32-.6234-.4652a13.16,13.16,0,0,0-3.4254-1.6331l-.16-.0852-.117.0122a13.1531,13.1531,0,0,0-3.6893-.5812H124.3462V64.924c0-3.9636-3.7081-7.1878-8.2492-7.1878a9.2656,9.2656,0,0,0-1.5752.1029,7.9562,7.9562,0,0,0-6.586,5.6,5.9216,5.9216,0,0,0-.1058.7048,6.1359,6.1359,0,0,0-.0589.7758v6.3549H50.1167v-6.35c0-3.3567-2.6632-6.1747-6.2466-6.9618l.0115-.01h-.0557a9.3967,9.3967,0,0,0-1.9762-.2162c-4.586,0-8.3166,3.2242-8.3166,7.1878v6.3549H18.4854a13.2274,13.2274,0,0,0-12.647,9.2684,12.8181,12.8181,0,0,0-.5915,3.8953v17.55a2.1691,2.1691,0,0,0,0,.33V180.56a13.13,13.13,0,0,0,13.1646,13.0607H141.0794c.04,0,.08.001.12.001a13.1325,13.1325,0,0,0,13.1282-13.0654L154.3246,102.3A1.7115,1.7115,0,0,0,154.3274,102.0341Zm-4.3043,69.0529v9.465a8.7963,8.7963,0,0,1-8.7874,8.7789h-.0074l-23.0966-.0019V171.087Zm0-22.2374v17.9453H118.1317V148.85Zm0-22.2374V144.56H118.1317V126.6122Zm0-22.4367V122.32H118.1307V104.1755ZM81.9369,144.5584V126.6122h31.8914l-.0009,17.9462Zm0,22.2346V148.85h31.8914l-.0009,17.9434Zm31.8914,4.294-.0009,18.24H81.9369v-18.24Zm0-66.9087v18.1446H81.9369V104.1783ZM77.6345,171.087l-.0009,18.243H45.7422V171.087Zm-31.8923-4.2911V148.85H77.6345l-.0009,17.9463Zm0-22.2346V126.6122H77.6345l-.0009,17.9491Zm31.8914-40.383v18.1446H45.7412V104.1783ZM41.4388,171.087v18.242h-22.97a8.7852,8.7852,0,0,1-8.92-8.6544l-.001-9.5876Zm0-22.2374v17.9453H9.5474V148.85Zm0-22.2374V144.56H9.5474V126.6122Zm0-22.4367V122.32H9.5474V104.1755Zm70.6731-30.73a1.38,1.38,0,0,0,.0028-.2208V64.9268a2.0416,2.0416,0,0,1,.0524-.4576,3.2242,3.2242,0,0,1,2.1928-2.1358,5.156,5.156,0,0,1,.8349-.1722,5.5471,5.5471,0,0,1,.8816-.0814c2.4175,0,3.914,1.4778,3.914,2.8461V80.3227a2.2374,2.2374,0,0,1-.599,1.4619,3.8039,3.8039,0,0,1-.3678.4146,4.325,4.325,0,0,1-2.0216.847,6.4667,6.4667,0,0,1-.9256.0421c-2.4184,0-3.9412-1.4348-3.9664-2.6936l.0047-.0767Zm-78.43,8.2408.0328.1891a6.605,6.605,0,0,0,1.0407,2.1675l-.0149.0693.3229.3687a7.19,7.19,0,0,0,1.0164.9566,9.2942,9.2942,0,0,0,11.4986-.0038,7.31,7.31,0,0,0,1.0258-1.0164A6.4821,6.4821,0,0,0,50.1167,80.34V75.6159h57.6459v4.718a6.272,6.272,0,0,0,.1807,1.533,5.9978,5.9978,0,0,0,.5185,1.3262,7.1619,7.1619,0,0,0,.8386,1.2953,8.7891,8.7891,0,0,0,6.7694,2.9388,8.9788,8.9788,0,0,0,5.7354-1.9935,7.1975,7.1975,0,0,0,1.0238-1.0155,6.4828,6.4828,0,0,0,1.5181-4.0768V75.6169H141.04a9.12,9.12,0,0,1,5.6717,1.9766l.3828.321.03-.0056a8.941,8.941,0,0,1,1.3749,1.5873c.16.2359.3117.46.4511.7151a8.6293,8.6293,0,0,1,1.0735,4.2331V99.8918H9.5474V84.44a8.8042,8.8042,0,0,1,.0449-.8966,8.5757,8.5757,0,0,1,1.0333-3.34c.1366-.2518.29-.4774.4464-.71a8.98,8.98,0,0,1,1.3786-1.5911l.0206.0038.3482-.28a9.1388,9.1388,0,0,1,5.7147-2.0112h14.999v4.7282A6.3314,6.3314,0,0,0,33.6819,81.6863Zm12.08-1.3636a2.23,2.23,0,0,1-.599,1.4619,3.6973,3.6973,0,0,1-.3687.4146,4.31,4.31,0,0,1-2.0207.847,6.1154,6.1154,0,0,1-.948.0421,4.8307,4.8307,0,0,1-2.8658-.8442l-.0833-.0758a3.3388,3.3388,0,0,1-.4436-.4427,2.122,2.122,0,0,1-.5476-1.3852L37.887,64.924a2.0871,2.0871,0,0,1,.0515-.4586,3.2266,3.2266,0,0,1,2.1928-2.1348,5.1476,5.1476,0,0,1,.8358-.1722,5.5393,5.5393,0,0,1,.8807-.0815c2.4175,0,3.914,1.4779,3.914,2.8462Z"/>
      <path id="Tracé_85" data-name="Tracé 85" class="cls-1" d="M130.5926,141.2149l4.2265-2.2733,4.2753,2.1248-.8942-4.6443,3.38-3.41-4.7727-.5922-2.188-4.25-2.0375,4.2993-4.7239.7408,3.48,3.31Z"/>
      <path id="Tracé_86" data-name="Tracé 86" class="cls-2" d="M56.8645,142.2576l4.2264-2.2732,4.2753,2.1247-.8941-4.6443,3.3811-3.41-4.7727-.5923-2.188-4.2552-2.0384,4.2992-4.7239.7409,3.4808,3.3112Z"/>
      <path id="Tracé_87" data-name="Tracé 87" class="cls-3" d="M92.6417,185.8419l4.2265-2.2733,4.2753,2.1247-.8941-4.6453,3.3811-3.41-4.7727-.5922-2.188-4.25-2.0385,4.2993-4.7238.7409,3.4808,3.31Z"/>
      <path id="Tracé_88" data-name="Tracé 88" class="cls-2" d="M101.5317,111.4342l-2.188-4.25-2.0385,4.2993-4.7238.7418,3.4808,3.31-.7456,4.6961,4.2255-2.2733,4.2763,2.1247-.8952-4.6443,3.3812-3.41Z"/>
    </g>
  </g>
</svg>
