<svg xmlns="http://www.w3.org/2000/svg" xmlns:xlink="http://www.w3.org/1999/xlink" width="156" height="125.616" viewBox="0 0 156 125.616">
  <defs>
    <clipPath id="clip-path">
      <rect id="Retângulo_1063" data-name="Retângulo 1063" width="102" height="125.616" fill="#2755a1"/>
    </clipPath>
  </defs>
  <g id="Grupo_982" data-name="Grupo 982" transform="translate(-855 -4619)">
    <circle id="Elipse_151" data-name="Elipse 151" cx="52.5" cy="52.5" r="52.5" transform="translate(855 4629)" fill="#95b71d"/>
    <g id="Grupo_936" data-name="Grupo 936" transform="translate(-694 2904.704)">
      <g id="Grupo_935" data-name="Grupo 935" transform="translate(1603 1714.296)">
        <g id="Grupo_934" data-name="Grupo 934" clip-path="url(#clip-path)">
          <path id="Caminho_777" data-name="Caminho 777" d="M1700.75,1833.833a2.077,2.077,0,0,1-2.125,2.026h-89.249a2.079,2.079,0,0,1-2.127-2.026V1724.427a2.08,2.08,0,0,1,2.127-2.026h23.373v4.052h-19.124a2.076,2.076,0,0,0-2.125,2.026v101.3a2.074,2.074,0,0,0,2.125,2.026h55.249a2.184,2.184,0,0,0,1.506-.595l25.494-24.307a1.979,1.979,0,0,0,.626-1.436v-76.991a2.075,2.075,0,0,0-2.125-2.026H1675.25V1722.4h23.376a2.078,2.078,0,0,1,2.125,2.026Zm-11.5-26.337-18.246,17.4v-17.4Zm-16.121-72.939a2.077,2.077,0,0,0,2.125-2.026v-2.026h17v72.938h-23.375a2.074,2.074,0,0,0-2.125,2.026v22.285h-51v-97.25h17v2.026a2.077,2.077,0,0,0,2.125,2.026ZM1637,1718.348h34v12.157h-34Zm61.626,0H1675.25v-2.026a2.077,2.077,0,0,0-2.125-2.026h-38.25a2.077,2.077,0,0,0-2.125,2.026v2.026h-23.373a6.24,6.24,0,0,0-6.377,6.078v109.407a6.24,6.24,0,0,0,6.377,6.078h89.249a6.239,6.239,0,0,0,6.375-6.078V1724.427a6.239,6.239,0,0,0-6.375-6.078" transform="translate(-1603 -1714.296)" fill="#2755a1"/>
          <path id="Caminho_778" data-name="Caminho 778" d="M1627.576,1743.257h-12.751V1731.1h9.747l-7,6.671,3,2.865,7-6.671Zm-14.874-16.209a2.077,2.077,0,0,0-2.125,2.026v16.209a2.077,2.077,0,0,0,2.125,2.026h17a2.079,2.079,0,0,0,2.127-2.026v-15.37l3.624-3.46-3-2.863-3.626,3.458Z" transform="translate(-1593.576 -1702.736)" fill="#2755a1"/>
          <path id="Caminho_779" data-name="Caminho 779" d="M1627.576,1754.093h-12.749v-12.157h9.745l-7,6.671,3,2.865,7-6.671Zm1.246-16.209H1612.7a2.077,2.077,0,0,0-2.125,2.026v16.209a2.075,2.075,0,0,0,2.125,2.026h17a2.075,2.075,0,0,0,2.125-2.026v-15.37l3.628-3.46-3-2.863Z" transform="translate(-1593.576 -1689.259)" fill="#2755a1"/>
          <path id="Caminho_780" data-name="Caminho 780" d="M1627.576,1764.928h-12.749v-12.157h9.745l-7,6.673,3,2.865,7-6.673Zm4.874-19.667-3.628,3.458H1612.7a2.075,2.075,0,0,0-2.125,2.026v16.209a2.076,2.076,0,0,0,2.125,2.026h17a2.078,2.078,0,0,0,2.127-2.026v-15.37l3.626-3.458Z" transform="translate(-1593.576 -1675.782)" fill="#2755a1"/>
        </g>
      </g>
      <rect id="Retângulo_1064" data-name="Retângulo 1064" width="4.25" height="4.052" transform="translate(1645.5 1738.607)" fill="#2755a1"/>
      <rect id="Retângulo_1065" data-name="Retângulo 1065" width="34" height="4.052" transform="translate(1653.999 1738.607)" fill="#2755a1"/>
      <rect id="Retângulo_1066" data-name="Retângulo 1066" width="4.25" height="4.052" transform="translate(1683.749 1746.712)" fill="#2755a1"/>
      <rect id="Retângulo_1067" data-name="Retângulo 1067" width="34" height="4.052" transform="translate(1645.5 1746.712)" fill="#2755a1"/>
      <rect id="Retângulo_1068" data-name="Retângulo 1068" width="4.25" height="4.052" transform="translate(1645.5 1762.921)" fill="#2755a1"/>
      <rect id="Retângulo_1069" data-name="Retângulo 1069" width="34" height="4.052" transform="translate(1653.999 1762.921)" fill="#2755a1"/>
      <rect id="Retângulo_1070" data-name="Retângulo 1070" width="4.25" height="4.052" transform="translate(1683.749 1771.025)" fill="#2755a1"/>
      <rect id="Retângulo_1071" data-name="Retângulo 1071" width="34" height="4.052" transform="translate(1645.5 1771.025)" fill="#2755a1"/>
      <rect id="Retângulo_1072" data-name="Retângulo 1072" width="4.25" height="4.052" transform="translate(1645.5 1787.234)" fill="#2755a1"/>
      <rect id="Retângulo_1073" data-name="Retângulo 1073" width="34" height="4.052" transform="translate(1653.999 1787.234)" fill="#2755a1"/>
      <rect id="Retângulo_1074" data-name="Retângulo 1074" width="4.25" height="4.052" transform="translate(1683.749 1795.339)" fill="#2755a1"/>
      <rect id="Retângulo_1075" data-name="Retângulo 1075" width="34" height="4.052" transform="translate(1645.5 1795.339)" fill="#2755a1"/>
    </g>
  </g>
</svg>
