<svg xmlns="http://www.w3.org/2000/svg" width="123.596" height="147.101" viewBox="0 0 123.596 147.101">
  <g id="Grupo_1031" data-name="Grupo 1031" transform="translate(-898 -3770)">
    <circle id="Elipse_221" data-name="Elipse 221" cx="52.5" cy="52.5" r="52.5" transform="translate(908 3770)" fill="#95b71d"/>
    <g id="Grupo_995" data-name="Grupo 995" transform="translate(-1173.09 2134.479)">
      <g id="Grupo_958" data-name="Grupo 958" transform="translate(2072.09 1693.092)">
        <g id="Grupo_954" data-name="Grupo 954">
          <g id="Grupo_952" data-name="Grupo 952" transform="translate(0 29.401)">
            <path id="Caminho_803" data-name="Caminho 803" d="M2117.357,1758.506c-4.827-2.775-11.3-4.3-18.23-4.3s-13.4,1.529-18.23,4.3c-5.6,3.218-8.556,7.841-8.556,13.368V1813h53.573v-41.124C2125.914,1766.347,2122.955,1761.724,2117.357,1758.506Zm6.592,52.527H2074.3v-39.159c0-6.044,4.117-9.679,7.572-11.665,4.533-2.607,10.66-4.042,17.251-4.042s12.718,1.435,17.251,4.042c3.454,1.985,7.571,5.621,7.571,11.665Z" transform="translate(-2072.173 -1754.036)" fill="#2755a1" stroke="#2755a1" stroke-width="2"/>
            <path id="Caminho_804" data-name="Caminho 804" d="M2126,1813.082H2072.09v-41.291c0-5.59,2.988-10.263,8.64-13.513,4.852-2.789,11.356-4.325,18.314-4.325s13.461,1.536,18.314,4.325c5.652,3.25,8.64,7.923,8.64,13.513Zm-53.574-.333h53.24v-40.957c0-5.463-2.93-10.037-8.473-13.224-4.8-2.761-11.248-4.281-18.147-4.281s-13.345,1.521-18.147,4.281c-5.543,3.187-8.473,7.76-8.473,13.224Zm51.609-1.632h-49.978v-39.325c0-6.124,4.163-9.8,7.656-11.809,4.559-2.621,10.714-4.064,17.333-4.064s12.775,1.443,17.334,4.064c3.492,2.008,7.655,5.686,7.655,11.809Zm-49.644-.333H2123.7v-38.992c0-5.964-4.072-9.557-7.488-11.52-4.508-2.592-10.6-4.02-17.167-4.02s-12.66,1.428-17.167,4.02c-3.416,1.963-7.489,5.555-7.489,11.52Z" transform="translate(-2072.09 -1753.953)" fill="#2755a1" stroke="#2755a1" stroke-width="2"/>
          </g>
          <g id="Grupo_953" data-name="Grupo 953" transform="translate(12.427)">
            <path id="Caminho_805" data-name="Caminho 805" d="M2095.586,1734.955a14.126,14.126,0,0,0,9.77,3.836h0a14.511,14.511,0,0,0,9.721-3.7,14.347,14.347,0,0,0,3.566-15.869,14.313,14.313,0,1,0-23.057,15.73Zm-1.741-15.049a12.328,12.328,0,0,1,22.97.035,12.234,12.234,0,0,1-3.06,13.7,12.542,12.542,0,0,1-8.4,3.185h0a12.369,12.369,0,0,1-11.511-16.922Z" transform="translate(-2090.809 -1709.946)" fill="#2755a1" stroke="#2755a1" stroke-width="2"/>
            <path id="Caminho_806" data-name="Caminho 806" d="M2105.272,1738.875a14.506,14.506,0,1,1,13.441-19.793,14.512,14.512,0,0,1-3.607,16.052A14.687,14.687,0,0,1,2105.272,1738.875Zm-.021-28.678a14.172,14.172,0,0,0,.02,28.345h0a14.353,14.353,0,0,0,9.609-3.654,14.181,14.181,0,0,0,3.521-15.684A13.883,13.883,0,0,0,2105.252,1710.2Zm.021,26.716a12.383,12.383,0,1,1,8.512-3.229A12.709,12.709,0,0,1,2105.272,1736.912Zm-.021-24.753a12.21,12.21,0,0,0,.02,24.419,12.376,12.376,0,0,0,8.288-3.143,12.3,12.3,0,0,0-8.308-21.276Z" transform="translate(-2090.725 -1709.863)" fill="#2755a1" stroke="#2755a1" stroke-width="2"/>
          </g>
        </g>
        <g id="Grupo_957" data-name="Grupo 957" transform="translate(67.689)">
          <g id="Grupo_955" data-name="Grupo 955" transform="translate(0 29.401)">
            <path id="Caminho_807" data-name="Caminho 807" d="M2218.862,1758.506c-4.827-2.775-11.3-4.3-18.23-4.3s-13.4,1.529-18.23,4.3c-5.6,3.218-8.556,7.841-8.556,13.368V1813h53.573v-41.124C2227.418,1766.347,2224.459,1761.724,2218.862,1758.506Zm6.592,52.527H2175.81v-39.159c0-6.044,4.117-9.679,7.571-11.665,4.533-2.607,10.66-4.042,17.251-4.042s12.718,1.435,17.251,4.042c3.454,1.985,7.572,5.621,7.572,11.665Z" transform="translate(-2173.678 -1754.036)" fill="#2755a1" stroke="#2755a1" stroke-width="2"/>
            <path id="Caminho_808" data-name="Caminho 808" d="M2227.5,1813.082h-53.907v-41.291c0-5.59,2.988-10.263,8.64-13.513,4.852-2.789,11.356-4.325,18.313-4.325s13.461,1.536,18.314,4.325c5.651,3.25,8.64,7.923,8.64,13.513Zm-53.574-.333h53.241v-40.957c0-5.463-2.93-10.037-8.473-13.224-4.8-2.761-11.249-4.281-18.148-4.281s-13.345,1.521-18.147,4.281c-5.543,3.187-8.473,7.76-8.473,13.224Zm51.609-1.632H2175.56v-39.325c0-6.124,4.163-9.8,7.655-11.809,4.558-2.621,10.714-4.064,17.333-4.064s12.776,1.443,17.334,4.064c3.491,2.008,7.655,5.686,7.655,11.809Zm-49.644-.333H2225.2v-38.992c0-5.964-4.072-9.557-7.488-11.52-4.508-2.592-10.605-4.02-17.167-4.02s-12.659,1.428-17.167,4.02c-3.417,1.963-7.489,5.555-7.489,11.52Z" transform="translate(-2173.595 -1753.953)" fill="#2755a1" stroke="#2755a1" stroke-width="2"/>
          </g>
          <g id="Grupo_956" data-name="Grupo 956" transform="translate(12.427)">
            <path id="Caminho_809" data-name="Caminho 809" d="M2197.091,1734.955a14.126,14.126,0,0,0,9.77,3.836h0a14.512,14.512,0,0,0,9.721-3.7,14.346,14.346,0,0,0,3.566-15.869,14.313,14.313,0,1,0-23.057,15.73Zm-1.741-15.049a12.328,12.328,0,0,1,22.97.035,12.234,12.234,0,0,1-3.06,13.7,12.542,12.542,0,0,1-8.4,3.185h0a12.369,12.369,0,0,1-11.511-16.922Z" transform="translate(-2192.314 -1709.946)" fill="#2755a1" stroke="#2755a1" stroke-width="2"/>
            <path id="Caminho_810" data-name="Caminho 810" d="M2206.778,1738.875a14.506,14.506,0,1,1,13.441-19.793,14.512,14.512,0,0,1-3.607,16.052A14.689,14.689,0,0,1,2206.778,1738.875Zm-.021-28.678a14.172,14.172,0,0,0,.02,28.345h0a14.354,14.354,0,0,0,9.609-3.654,14.181,14.181,0,0,0,3.522-15.684A13.884,13.884,0,0,0,2206.757,1710.2Zm.021,26.716a12.383,12.383,0,1,1,8.512-3.229A12.71,12.71,0,0,1,2206.778,1736.912Zm-.021-24.753a12.21,12.21,0,0,0,.02,24.419,12.376,12.376,0,0,0,8.288-3.143,12.3,12.3,0,0,0-8.308-21.276Z" transform="translate(-2192.231 -1709.863)" fill="#2755a1" stroke="#2755a1" stroke-width="2"/>
          </g>
        </g>
      </g>
      <g id="Grupo_961" data-name="Grupo 961" transform="translate(2109.803 1659.521)">
        <g id="Grupo_959" data-name="Grupo 959" transform="translate(0 29.401)">
          <path id="Caminho_811" data-name="Caminho 811" d="M2174.644,1711.689a20.044,20.044,0,0,0-4.573-3.526c-4.827-2.775-11.3-4.3-18.23-4.3s-13.4,1.528-18.23,4.3a19.97,19.97,0,0,0-4.632,3.588l1.289,1.528a15.966,15.966,0,0,1,4.323-3.413c4.533-2.607,10.659-4.042,17.251-4.042s12.718,1.435,17.251,4.042a16.418,16.418,0,0,1,4.339,3.413Z" transform="translate(-2128.755 -1703.693)" fill="#2755a1" stroke="#2755a1" stroke-width="2"/>
          <path id="Caminho_812" data-name="Caminho 812" d="M2173.327,1713.46l-.134-.153a16.275,16.275,0,0,0-4.3-3.378c-4.508-2.593-10.6-4.02-17.167-4.02s-12.66,1.427-17.167,4.02a15.775,15.775,0,0,0-4.28,3.378l-.128.147-1.51-1.79.1-.109a20.2,20.2,0,0,1,4.67-3.618c4.852-2.79,11.356-4.326,18.314-4.326s13.46,1.536,18.314,4.326a20.236,20.236,0,0,1,4.611,3.556l.1.1Zm-44.237-1.786,1.069,1.268a16.213,16.213,0,0,1,4.236-3.3c4.558-2.621,10.714-4.064,17.334-4.064s12.776,1.443,17.334,4.064a16.729,16.729,0,0,1,4.245,3.3l1.006-1.317a20.065,20.065,0,0,0-4.438-3.394c-4.8-2.76-11.248-4.281-18.147-4.281s-13.345,1.521-18.147,4.281A19.98,19.98,0,0,0,2129.09,1711.674Z" transform="translate(-2128.644 -1703.61)" fill="#2755a1" stroke="#2755a1" stroke-width="2"/>
        </g>
        <g id="Grupo_960" data-name="Grupo 960" transform="translate(8.558)">
          <path id="Caminho_813" data-name="Caminho 813" d="M2146.339,1684.612a14.125,14.125,0,0,0,9.77,3.836h0a14.512,14.512,0,0,0,9.721-3.7,14.346,14.346,0,0,0,3.565-15.869,14.313,14.313,0,1,0-23.056,15.73Zm-1.742-15.049a12.389,12.389,0,1,1,19.911,13.737,12.542,12.542,0,0,1-8.4,3.185h0a12.369,12.369,0,0,1-11.512-16.922Z" transform="translate(-2141.562 -1659.604)" fill="#2755a1" stroke="#2755a1" stroke-width="2"/>
          <path id="Caminho_814" data-name="Caminho 814" d="M2156.025,1688.532a14.506,14.506,0,1,1,13.441-19.793,14.511,14.511,0,0,1-3.608,16.052A14.685,14.685,0,0,1,2156.025,1688.532Zm-.021-28.678a14.172,14.172,0,0,0,.02,28.344h0a14.35,14.35,0,0,0,9.609-3.654,14.18,14.18,0,0,0,3.522-15.684A13.882,13.882,0,0,0,2156,1659.854Zm.021,26.715a12.381,12.381,0,1,1,8.512-3.229A12.713,12.713,0,0,1,2156.025,1686.569Zm-.021-24.753a12.21,12.21,0,0,0,.02,24.419,12.375,12.375,0,0,0,8.288-3.142,12.3,12.3,0,0,0-8.308-21.277Z" transform="translate(-2141.478 -1659.521)" fill="#2755a1" stroke="#2755a1" stroke-width="2"/>
        </g>
      </g>
      <g id="Grupo_963" data-name="Grupo 963" transform="translate(2125.987 1745.776)">
        <g id="Grupo_962" data-name="Grupo 962" transform="translate(0)">
          <path id="Caminho_815" data-name="Caminho 815" d="M2166.669,1789.118h-13.506v1.965h13.506Z" transform="translate(-2152.996 -1788.951)" fill="#2755a1" stroke="#2755a1" stroke-width="2"/>
          <path id="Caminho_816" data-name="Caminho 816" d="M2166.752,1791.166h-13.839v-2.3h13.839Zm-13.506-.333h13.172V1789.2h-13.172Z" transform="translate(-2152.913 -1788.868)" fill="#2755a1" stroke="#2755a1" stroke-width="2"/>
        </g>
      </g>
    </g>
  </g>
</svg>
