<svg xmlns="http://www.w3.org/2000/svg" width="122.738" height="154.229" viewBox="0 0 122.738 154.229">
  <g id="Grupo_816" data-name="Grupo 816" transform="translate(-930.262 -1757)">
    <circle id="Elipse_107" data-name="Elipse 107" cx="52.5" cy="52.5" r="52.5" transform="translate(948 1757)" fill="#2755a1"/>
    <g id="Grupo_811" data-name="Grupo 811" transform="translate(698.699 1765.637)">
      <path id="Caminho_712" data-name="Caminho 712" d="M367.9,73.427a1.951,1.951,0,0,0,.549-1.415,24.9,24.9,0,0,1,.884-7.884,33.285,33.285,0,0,1,3.89-8.024,1.95,1.95,0,0,0-1.653-2.985h-9.605V40.637h2.119a1.951,1.951,0,0,0,1.224-3.469L348.655,23.749a1.95,1.95,0,0,0-2.448,0L329.55,37.168a1.95,1.95,0,0,0,1.223,3.469h1.361V53.118h-9.316a1.949,1.949,0,0,0-1.655,2.981,33.686,33.686,0,0,1,3.882,8.027,24.979,24.979,0,0,1,.889,7.886,1.923,1.923,0,0,0,1.4,1.914q-1.074,7.968-2.148,15.934L319.5,132.028l-.191,1.41-1.638,12.155h59.048l-9.663-71.665A1.937,1.937,0,0,0,367.9,73.427Zm-4.044,5.96-36.137,20.863,1.328-9.867q1.1-8.177,2.207-16.365h31.877ZM358.07,53.117h-9.147V40.636h9.147ZM347.434,27.772l11.127,8.965H336.306Zm-11.4,12.865h8.984V53.119h-8.984ZM326.22,57.018h41.95a31.318,31.318,0,0,0-2.57,6,26.912,26.912,0,0,0-1.052,7.1H329.842a27.034,27.034,0,0,0-1.055-7.107A31.653,31.653,0,0,0,326.22,57.018Zm.843,48.116,37.36-21.57,2.818,20.9-43.471,25.1Zm-3.95,29.314,44.692-25.8,2.841,21.075L349.91,141.693H322.136Zm34.6,7.245,13.5-7.794,1.051,7.794Z" transform="translate(-86.109)" fill="#fff"/>
      <path id="Caminho_713" data-name="Caminho 713" d="M525.278,54.666l-.858-3.8L479.4,61.027l0,.013a2.14,2.14,0,0,0-.259,4.057V65.1l.174.048a2,2,0,0,0,.253.068L524.22,77.255l1.015-3.765L487.258,63.251Z" transform="translate(-200.664 -19.704)" fill="#fff"/>
    </g>
  </g>
</svg>
